{"glyphs":{"0":{"ha":833,"x_min":78,"x_max":756,"o":"m 400 -14 q 236 28 310 -14 q 120 143 163 69 q 78 311 78 217 l 78 642 q 122 810 78 736 q 240 925 165 883 q 404 967 314 967 l 436 967 q 600 925 528 967 q 714 810 672 883 q 756 642 756 736 l 756 311 q 713 143 756 217 q 597 28 669 69 q 432 -14 524 -14 l 400 -14 m 417 113 q 506 136 467 113 q 569 200 546 160 q 592 290 592 240 l 592 663 q 569 753 592 714 q 506 817 546 793 q 417 840 467 840 q 327 817 367 840 q 265 753 288 793 q 242 663 242 714 l 242 290 q 265 200 242 240 q 327 136 288 160 q 417 113 367 113 z "},"1":{"ha":833,"x_min":113,"x_max":761,"o":"m 113 0 l 113 132 l 357 132 l 357 769 l 113 769 l 113 867 q 219 884 161 871 q 340 919 278 897 q 461 967 403 940 l 519 967 l 519 132 l 761 132 l 761 0 l 113 0 z "},"2":{"ha":833,"x_min":76,"x_max":757,"o":"m 76 0 l 76 40 q 108 190 76 125 q 206 300 139 256 l 483 485 q 558 562 528 515 q 588 668 588 608 q 544 788 588 743 q 414 833 500 833 q 322 810 363 833 q 258 748 282 788 q 235 658 235 708 q 235 640 235 649 q 236 624 235 632 l 86 624 q 85 638 85 632 q 85 649 85 643 q 126 813 85 742 q 241 926 167 885 q 414 967 315 967 l 435 967 q 603 929 532 967 q 715 826 675 892 q 754 674 754 760 q 730 547 754 601 q 663 452 706 493 q 567 375 621 411 l 353 233 q 309 201 326 215 q 283 172 292 186 q 272 140 275 157 l 757 140 l 757 0 l 76 0 z "},"3":{"ha":833,"x_min":57,"x_max":758,"o":"m 393 -14 q 216 21 292 -14 q 99 117 140 56 q 57 257 57 179 l 57 282 l 207 282 q 260 153 207 192 q 400 114 313 114 q 540 153 486 114 q 594 274 594 193 q 570 363 594 328 q 505 414 546 397 q 415 431 464 431 l 292 431 l 292 543 l 401 543 q 488 560 449 543 q 550 610 526 576 q 574 693 574 643 q 551 774 574 742 q 488 822 528 806 q 400 838 449 838 q 272 797 318 838 q 226 682 226 757 l 82 682 l 82 708 q 124 844 82 786 q 237 934 165 901 q 400 967 308 967 l 422 967 q 582 935 511 967 q 694 845 653 903 q 735 710 735 788 q 716 615 735 656 q 665 547 697 575 q 589 499 632 518 l 589 490 q 711 408 664 467 q 758 257 758 350 q 716 116 758 176 q 598 21 674 56 q 422 -14 522 -14 l 393 -14 z "},"4":{"ha":833,"x_min":50,"x_max":774,"o":"m 490 0 l 490 238 l 50 238 l 50 367 q 99 449 69 397 q 160 567 128 501 q 224 703 192 632 q 284 843 257 775 q 329 967 311 911 l 482 967 q 438 838 465 907 q 377 699 411 769 q 307 563 343 628 q 237 447 271 499 q 175 365 203 396 l 490 365 l 490 626 q 515 670 501 643 q 542 726 529 697 q 567 783 556 756 q 583 831 578 811 l 650 831 l 650 365 l 774 365 l 774 238 l 650 238 l 650 0 l 490 0 z "},"5":{"ha":833,"x_min":78,"x_max":758,"o":"m 418 -14 q 238 26 315 -14 q 119 138 161 67 q 78 301 78 208 l 229 301 q 251 208 229 250 q 315 142 274 167 q 413 118 357 118 q 512 144 471 118 q 574 213 553 169 q 596 308 596 257 q 572 406 596 363 q 507 473 549 449 q 413 497 465 497 q 317 472 361 497 q 247 407 272 446 l 113 426 l 153 953 l 704 953 l 704 806 l 283 806 l 264 550 q 347 603 297 582 q 456 624 396 624 q 614 584 546 624 q 720 473 682 544 q 758 304 758 401 q 715 141 758 213 q 596 28 672 69 q 418 -14 519 -14 z "},"6":{"ha":833,"x_min":92,"x_max":771,"o":"m 422 -14 q 254 28 329 -14 q 135 142 179 69 q 92 311 92 215 l 92 642 q 135 811 92 738 q 252 926 178 885 q 418 967 326 967 l 439 967 q 598 929 528 967 q 709 822 668 892 q 750 654 750 753 l 600 654 q 552 789 600 740 q 431 838 504 838 q 341 815 381 838 q 278 752 301 792 q 256 663 256 713 l 256 501 q 352 576 294 550 q 468 601 410 601 q 621 565 553 601 q 730 463 689 529 q 771 304 771 396 q 727 137 771 208 q 609 26 683 65 q 442 -14 535 -14 l 422 -14 m 432 110 q 527 134 488 110 q 588 201 567 158 q 610 301 610 244 q 588 403 610 360 q 525 469 565 446 q 432 492 485 492 q 338 468 378 492 q 277 402 299 444 q 256 303 256 360 q 277 200 256 243 q 339 133 299 157 q 432 110 379 110 z "},"7":{"ha":833,"x_min":92,"x_max":769,"o":"m 235 0 q 265 233 235 121 q 344 448 294 346 q 453 640 393 550 q 572 806 513 731 l 92 806 l 92 953 l 769 953 l 769 874 q 617 663 685 768 q 504 451 550 558 q 436 232 458 344 q 419 0 414 119 l 235 0 z "},"8":{"ha":833,"x_min":75,"x_max":760,"o":"m 417 -14 q 240 17 317 -14 q 119 108 163 47 q 75 258 75 169 q 118 402 75 349 q 231 486 161 456 l 231 492 q 142 569 178 524 q 107 700 107 614 q 147 845 107 786 q 258 935 188 904 q 417 967 328 967 q 577 935 507 967 q 688 845 647 904 q 728 700 728 786 q 711 604 728 643 q 666 540 694 565 q 601 492 638 514 l 601 486 q 716 401 672 451 q 760 258 760 351 q 669 58 760 131 q 417 -14 579 -14 m 417 104 q 551 149 507 104 q 594 271 594 194 q 548 392 594 349 q 417 435 501 435 q 285 390 332 435 q 239 271 239 346 q 283 149 239 193 q 417 104 326 104 m 417 539 q 531 579 486 539 q 576 694 576 619 q 533 810 576 769 q 415 850 489 850 q 300 809 343 850 q 257 694 257 768 q 303 579 257 619 q 417 539 349 539 z "},"9":{"ha":833,"x_min":63,"x_max":742,"o":"m 404 -14 q 233 24 306 -14 q 119 133 160 63 q 79 299 79 203 l 229 299 q 277 165 229 215 q 401 115 325 115 q 492 138 453 115 q 555 201 532 161 q 578 290 578 240 l 578 453 q 481 378 539 404 q 365 351 424 351 q 213 388 282 351 q 103 490 144 424 q 63 649 63 557 q 106 817 63 746 q 227 928 150 889 q 401 967 304 967 q 577 926 500 967 q 698 812 654 885 q 742 642 742 739 l 742 311 q 698 140 742 214 q 578 26 654 67 q 404 -14 501 -14 m 401 461 q 496 485 457 461 q 556 553 535 510 q 578 651 578 596 q 556 753 578 711 q 494 819 533 796 q 401 843 454 843 q 306 819 346 843 q 245 751 267 794 q 224 651 224 708 q 246 551 224 594 q 308 485 268 508 q 401 461 347 461 z "},"A":{"ha":833,"x_min":15,"x_max":818,"o":"m 15 0 l 311 953 l 521 953 l 818 0 l 646 0 l 413 796 l 407 796 l 181 0 l 15 0 m 176 207 l 176 333 l 650 333 l 650 207 l 176 207 z "},"Á":{"ha":833,"x_min":15,"x_max":818,"o":"m 15 0 l 311 953 l 521 953 l 818 0 l 646 0 l 413 796 l 407 796 l 181 0 l 15 0 m 176 207 l 176 333 l 650 333 l 650 207 l 176 207 m 353 1049 l 490 1236 l 643 1236 l 643 1232 l 481 1049 l 353 1049 z "},"Ă":{"ha":833,"x_min":15,"x_max":818,"o":"m 15 0 l 311 953 l 521 953 l 818 0 l 646 0 l 413 796 l 407 796 l 181 0 l 15 0 m 176 207 l 176 333 l 650 333 l 650 207 l 176 207 m 410 1056 q 251 1106 304 1056 q 192 1231 197 1157 l 294 1231 q 335 1166 306 1186 q 414 1146 364 1146 q 499 1166 468 1146 q 542 1231 529 1186 l 643 1231 q 577 1106 638 1157 q 410 1056 517 1056 z "},"Ắ":{"ha":833,"x_min":15,"x_max":818,"o":"m 15 0 l 311 953 l 521 953 l 818 0 l 646 0 l 413 796 l 407 796 l 181 0 l 15 0 m 176 207 l 176 333 l 650 333 l 650 207 l 176 207 m 408 1057 q 273 1081 328 1057 q 190 1144 218 1104 q 163 1232 163 1183 l 265 1232 q 314 1167 276 1188 q 415 1147 351 1147 q 517 1167 481 1147 q 568 1232 554 1188 l 669 1232 q 638 1144 669 1183 q 547 1081 606 1104 q 408 1057 488 1057 m 346 1246 l 476 1447 l 619 1447 l 621 1443 l 458 1246 l 346 1246 z "},"Ặ":{"ha":833,"x_min":15,"x_max":818,"o":"m 15 0 l 311 953 l 521 953 l 818 0 l 646 0 l 413 796 l 407 796 l 181 0 l 15 0 m 176 207 l 176 333 l 650 333 l 650 207 l 176 207 m 410 1056 q 251 1106 304 1056 q 192 1231 197 1157 l 294 1231 q 335 1166 306 1186 q 414 1146 364 1146 q 499 1166 468 1146 q 542 1231 529 1186 l 643 1231 q 577 1106 638 1157 q 410 1056 517 1056 m 328 -256 l 328 -110 l 508 -110 l 508 -256 l 328 -256 z "},"Ằ":{"ha":833,"x_min":15,"x_max":818,"o":"m 15 0 l 311 953 l 521 953 l 818 0 l 646 0 l 413 796 l 407 796 l 181 0 l 15 0 m 176 207 l 176 333 l 650 333 l 650 207 l 176 207 m 417 1057 q 281 1081 338 1057 q 194 1144 225 1104 q 164 1232 164 1183 l 265 1232 q 317 1167 279 1188 q 418 1147 354 1147 q 520 1167 483 1147 q 568 1232 557 1188 l 671 1232 q 641 1144 671 1183 q 555 1081 611 1104 q 417 1057 499 1057 m 375 1246 l 213 1443 l 214 1447 l 357 1447 l 488 1246 l 375 1246 z "},"Ẳ":{"ha":833,"x_min":15,"x_max":818,"o":"m 15 0 l 311 953 l 521 953 l 818 0 l 646 0 l 413 796 l 407 796 l 181 0 l 15 0 m 176 207 l 176 333 l 650 333 l 650 207 l 176 207 m 417 1057 q 281 1081 338 1057 q 194 1144 225 1104 q 164 1232 164 1183 l 265 1232 q 317 1167 279 1188 q 418 1147 354 1147 q 520 1167 483 1147 q 568 1232 557 1188 l 671 1232 q 641 1144 671 1183 q 555 1081 611 1104 q 417 1057 499 1057 m 386 1246 l 386 1314 q 443 1333 422 1317 q 464 1376 464 1350 q 447 1414 464 1401 q 403 1426 431 1426 q 368 1423 388 1426 q 328 1413 349 1419 l 328 1497 q 369 1507 349 1504 q 410 1510 390 1510 q 507 1478 468 1510 q 546 1389 546 1447 q 523 1317 546 1349 q 464 1267 500 1286 q 386 1246 428 1249 z "},"Ẵ":{"ha":833,"x_min":15,"x_max":818,"o":"m 15 0 l 311 953 l 521 953 l 818 0 l 646 0 l 413 796 l 407 796 l 181 0 l 15 0 m 176 207 l 176 333 l 650 333 l 650 207 l 176 207 m 415 1057 q 280 1081 336 1057 q 193 1144 224 1104 q 163 1232 163 1183 l 264 1232 q 315 1167 278 1188 q 417 1147 353 1147 q 519 1167 482 1147 q 567 1232 556 1188 l 669 1232 q 640 1144 669 1183 q 553 1081 610 1104 q 415 1057 497 1057 m 157 1282 q 175 1358 157 1321 q 229 1420 193 1396 q 318 1444 265 1444 q 394 1433 363 1444 q 456 1408 426 1421 q 524 1396 486 1396 q 573 1408 554 1396 q 599 1444 592 1421 l 676 1444 q 658 1369 676 1407 q 605 1307 640 1332 q 515 1282 569 1282 q 442 1294 472 1282 q 381 1318 411 1306 q 310 1332 351 1331 q 261 1319 279 1332 q 236 1282 243 1306 l 157 1282 z "},"Ǎ":{"ha":833,"x_min":15,"x_max":818,"o":"m 15 0 l 311 953 l 521 953 l 818 0 l 646 0 l 413 796 l 407 796 l 181 0 l 15 0 m 176 207 l 176 333 l 650 333 l 650 207 l 176 207 m 339 1056 l 179 1229 l 314 1229 l 442 1092 l 393 1092 l 522 1229 l 656 1229 l 496 1056 l 339 1056 z "},"Â":{"ha":833,"x_min":15,"x_max":818,"o":"m 15 0 l 311 953 l 521 953 l 818 0 l 646 0 l 413 796 l 407 796 l 181 0 l 15 0 m 176 207 l 176 333 l 650 333 l 650 207 l 176 207 m 175 1056 l 338 1229 l 494 1229 l 654 1056 l 519 1056 l 392 1193 l 440 1193 l 308 1056 l 175 1056 z "},"Ấ":{"ha":833,"x_min":15,"x_max":818,"o":"m 15 0 l 311 953 l 521 953 l 818 0 l 646 0 l 413 796 l 407 796 l 181 0 l 15 0 m 176 207 l 176 333 l 650 333 l 650 207 l 176 207 m 165 1056 l 354 1229 l 479 1229 l 668 1056 l 542 1056 l 417 1138 l 290 1056 l 165 1056 m 360 1279 l 475 1458 l 618 1458 l 619 1454 l 472 1279 l 360 1279 z "},"Ậ":{"ha":833,"x_min":15,"x_max":818,"o":"m 15 0 l 311 953 l 521 953 l 818 0 l 646 0 l 413 796 l 407 796 l 181 0 l 15 0 m 176 207 l 176 333 l 650 333 l 650 207 l 176 207 m 175 1056 l 338 1229 l 494 1229 l 654 1056 l 519 1056 l 392 1193 l 440 1193 l 308 1056 l 175 1056 m 328 -256 l 328 -110 l 508 -110 l 508 -256 l 328 -256 z "},"Ầ":{"ha":833,"x_min":15,"x_max":818,"o":"m 15 0 l 311 953 l 521 953 l 818 0 l 646 0 l 413 796 l 407 796 l 181 0 l 15 0 m 176 207 l 176 333 l 650 333 l 650 207 l 176 207 m 165 1056 l 354 1229 l 479 1229 l 668 1056 l 543 1056 l 417 1138 l 292 1056 l 165 1056 m 361 1279 l 214 1454 l 215 1458 l 358 1458 l 474 1279 l 361 1279 z "},"Ẩ":{"ha":833,"x_min":15,"x_max":818,"o":"m 15 0 l 311 953 l 521 953 l 818 0 l 646 0 l 413 796 l 407 796 l 181 0 l 15 0 m 176 207 l 176 333 l 650 333 l 650 207 l 176 207 m 165 1056 l 354 1229 l 479 1229 l 668 1056 l 542 1056 l 417 1138 l 290 1056 l 165 1056 m 394 1279 l 394 1347 q 451 1367 431 1350 q 471 1410 471 1383 q 454 1449 471 1436 q 410 1461 438 1461 q 375 1458 394 1461 q 335 1446 356 1454 l 335 1531 q 376 1540 356 1538 q 417 1543 397 1543 q 514 1512 475 1543 q 553 1422 553 1481 q 530 1351 553 1382 q 471 1301 507 1319 q 394 1279 435 1282 z "},"Ẫ":{"ha":833,"x_min":15,"x_max":818,"o":"m 15 0 l 311 953 l 521 953 l 818 0 l 646 0 l 413 796 l 407 796 l 181 0 l 15 0 m 176 207 l 176 333 l 650 333 l 650 207 l 176 207 m 165 1056 l 354 1229 l 479 1229 l 668 1056 l 542 1056 l 417 1138 l 290 1056 l 165 1056 m 157 1281 q 175 1357 157 1319 q 229 1419 193 1394 q 318 1443 265 1443 q 394 1431 363 1443 q 456 1407 426 1419 q 524 1394 486 1394 q 573 1407 554 1394 q 599 1443 592 1419 l 676 1443 q 658 1368 676 1406 q 605 1306 640 1331 q 515 1281 569 1281 q 442 1292 472 1281 q 381 1317 411 1304 q 310 1331 351 1329 q 261 1317 279 1331 q 236 1281 243 1304 l 157 1281 z "},"Ȁ":{"ha":833,"x_min":15,"x_max":818,"o":"m 15 0 l 311 953 l 521 953 l 818 0 l 646 0 l 413 796 l 407 796 l 181 0 l 15 0 m 176 207 l 176 333 l 650 333 l 650 207 l 176 207 m 486 1042 l 322 1239 l 325 1243 l 467 1243 l 597 1042 l 486 1042 m 250 1042 l 86 1239 l 88 1243 l 231 1243 l 361 1042 l 250 1042 z "},"Ä":{"ha":833,"x_min":15,"x_max":818,"o":"m 15 0 l 311 953 l 521 953 l 818 0 l 646 0 l 413 796 l 407 796 l 181 0 l 15 0 m 176 207 l 176 333 l 650 333 l 650 207 l 176 207 m 188 1068 l 188 1211 l 332 1211 l 332 1068 l 188 1068 m 501 1068 l 501 1211 l 644 1211 l 644 1068 l 501 1068 z "},"Ạ":{"ha":833,"x_min":15,"x_max":818,"o":"m 15 0 l 311 953 l 521 953 l 818 0 l 646 0 l 413 796 l 407 796 l 181 0 l 15 0 m 176 207 l 176 333 l 650 333 l 650 207 l 176 207 m 328 -256 l 328 -110 l 508 -110 l 508 -256 l 328 -256 z "},"À":{"ha":833,"x_min":15,"x_max":818,"o":"m 15 0 l 311 953 l 521 953 l 818 0 l 646 0 l 413 796 l 407 796 l 181 0 l 15 0 m 176 207 l 176 333 l 650 333 l 650 207 l 176 207 m 368 1049 l 206 1232 l 206 1236 l 358 1236 l 496 1049 l 368 1049 z "},"Ả":{"ha":833,"x_min":15,"x_max":818,"o":"m 15 0 l 311 953 l 521 953 l 818 0 l 646 0 l 413 796 l 407 796 l 181 0 l 15 0 m 176 207 l 176 333 l 650 333 l 650 207 l 176 207 m 382 1050 l 382 1128 q 474 1189 474 1136 q 454 1226 474 1214 q 401 1239 435 1239 q 360 1235 383 1239 q 311 1222 336 1231 l 311 1324 q 362 1335 338 1332 q 410 1339 386 1339 q 527 1303 481 1339 q 574 1201 574 1267 q 547 1125 574 1158 q 477 1072 521 1092 q 382 1050 433 1053 z "},"Ȃ":{"ha":833,"x_min":15,"x_max":818,"o":"m 15 0 l 311 953 l 521 953 l 818 0 l 646 0 l 413 796 l 407 796 l 181 0 l 15 0 m 176 207 l 176 333 l 650 333 l 650 207 l 176 207 m 153 1044 q 224 1189 153 1136 q 419 1242 296 1242 q 613 1189 543 1242 q 683 1044 683 1136 l 581 1044 q 537 1123 578 1096 q 418 1150 496 1150 q 299 1123 340 1150 q 256 1044 258 1096 l 153 1044 z "},"Ā":{"ha":833,"x_min":15,"x_max":818,"o":"m 15 0 l 311 953 l 521 953 l 818 0 l 646 0 l 413 796 l 407 796 l 181 0 l 15 0 m 176 207 l 176 333 l 650 333 l 650 207 l 176 207 m 194 1090 l 194 1182 l 638 1182 l 638 1090 l 194 1090 z "},"Ą":{"ha":833,"x_min":15,"x_max":857,"o":"m 15 0 l 311 953 l 521 953 l 818 0 l 646 0 l 413 796 l 407 796 l 181 0 l 15 0 m 176 207 l 176 333 l 650 333 l 650 207 l 176 207 m 704 -200 q 635 -190 665 -200 q 589 -158 606 -179 q 572 -103 572 -136 q 591 -41 572 -68 q 632 0 610 -14 l 750 0 q 704 -37 724 -15 q 685 -83 685 -60 q 702 -121 685 -108 q 746 -133 719 -133 q 794 -127 771 -133 q 839 -114 817 -121 l 857 -165 q 780 -191 821 -182 q 704 -200 739 -200 z "},"Å":{"ha":833,"x_min":15,"x_max":818,"o":"m 15 0 l 311 953 l 521 953 l 818 0 l 646 0 l 413 796 l 407 796 l 181 0 l 15 0 m 176 207 l 176 333 l 650 333 l 650 207 l 176 207 m 417 1032 q 310 1072 353 1032 q 268 1171 268 1111 q 310 1272 268 1232 q 417 1311 353 1311 q 524 1272 482 1311 q 565 1171 565 1232 q 524 1072 565 1111 q 417 1032 482 1032 m 417 1101 q 467 1122 447 1101 q 488 1172 488 1142 q 467 1222 488 1203 q 417 1242 447 1242 q 366 1222 386 1242 q 346 1171 346 1203 q 366 1121 346 1140 q 417 1101 386 1101 z "},"Ǻ":{"ha":833,"x_min":15,"x_max":818,"o":"m 15 0 l 311 953 l 521 953 l 818 0 l 646 0 l 413 796 l 407 796 l 181 0 l 15 0 m 176 207 l 176 333 l 650 333 l 650 207 l 176 207 m 371 1369 l 456 1532 l 576 1532 l 578 1529 l 464 1369 l 371 1369 m 417 1025 q 310 1065 353 1025 q 268 1164 268 1104 q 310 1265 268 1225 q 417 1304 353 1304 q 524 1265 482 1304 q 565 1164 565 1225 q 524 1065 565 1104 q 417 1025 482 1025 m 417 1094 q 467 1115 447 1094 q 488 1165 488 1135 q 467 1215 488 1196 q 417 1235 447 1235 q 366 1215 386 1235 q 346 1164 346 1196 q 366 1114 346 1133 q 417 1094 386 1094 z "},"Ã":{"ha":833,"x_min":15,"x_max":818,"o":"m 15 0 l 311 953 l 521 953 l 818 0 l 646 0 l 413 796 l 407 796 l 181 0 l 15 0 m 176 207 l 176 333 l 650 333 l 650 207 l 176 207 m 163 1057 q 180 1138 164 1099 q 228 1202 196 1176 q 310 1228 261 1228 q 399 1213 363 1228 q 463 1183 435 1199 q 522 1168 492 1168 q 569 1184 553 1168 q 592 1228 585 1200 l 669 1228 q 652 1149 668 1189 q 605 1083 636 1110 q 524 1057 574 1057 q 433 1072 471 1057 q 367 1103 396 1088 q 306 1118 338 1118 q 265 1103 279 1118 q 242 1057 250 1089 l 163 1057 z "},"Æ":{"ha":833,"x_min":0,"x_max":821,"o":"m 0 0 l 289 953 l 814 953 l 793 818 l 553 818 l 553 553 l 756 553 l 756 421 l 553 421 l 553 139 l 800 139 l 821 0 l 403 0 l 403 817 l 394 817 l 165 0 l 0 0 m 165 207 l 165 333 l 483 333 l 483 207 l 165 207 z "},"Ǽ":{"ha":833,"x_min":0,"x_max":821,"o":"m 0 0 l 289 953 l 814 953 l 793 818 l 553 818 l 553 553 l 756 553 l 756 421 l 553 421 l 553 139 l 800 139 l 821 0 l 403 0 l 403 817 l 394 817 l 165 0 l 0 0 m 165 207 l 165 333 l 483 333 l 483 207 l 165 207 m 422 1049 l 560 1236 l 713 1236 l 713 1232 l 550 1049 l 422 1049 z "},"B":{"ha":833,"x_min":94,"x_max":776,"o":"m 94 0 l 94 953 l 504 953 q 638 924 582 953 q 724 842 693 894 q 754 724 754 790 q 729 607 754 653 q 665 535 704 561 q 586 499 626 510 l 586 490 q 647 472 614 486 q 709 432 679 458 q 758 362 739 406 q 776 254 776 318 q 742 124 776 182 q 649 33 708 67 q 513 0 589 0 l 94 0 m 253 135 l 469 135 q 543 154 511 135 q 592 207 575 174 q 610 279 610 240 q 591 356 610 324 q 540 405 572 388 q 469 422 508 422 l 253 422 l 253 135 m 253 550 l 454 550 q 524 568 493 550 q 572 619 554 586 q 589 692 589 651 q 558 790 589 756 q 467 825 526 825 l 253 825 l 253 550 z "},"C":{"ha":833,"x_min":43,"x_max":774,"o":"m 406 -14 q 262 9 328 -14 q 147 82 196 32 q 70 212 97 132 q 43 406 43 292 l 43 546 q 71 740 43 660 q 148 871 99 821 q 263 944 197 921 q 404 967 328 967 l 429 967 q 613 924 536 967 q 732 797 690 882 q 774 585 774 713 l 611 585 q 593 726 611 671 q 532 807 575 781 q 414 833 489 833 q 337 821 372 833 q 275 780 301 808 q 233 703 249 751 q 218 581 218 654 l 218 374 q 233 251 218 300 q 275 173 249 201 q 337 132 301 144 q 414 119 372 119 q 572 178 526 119 q 617 367 617 238 l 774 367 q 732 160 774 244 q 614 31 690 75 q 431 -14 538 -14 l 406 -14 z "},"Ć":{"ha":833,"x_min":43,"x_max":774,"o":"m 406 -14 q 262 9 328 -14 q 147 82 196 32 q 70 212 97 132 q 43 406 43 292 l 43 546 q 71 740 43 660 q 148 871 99 821 q 263 944 197 921 q 404 967 328 967 l 429 967 q 613 924 536 967 q 732 797 690 882 q 774 585 774 713 l 611 585 q 593 726 611 671 q 532 807 575 781 q 414 833 489 833 q 337 821 372 833 q 275 780 301 808 q 233 703 249 751 q 218 581 218 654 l 218 374 q 233 251 218 300 q 275 173 249 201 q 337 132 301 144 q 414 119 372 119 q 572 178 526 119 q 617 367 617 238 l 774 367 q 732 160 774 244 q 614 31 690 75 q 431 -14 538 -14 l 406 -14 m 353 1049 l 490 1236 l 643 1236 l 643 1232 l 481 1049 l 353 1049 z "},"Č":{"ha":833,"x_min":43,"x_max":774,"o":"m 406 -14 q 262 9 328 -14 q 147 82 196 32 q 70 212 97 132 q 43 406 43 292 l 43 546 q 71 740 43 660 q 148 871 99 821 q 263 944 197 921 q 404 967 328 967 l 429 967 q 613 924 536 967 q 732 797 690 882 q 774 585 774 713 l 611 585 q 593 726 611 671 q 532 807 575 781 q 414 833 489 833 q 337 821 372 833 q 275 780 301 808 q 233 703 249 751 q 218 581 218 654 l 218 374 q 233 251 218 300 q 275 173 249 201 q 337 132 301 144 q 414 119 372 119 q 572 178 526 119 q 617 367 617 238 l 774 367 q 732 160 774 244 q 614 31 690 75 q 431 -14 538 -14 l 406 -14 m 339 1056 l 179 1229 l 314 1229 l 442 1092 l 393 1092 l 522 1229 l 656 1229 l 496 1056 l 339 1056 z "},"Ç":{"ha":833,"x_min":43,"x_max":774,"o":"m 406 -14 q 262 9 328 -14 q 147 82 196 32 q 70 212 97 132 q 43 406 43 292 l 43 546 q 71 740 43 660 q 148 871 99 821 q 263 944 197 921 q 404 967 328 967 l 429 967 q 613 924 536 967 q 732 797 690 882 q 774 585 774 713 l 611 585 q 593 726 611 671 q 532 807 575 781 q 414 833 489 833 q 337 821 372 833 q 275 780 301 808 q 233 703 249 751 q 218 581 218 654 l 218 374 q 233 251 218 300 q 275 173 249 201 q 337 132 301 144 q 414 119 372 119 q 572 178 526 119 q 617 367 617 238 l 774 367 q 732 160 774 244 q 614 31 690 75 q 431 -14 538 -14 l 406 -14 m 404 -290 q 331 -283 368 -290 q 265 -258 293 -275 l 285 -190 q 312 -203 294 -197 q 351 -211 329 -208 q 392 -214 372 -214 q 449 -202 424 -214 q 475 -156 475 -190 q 458 -115 475 -128 q 413 -103 440 -103 l 378 -103 l 378 -40 l 411 -40 q 486 -51 450 -40 q 545 -88 522 -61 q 568 -165 568 -115 q 540 -242 568 -215 q 474 -280 513 -269 q 404 -290 436 -290 z "},"Ĉ":{"ha":833,"x_min":43,"x_max":774,"o":"m 406 -14 q 262 9 328 -14 q 147 82 196 32 q 70 212 97 132 q 43 406 43 292 l 43 546 q 71 740 43 660 q 148 871 99 821 q 263 944 197 921 q 404 967 328 967 l 429 967 q 613 924 536 967 q 732 797 690 882 q 774 585 774 713 l 611 585 q 593 726 611 671 q 532 807 575 781 q 414 833 489 833 q 337 821 372 833 q 275 780 301 808 q 233 703 249 751 q 218 581 218 654 l 218 374 q 233 251 218 300 q 275 173 249 201 q 337 132 301 144 q 414 119 372 119 q 572 178 526 119 q 617 367 617 238 l 774 367 q 732 160 774 244 q 614 31 690 75 q 431 -14 538 -14 l 406 -14 m 175 1056 l 338 1229 l 494 1229 l 654 1056 l 519 1056 l 392 1193 l 440 1193 l 308 1056 l 175 1056 z "},"Ċ":{"ha":833,"x_min":43,"x_max":774,"o":"m 406 -14 q 262 9 328 -14 q 147 82 196 32 q 70 212 97 132 q 43 406 43 292 l 43 546 q 71 740 43 660 q 148 871 99 821 q 263 944 197 921 q 404 967 328 967 l 429 967 q 613 924 536 967 q 732 797 690 882 q 774 585 774 713 l 611 585 q 593 726 611 671 q 532 807 575 781 q 414 833 489 833 q 337 821 372 833 q 275 780 301 808 q 233 703 249 751 q 218 581 218 654 l 218 374 q 233 251 218 300 q 275 173 249 201 q 337 132 301 144 q 414 119 372 119 q 572 178 526 119 q 617 367 617 238 l 774 367 q 732 160 774 244 q 614 31 690 75 q 431 -14 538 -14 l 406 -14 m 340 1068 l 340 1213 l 486 1213 l 486 1068 l 340 1068 z "},"D":{"ha":833,"x_min":94,"x_max":814,"o":"m 94 0 l 94 953 l 436 953 q 584 931 515 953 q 704 864 653 910 q 785 745 756 818 q 814 571 814 672 l 814 382 q 785 209 814 282 q 704 90 756 136 q 584 22 653 44 q 436 0 515 0 l 94 0 m 267 135 l 424 135 q 535 156 486 135 q 611 227 583 176 q 639 369 639 278 l 639 585 q 611 725 639 674 q 535 798 583 776 q 424 819 486 819 l 267 819 l 267 135 z "},"Ǆ":{"ha":833,"x_min":35,"x_max":799,"o":"m 35 0 l 35 953 l 207 953 q 354 913 297 953 q 438 796 411 872 q 465 610 465 719 l 465 343 q 438 157 465 233 q 354 40 411 81 q 207 0 297 0 l 35 0 m 169 135 l 214 135 q 301 179 274 135 q 329 319 329 224 l 329 635 q 301 774 329 729 q 214 819 274 819 l 169 819 l 169 135 m 436 0 l 436 88 l 644 817 l 464 817 l 464 953 l 790 953 l 790 867 l 583 136 l 799 136 l 799 0 l 436 0 m 560 1056 l 474 1229 l 568 1229 l 631 1129 l 693 1229 l 788 1229 l 701 1056 l 560 1056 z "},"Ð":{"ha":833,"x_min":-3,"x_max":814,"o":"m 94 0 l 94 953 l 436 953 q 584 931 515 953 q 704 864 653 910 q 785 745 756 818 q 814 571 814 672 l 814 382 q 785 209 814 282 q 704 90 756 136 q 584 22 653 44 q 436 0 515 0 l 94 0 m 267 135 l 424 135 q 535 156 486 135 q 611 227 583 176 q 639 369 639 278 l 639 585 q 611 725 639 674 q 535 798 583 776 q 424 819 486 819 l 267 819 l 267 135 m -3 419 l -3 533 l 490 533 l 490 419 l -3 419 z "},"Ď":{"ha":833,"x_min":94,"x_max":814,"o":"m 94 0 l 94 953 l 436 953 q 584 931 515 953 q 704 864 653 910 q 785 745 756 818 q 814 571 814 672 l 814 382 q 785 209 814 282 q 704 90 756 136 q 584 22 653 44 q 436 0 515 0 l 94 0 m 267 135 l 424 135 q 535 156 486 135 q 611 227 583 176 q 639 369 639 278 l 639 585 q 611 725 639 674 q 535 798 583 776 q 424 819 486 819 l 267 819 l 267 135 m 339 1056 l 179 1229 l 314 1229 l 442 1092 l 393 1092 l 522 1229 l 656 1229 l 496 1056 l 339 1056 z "},"Đ":{"ha":833,"x_min":-3,"x_max":814,"o":"m 94 0 l 94 953 l 436 953 q 584 931 515 953 q 704 864 653 910 q 785 745 756 818 q 814 571 814 672 l 814 382 q 785 209 814 282 q 704 90 756 136 q 584 22 653 44 q 436 0 515 0 l 94 0 m 267 135 l 424 135 q 535 156 486 135 q 611 227 583 176 q 639 369 639 278 l 639 585 q 611 725 639 674 q 535 798 583 776 q 424 819 486 819 l 267 819 l 267 135 m -3 419 l -3 533 l 490 533 l 490 419 l -3 419 z "},"ǅ":{"ha":833,"x_min":35,"x_max":807,"o":"m 35 0 l 35 953 l 207 953 q 354 913 297 953 q 438 796 411 872 q 465 610 465 719 l 465 343 q 438 157 465 233 q 354 40 411 81 q 207 0 297 0 l 35 0 m 169 135 l 214 135 q 301 179 274 135 q 329 319 329 224 l 329 635 q 301 774 329 729 q 214 819 274 819 l 169 819 l 169 135 m 464 0 l 464 69 l 647 597 l 493 597 l 493 710 l 793 710 l 793 642 l 608 113 l 800 113 l 800 0 l 464 0 m 564 799 l 469 1000 l 563 1000 l 638 878 l 714 1000 l 807 1000 l 708 799 l 564 799 z "},"E":{"ha":833,"x_min":114,"x_max":754,"o":"m 114 0 l 114 953 l 747 953 l 726 818 l 283 818 l 283 553 l 689 553 l 689 421 l 283 421 l 283 139 l 733 139 l 754 0 l 114 0 z "},"É":{"ha":833,"x_min":114,"x_max":754,"o":"m 114 0 l 114 953 l 747 953 l 726 818 l 283 818 l 283 553 l 689 553 l 689 421 l 283 421 l 283 139 l 733 139 l 754 0 l 114 0 m 375 1049 l 513 1236 l 665 1236 l 665 1232 l 503 1049 l 375 1049 z "},"Ĕ":{"ha":833,"x_min":114,"x_max":754,"o":"m 114 0 l 114 953 l 747 953 l 726 818 l 283 818 l 283 553 l 689 553 l 689 421 l 283 421 l 283 139 l 733 139 l 754 0 l 114 0 m 432 1056 q 273 1106 326 1056 q 214 1231 219 1157 l 317 1231 q 357 1166 328 1186 q 436 1146 386 1146 q 521 1166 490 1146 q 564 1231 551 1186 l 665 1231 q 599 1106 660 1157 q 432 1056 539 1056 z "},"Ě":{"ha":833,"x_min":114,"x_max":754,"o":"m 114 0 l 114 953 l 747 953 l 726 818 l 283 818 l 283 553 l 689 553 l 689 421 l 283 421 l 283 139 l 733 139 l 754 0 l 114 0 m 361 1056 l 201 1229 l 336 1229 l 464 1092 l 415 1092 l 544 1229 l 678 1229 l 518 1056 l 361 1056 z "},"Ê":{"ha":833,"x_min":114,"x_max":754,"o":"m 114 0 l 114 953 l 747 953 l 726 818 l 283 818 l 283 553 l 689 553 l 689 421 l 283 421 l 283 139 l 733 139 l 754 0 l 114 0 m 197 1056 l 360 1229 l 517 1229 l 676 1056 l 542 1056 l 414 1193 l 463 1193 l 331 1056 l 197 1056 z "},"Ế":{"ha":833,"x_min":114,"x_max":754,"o":"m 114 0 l 114 953 l 747 953 l 726 818 l 283 818 l 283 553 l 689 553 l 689 421 l 283 421 l 283 139 l 733 139 l 754 0 l 114 0 m 188 1056 l 376 1229 l 501 1229 l 690 1056 l 564 1056 l 439 1138 l 313 1056 l 188 1056 m 382 1279 l 497 1458 l 640 1458 l 642 1454 l 494 1279 l 382 1279 z "},"Ệ":{"ha":833,"x_min":114,"x_max":754,"o":"m 114 0 l 114 953 l 747 953 l 726 818 l 283 818 l 283 553 l 689 553 l 689 421 l 283 421 l 283 139 l 733 139 l 754 0 l 114 0 m 197 1056 l 360 1229 l 517 1229 l 676 1056 l 542 1056 l 414 1193 l 463 1193 l 331 1056 l 197 1056 m 354 -256 l 354 -110 l 535 -110 l 535 -256 l 354 -256 z "},"Ề":{"ha":833,"x_min":114,"x_max":754,"o":"m 114 0 l 114 953 l 747 953 l 726 818 l 283 818 l 283 553 l 689 553 l 689 421 l 283 421 l 283 139 l 733 139 l 754 0 l 114 0 m 188 1056 l 376 1229 l 501 1229 l 690 1056 l 565 1056 l 439 1138 l 314 1056 l 188 1056 m 383 1279 l 236 1454 l 238 1458 l 381 1458 l 496 1279 l 383 1279 z "},"Ể":{"ha":833,"x_min":114,"x_max":754,"o":"m 114 0 l 114 953 l 747 953 l 726 818 l 283 818 l 283 553 l 689 553 l 689 421 l 283 421 l 283 139 l 733 139 l 754 0 l 114 0 m 188 1056 l 376 1229 l 501 1229 l 690 1056 l 564 1056 l 439 1138 l 313 1056 l 188 1056 m 417 1279 l 417 1347 q 473 1367 453 1350 q 493 1410 493 1383 q 476 1449 493 1436 q 432 1461 460 1461 q 397 1458 417 1461 q 357 1446 378 1454 l 357 1531 q 399 1540 378 1538 q 439 1543 419 1543 q 536 1512 497 1543 q 575 1422 575 1481 q 552 1351 575 1382 q 493 1301 529 1319 q 417 1279 457 1282 z "},"Ễ":{"ha":833,"x_min":114,"x_max":754,"o":"m 114 0 l 114 953 l 747 953 l 726 818 l 283 818 l 283 553 l 689 553 l 689 421 l 283 421 l 283 139 l 733 139 l 754 0 l 114 0 m 188 1056 l 376 1229 l 501 1229 l 690 1056 l 564 1056 l 439 1138 l 313 1056 l 188 1056 m 179 1281 q 197 1357 179 1319 q 251 1419 215 1394 q 340 1443 288 1443 q 417 1431 385 1443 q 478 1407 449 1419 q 546 1394 508 1394 q 595 1407 576 1394 q 621 1443 614 1419 l 699 1443 q 681 1368 699 1406 q 627 1306 663 1331 q 538 1281 592 1281 q 464 1292 494 1281 q 403 1317 433 1304 q 332 1331 374 1329 q 283 1317 301 1331 q 258 1281 265 1304 l 179 1281 z "},"Ȅ":{"ha":833,"x_min":108,"x_max":754,"o":"m 114 0 l 114 953 l 747 953 l 726 818 l 283 818 l 283 553 l 689 553 l 689 421 l 283 421 l 283 139 l 733 139 l 754 0 l 114 0 m 508 1042 l 344 1239 l 347 1243 l 489 1243 l 619 1042 l 508 1042 m 272 1042 l 108 1239 l 110 1243 l 253 1243 l 383 1042 l 272 1042 z "},"Ë":{"ha":833,"x_min":114,"x_max":754,"o":"m 114 0 l 114 953 l 747 953 l 726 818 l 283 818 l 283 553 l 689 553 l 689 421 l 283 421 l 283 139 l 733 139 l 754 0 l 114 0 m 210 1068 l 210 1211 l 354 1211 l 354 1068 l 210 1068 m 524 1068 l 524 1211 l 667 1211 l 667 1068 l 524 1068 z "},"Ė":{"ha":833,"x_min":114,"x_max":754,"o":"m 114 0 l 114 953 l 747 953 l 726 818 l 283 818 l 283 553 l 689 553 l 689 421 l 283 421 l 283 139 l 733 139 l 754 0 l 114 0 m 363 1068 l 363 1213 l 508 1213 l 508 1068 l 363 1068 z "},"Ẹ":{"ha":833,"x_min":114,"x_max":754,"o":"m 114 0 l 114 953 l 747 953 l 726 818 l 283 818 l 283 553 l 689 553 l 689 421 l 283 421 l 283 139 l 733 139 l 754 0 l 114 0 m 354 -256 l 354 -110 l 535 -110 l 535 -256 l 354 -256 z "},"È":{"ha":833,"x_min":114,"x_max":754,"o":"m 114 0 l 114 953 l 747 953 l 726 818 l 283 818 l 283 553 l 689 553 l 689 421 l 283 421 l 283 139 l 733 139 l 754 0 l 114 0 m 390 1049 l 228 1232 l 228 1236 l 381 1236 l 518 1049 l 390 1049 z "},"Ẻ":{"ha":833,"x_min":114,"x_max":754,"o":"m 114 0 l 114 953 l 747 953 l 726 818 l 283 818 l 283 553 l 689 553 l 689 421 l 283 421 l 283 139 l 733 139 l 754 0 l 114 0 m 404 1050 l 404 1128 q 496 1189 496 1136 q 476 1226 496 1214 q 424 1239 457 1239 q 382 1235 406 1239 q 333 1222 358 1231 l 333 1324 q 384 1335 360 1332 q 432 1339 408 1339 q 549 1303 503 1339 q 596 1201 596 1267 q 569 1125 596 1158 q 499 1072 543 1092 q 404 1050 456 1053 z "},"Ȇ":{"ha":833,"x_min":114,"x_max":754,"o":"m 114 0 l 114 953 l 747 953 l 726 818 l 283 818 l 283 553 l 689 553 l 689 421 l 283 421 l 283 139 l 733 139 l 754 0 l 114 0 m 175 1044 q 247 1189 175 1136 q 442 1242 318 1242 q 635 1189 565 1242 q 706 1044 706 1136 l 603 1044 q 559 1123 600 1096 q 440 1150 518 1150 q 322 1123 363 1150 q 278 1044 281 1096 l 175 1044 z "},"Ē":{"ha":833,"x_min":114,"x_max":754,"o":"m 114 0 l 114 953 l 747 953 l 726 818 l 283 818 l 283 553 l 689 553 l 689 421 l 283 421 l 283 139 l 733 139 l 754 0 l 114 0 m 217 1090 l 217 1182 l 660 1182 l 660 1090 l 217 1090 z "},"Ę":{"ha":833,"x_min":114,"x_max":797,"o":"m 114 0 l 114 953 l 747 953 l 726 818 l 283 818 l 283 553 l 689 553 l 689 421 l 283 421 l 283 139 l 733 139 l 754 0 l 114 0 m 644 -200 q 576 -190 606 -200 q 529 -158 546 -179 q 513 -103 513 -136 q 531 -41 513 -68 q 572 0 550 -14 l 690 0 q 644 -37 664 -15 q 625 -83 625 -60 q 642 -121 625 -108 q 686 -133 660 -133 q 734 -127 711 -133 q 779 -114 757 -121 l 797 -165 q 720 -191 761 -182 q 644 -200 679 -200 z "},"Ẽ":{"ha":833,"x_min":114,"x_max":754,"o":"m 114 0 l 114 953 l 747 953 l 726 818 l 283 818 l 283 553 l 689 553 l 689 421 l 283 421 l 283 139 l 733 139 l 754 0 l 114 0 m 185 1057 q 202 1138 186 1099 q 251 1202 218 1176 q 332 1228 283 1228 q 421 1213 385 1228 q 485 1183 457 1199 q 544 1168 514 1168 q 591 1184 575 1168 q 614 1228 607 1200 l 692 1228 q 674 1149 690 1189 q 627 1083 658 1110 q 546 1057 596 1057 q 456 1072 493 1057 q 389 1103 418 1088 q 328 1118 360 1118 q 287 1103 301 1118 q 264 1057 272 1089 l 185 1057 z "},"Ə":{"ha":833,"x_min":43,"x_max":790,"o":"m 392 -14 q 250 10 314 -14 q 140 83 186 33 q 68 213 93 133 q 43 406 43 293 l 43 490 l 617 490 l 617 554 q 601 692 617 638 q 559 778 586 747 q 495 821 532 808 q 414 833 458 833 q 274 785 329 833 q 218 640 218 736 l 218 625 l 47 625 l 47 643 q 96 818 47 746 q 225 928 144 890 q 403 967 306 967 l 431 967 q 576 942 510 967 q 690 867 642 918 q 764 732 738 815 q 790 531 790 649 l 790 421 q 762 221 790 304 q 682 86 733 138 q 563 10 631 35 q 417 -14 494 -14 l 392 -14 m 417 119 q 519 142 476 119 q 588 219 563 164 q 615 374 613 275 l 218 374 q 235 248 219 297 q 276 171 250 199 q 339 131 303 143 q 417 119 375 119 z "},"F":{"ha":833,"x_min":114,"x_max":728,"o":"m 114 0 l 114 953 l 728 953 l 708 815 l 282 815 l 282 542 l 658 542 l 658 410 l 282 410 l 282 0 l 114 0 z "},"Ƒ":{"ha":833,"x_min":-51,"x_max":728,"o":"m 81 -258 q 35 -255 60 -258 q -12 -246 11 -251 q -51 -232 -35 -240 l -51 -128 q -11 -143 -35 -137 q 35 -149 13 -149 q 89 -133 64 -149 q 114 -57 114 -117 l 114 953 l 728 953 l 708 815 l 282 815 l 282 542 l 658 542 l 658 410 l 282 410 l 282 -74 q 225 -213 282 -168 q 81 -258 168 -258 z "},"G":{"ha":833,"x_min":43,"x_max":785,"o":"m 397 -14 q 258 9 322 -14 q 145 82 193 32 q 70 212 97 132 q 43 406 43 292 l 43 546 q 69 740 43 660 q 144 871 96 821 q 259 944 193 921 q 404 967 325 967 l 431 967 q 563 946 501 967 q 673 883 625 925 q 748 774 721 840 q 775 618 775 708 l 614 618 q 590 738 614 690 q 523 809 567 785 q 415 833 479 833 q 314 811 358 833 q 244 734 269 789 q 218 581 218 679 l 218 374 q 233 251 218 300 q 276 173 249 201 q 339 132 303 144 q 417 119 375 119 q 517 138 471 119 q 590 205 563 157 q 617 339 617 253 l 617 388 l 393 388 l 393 507 l 775 507 l 775 181 q 778 79 775 122 q 785 0 781 36 l 686 0 l 657 117 q 553 19 621 53 q 408 -14 485 -14 l 397 -14 z "},"Ğ":{"ha":833,"x_min":43,"x_max":785,"o":"m 397 -14 q 258 9 322 -14 q 145 82 193 32 q 70 212 97 132 q 43 406 43 292 l 43 546 q 69 740 43 660 q 144 871 96 821 q 259 944 193 921 q 404 967 325 967 l 431 967 q 563 946 501 967 q 673 883 625 925 q 748 774 721 840 q 775 618 775 708 l 614 618 q 590 738 614 690 q 523 809 567 785 q 415 833 479 833 q 314 811 358 833 q 244 734 269 789 q 218 581 218 679 l 218 374 q 233 251 218 300 q 276 173 249 201 q 339 132 303 144 q 417 119 375 119 q 517 138 471 119 q 590 205 563 157 q 617 339 617 253 l 617 388 l 393 388 l 393 507 l 775 507 l 775 181 q 778 79 775 122 q 785 0 781 36 l 686 0 l 657 117 q 553 19 621 53 q 408 -14 485 -14 l 397 -14 m 411 1056 q 252 1106 306 1056 q 193 1231 199 1157 l 296 1231 q 336 1166 307 1186 q 415 1146 365 1146 q 500 1166 469 1146 q 543 1231 531 1186 l 644 1231 q 578 1106 639 1157 q 411 1056 518 1056 z "},"Ǧ":{"ha":833,"x_min":43,"x_max":785,"o":"m 397 -14 q 258 9 322 -14 q 145 82 193 32 q 70 212 97 132 q 43 406 43 292 l 43 546 q 69 740 43 660 q 144 871 96 821 q 259 944 193 921 q 404 967 325 967 l 431 967 q 563 946 501 967 q 673 883 625 925 q 748 774 721 840 q 775 618 775 708 l 614 618 q 590 738 614 690 q 523 809 567 785 q 415 833 479 833 q 314 811 358 833 q 244 734 269 789 q 218 581 218 679 l 218 374 q 233 251 218 300 q 276 173 249 201 q 339 132 303 144 q 417 119 375 119 q 517 138 471 119 q 590 205 563 157 q 617 339 617 253 l 617 388 l 393 388 l 393 507 l 775 507 l 775 181 q 778 79 775 122 q 785 0 781 36 l 686 0 l 657 117 q 553 19 621 53 q 408 -14 485 -14 l 397 -14 m 340 1056 l 181 1229 l 315 1229 l 443 1092 l 394 1092 l 524 1229 l 657 1229 l 497 1056 l 340 1056 z "},"Ĝ":{"ha":833,"x_min":43,"x_max":785,"o":"m 397 -14 q 258 9 322 -14 q 145 82 193 32 q 70 212 97 132 q 43 406 43 292 l 43 546 q 69 740 43 660 q 144 871 96 821 q 259 944 193 921 q 404 967 325 967 l 431 967 q 563 946 501 967 q 673 883 625 925 q 748 774 721 840 q 775 618 775 708 l 614 618 q 590 738 614 690 q 523 809 567 785 q 415 833 479 833 q 314 811 358 833 q 244 734 269 789 q 218 581 218 679 l 218 374 q 233 251 218 300 q 276 173 249 201 q 339 132 303 144 q 417 119 375 119 q 517 138 471 119 q 590 205 563 157 q 617 339 617 253 l 617 388 l 393 388 l 393 507 l 775 507 l 775 181 q 778 79 775 122 q 785 0 781 36 l 686 0 l 657 117 q 553 19 621 53 q 408 -14 485 -14 l 397 -14 m 176 1056 l 339 1229 l 496 1229 l 656 1056 l 521 1056 l 393 1193 l 442 1193 l 310 1056 l 176 1056 z "},"Ģ":{"ha":833,"x_min":43,"x_max":785,"o":"m 397 -14 q 258 9 322 -14 q 145 82 193 32 q 70 212 97 132 q 43 406 43 292 l 43 546 q 69 740 43 660 q 144 871 96 821 q 259 944 193 921 q 404 967 325 967 l 431 967 q 563 946 501 967 q 673 883 625 925 q 748 774 721 840 q 775 618 775 708 l 614 618 q 590 738 614 690 q 523 809 567 785 q 415 833 479 833 q 314 811 358 833 q 244 734 269 789 q 218 581 218 679 l 218 374 q 233 251 218 300 q 276 173 249 201 q 339 132 303 144 q 417 119 375 119 q 517 138 471 119 q 590 205 563 157 q 617 339 617 253 l 617 388 l 393 388 l 393 507 l 775 507 l 775 181 q 778 79 775 122 q 785 0 781 36 l 686 0 l 657 117 q 553 19 621 53 q 408 -14 485 -14 l 397 -14 m 335 -468 l 335 -451 q 389 -365 371 -411 q 407 -274 407 -319 l 340 -274 l 340 -97 l 492 -97 l 492 -249 q 472 -367 492 -308 q 414 -468 453 -425 l 335 -468 z "},"Ġ":{"ha":833,"x_min":43,"x_max":785,"o":"m 397 -14 q 258 9 322 -14 q 145 82 193 32 q 70 212 97 132 q 43 406 43 292 l 43 546 q 69 740 43 660 q 144 871 96 821 q 259 944 193 921 q 404 967 325 967 l 431 967 q 563 946 501 967 q 673 883 625 925 q 748 774 721 840 q 775 618 775 708 l 614 618 q 590 738 614 690 q 523 809 567 785 q 415 833 479 833 q 314 811 358 833 q 244 734 269 789 q 218 581 218 679 l 218 374 q 233 251 218 300 q 276 173 249 201 q 339 132 303 144 q 417 119 375 119 q 517 138 471 119 q 590 205 563 157 q 617 339 617 253 l 617 388 l 393 388 l 393 507 l 775 507 l 775 181 q 778 79 775 122 q 785 0 781 36 l 686 0 l 657 117 q 553 19 621 53 q 408 -14 485 -14 l 397 -14 m 342 1068 l 342 1213 l 488 1213 l 488 1068 l 342 1068 z "},"Ǥ":{"ha":833,"x_min":43,"x_max":846,"o":"m 397 -14 q 258 9 322 -14 q 145 82 193 32 q 70 212 97 132 q 43 406 43 292 l 43 546 q 69 740 43 660 q 144 871 96 821 q 259 944 193 921 q 404 967 325 967 l 431 967 q 563 946 501 967 q 673 883 625 925 q 748 774 721 840 q 775 618 775 708 l 614 618 q 590 738 614 690 q 523 809 567 785 q 415 833 479 833 q 314 811 358 833 q 244 734 269 789 q 218 581 218 679 l 218 374 q 233 251 218 300 q 276 173 249 201 q 339 132 303 144 q 417 119 375 119 q 517 138 471 119 q 590 205 563 157 q 617 339 617 253 l 617 388 l 393 388 l 393 507 l 775 507 l 775 181 q 778 79 775 122 q 785 0 781 36 l 686 0 l 657 117 q 553 19 621 53 q 408 -14 485 -14 l 397 -14 m 419 218 l 419 313 l 846 313 l 846 218 l 419 218 z "},"H":{"ha":833,"x_min":94,"x_max":739,"o":"m 94 0 l 94 953 l 260 953 l 260 556 l 574 556 l 574 953 l 739 953 l 739 0 l 574 0 l 574 417 l 260 417 l 260 0 l 94 0 z "},"Ħ":{"ha":833,"x_min":8,"x_max":825,"o":"m 94 0 l 94 953 l 260 953 l 260 556 l 574 556 l 574 953 l 739 953 l 739 0 l 574 0 l 574 417 l 260 417 l 260 0 l 94 0 m 8 699 l 8 808 l 825 808 l 825 699 l 8 699 z "},"Ĥ":{"ha":833,"x_min":94,"x_max":739,"o":"m 94 0 l 94 953 l 260 953 l 260 556 l 574 556 l 574 953 l 739 953 l 739 0 l 574 0 l 574 417 l 260 417 l 260 0 l 94 0 m 175 1056 l 338 1229 l 494 1229 l 654 1056 l 519 1056 l 392 1193 l 440 1193 l 308 1056 l 175 1056 z "},"Ḥ":{"ha":833,"x_min":94,"x_max":739,"o":"m 94 0 l 94 953 l 260 953 l 260 556 l 574 556 l 574 953 l 739 953 l 739 0 l 574 0 l 574 417 l 260 417 l 260 0 l 94 0 m 329 -256 l 329 -110 l 510 -110 l 510 -256 l 329 -256 z "},"I":{"ha":833,"x_min":136,"x_max":697,"o":"m 136 0 l 136 129 l 331 129 l 331 824 l 136 824 l 136 953 l 697 953 l 697 824 l 503 824 l 503 129 l 697 129 l 697 0 l 136 0 z "},"Ĳ":{"ha":833,"x_min":94,"x_max":739,"o":"m 94 389 l 94 953 l 265 953 l 265 389 l 94 389 m 414 -14 q 181 55 267 -14 q 94 247 94 124 l 94 303 l 265 303 l 265 250 q 307 152 265 189 q 418 115 349 115 q 529 152 488 115 q 571 250 571 189 l 571 953 l 739 953 l 739 247 q 701 106 739 164 q 596 17 664 47 q 436 -14 528 -14 l 414 -14 z "},"Í":{"ha":833,"x_min":136,"x_max":697,"o":"m 136 0 l 136 129 l 331 129 l 331 824 l 136 824 l 136 953 l 697 953 l 697 824 l 503 824 l 503 129 l 697 129 l 697 0 l 136 0 m 353 1049 l 490 1236 l 643 1236 l 643 1232 l 481 1049 l 353 1049 z "},"Ĭ":{"ha":833,"x_min":136,"x_max":697,"o":"m 136 0 l 136 129 l 331 129 l 331 824 l 136 824 l 136 953 l 697 953 l 697 824 l 503 824 l 503 129 l 697 129 l 697 0 l 136 0 m 410 1056 q 251 1106 304 1056 q 192 1231 197 1157 l 294 1231 q 335 1166 306 1186 q 414 1146 364 1146 q 499 1166 468 1146 q 542 1231 529 1186 l 643 1231 q 577 1106 638 1157 q 410 1056 517 1056 z "},"Ǐ":{"ha":833,"x_min":136,"x_max":697,"o":"m 136 0 l 136 129 l 331 129 l 331 824 l 136 824 l 136 953 l 697 953 l 697 824 l 503 824 l 503 129 l 697 129 l 697 0 l 136 0 m 339 1056 l 179 1229 l 314 1229 l 442 1092 l 393 1092 l 522 1229 l 656 1229 l 496 1056 l 339 1056 z "},"Î":{"ha":833,"x_min":136,"x_max":697,"o":"m 136 0 l 136 129 l 331 129 l 331 824 l 136 824 l 136 953 l 697 953 l 697 824 l 503 824 l 503 129 l 697 129 l 697 0 l 136 0 m 175 1056 l 338 1229 l 494 1229 l 654 1056 l 519 1056 l 392 1193 l 440 1193 l 308 1056 l 175 1056 z "},"Ȉ":{"ha":833,"x_min":86,"x_max":697,"o":"m 136 0 l 136 129 l 331 129 l 331 824 l 136 824 l 136 953 l 697 953 l 697 824 l 503 824 l 503 129 l 697 129 l 697 0 l 136 0 m 486 1042 l 322 1239 l 325 1243 l 467 1243 l 597 1042 l 486 1042 m 250 1042 l 86 1239 l 88 1243 l 231 1243 l 361 1042 l 250 1042 z "},"Ï":{"ha":833,"x_min":136,"x_max":697,"o":"m 136 0 l 136 129 l 331 129 l 331 824 l 136 824 l 136 953 l 697 953 l 697 824 l 503 824 l 503 129 l 697 129 l 697 0 l 136 0 m 188 1068 l 188 1211 l 332 1211 l 332 1068 l 188 1068 m 501 1068 l 501 1211 l 644 1211 l 644 1068 l 501 1068 z "},"İ":{"ha":833,"x_min":136,"x_max":697,"o":"m 136 0 l 136 129 l 331 129 l 331 824 l 136 824 l 136 953 l 697 953 l 697 824 l 503 824 l 503 129 l 697 129 l 697 0 l 136 0 m 340 1068 l 340 1213 l 486 1213 l 486 1068 l 340 1068 z "},"Ị":{"ha":833,"x_min":136,"x_max":697,"o":"m 136 0 l 136 129 l 331 129 l 331 824 l 136 824 l 136 953 l 697 953 l 697 824 l 503 824 l 503 129 l 697 129 l 697 0 l 136 0 m 329 -256 l 329 -110 l 510 -110 l 510 -256 l 329 -256 z "},"Ì":{"ha":833,"x_min":136,"x_max":697,"o":"m 136 0 l 136 129 l 331 129 l 331 824 l 136 824 l 136 953 l 697 953 l 697 824 l 503 824 l 503 129 l 697 129 l 697 0 l 136 0 m 368 1049 l 206 1232 l 206 1236 l 358 1236 l 496 1049 l 368 1049 z "},"Ỉ":{"ha":833,"x_min":136,"x_max":697,"o":"m 136 0 l 136 129 l 331 129 l 331 824 l 136 824 l 136 953 l 697 953 l 697 824 l 503 824 l 503 129 l 697 129 l 697 0 l 136 0 m 382 1050 l 382 1128 q 474 1189 474 1136 q 454 1226 474 1214 q 401 1239 435 1239 q 360 1235 383 1239 q 311 1222 336 1231 l 311 1324 q 362 1335 338 1332 q 410 1339 386 1339 q 527 1303 481 1339 q 574 1201 574 1267 q 547 1125 574 1158 q 477 1072 521 1092 q 382 1050 433 1053 z "},"Ȋ":{"ha":833,"x_min":136,"x_max":697,"o":"m 136 0 l 136 129 l 331 129 l 331 824 l 136 824 l 136 953 l 697 953 l 697 824 l 503 824 l 503 129 l 697 129 l 697 0 l 136 0 m 153 1044 q 224 1189 153 1136 q 419 1242 296 1242 q 613 1189 543 1242 q 683 1044 683 1136 l 581 1044 q 537 1123 578 1096 q 418 1150 496 1150 q 299 1123 340 1150 q 256 1044 258 1096 l 153 1044 z "},"Ī":{"ha":833,"x_min":136,"x_max":697,"o":"m 136 0 l 136 129 l 331 129 l 331 824 l 136 824 l 136 953 l 697 953 l 697 824 l 503 824 l 503 129 l 697 129 l 697 0 l 136 0 m 194 1090 l 194 1182 l 638 1182 l 638 1090 l 194 1090 z "},"Į":{"ha":833,"x_min":136,"x_max":706,"o":"m 136 0 l 136 129 l 331 129 l 331 824 l 136 824 l 136 953 l 697 953 l 697 824 l 503 824 l 503 129 l 697 129 l 697 0 l 136 0 m 553 -200 q 484 -190 514 -200 q 438 -158 454 -179 q 421 -103 421 -136 q 440 -41 421 -68 q 481 0 458 -14 l 599 0 q 553 -37 572 -15 q 533 -83 533 -60 q 551 -121 533 -108 q 594 -133 568 -133 q 642 -127 619 -133 q 688 -114 665 -121 l 706 -165 q 628 -191 669 -182 q 553 -200 588 -200 z "},"Ɨ":{"ha":833,"x_min":136,"x_max":697,"o":"m 172 540 l 660 540 l 660 415 l 172 415 l 172 540 m 136 0 l 136 129 l 331 129 l 331 824 l 136 824 l 136 953 l 697 953 l 697 824 l 503 824 l 503 129 l 697 129 l 697 0 l 136 0 z "},"Ĩ":{"ha":833,"x_min":136,"x_max":697,"o":"m 136 0 l 136 129 l 331 129 l 331 824 l 136 824 l 136 953 l 697 953 l 697 824 l 503 824 l 503 129 l 697 129 l 697 0 l 136 0 m 163 1057 q 180 1138 164 1099 q 228 1202 196 1176 q 310 1228 261 1228 q 399 1213 363 1228 q 463 1183 435 1199 q 522 1168 492 1168 q 569 1184 553 1168 q 592 1228 585 1200 l 669 1228 q 652 1149 668 1189 q 605 1083 636 1110 q 524 1057 574 1057 q 433 1072 471 1057 q 367 1103 396 1088 q 306 1118 338 1118 q 265 1103 279 1118 q 242 1057 250 1089 l 163 1057 z "},"J":{"ha":833,"x_min":121,"x_max":713,"o":"m 400 -14 q 256 15 319 -14 q 157 101 193 44 q 121 239 121 157 l 121 296 l 279 296 l 279 247 q 317 147 279 179 q 411 115 356 115 q 506 148 467 115 q 544 247 544 181 l 544 953 l 713 953 l 713 239 q 674 99 713 156 q 571 15 636 43 q 422 -14 506 -14 l 400 -14 z "},"Ĵ":{"ha":833,"x_min":121,"x_max":867,"o":"m 400 -14 q 256 15 319 -14 q 157 101 193 44 q 121 239 121 157 l 121 296 l 279 296 l 279 247 q 317 147 279 179 q 411 115 356 115 q 506 148 467 115 q 544 247 544 181 l 544 953 l 713 953 l 713 239 q 674 99 713 156 q 571 15 636 43 q 422 -14 506 -14 l 400 -14 m 388 1056 l 550 1229 l 707 1229 l 867 1056 l 732 1056 l 604 1193 l 653 1193 l 521 1056 l 388 1056 z "},"K":{"ha":833,"x_min":94,"x_max":817,"o":"m 94 0 l 94 953 l 260 953 l 260 449 l 625 953 l 803 953 l 500 507 l 817 0 l 626 0 l 371 401 l 260 254 l 260 0 l 94 0 z "},"Ķ":{"ha":833,"x_min":94,"x_max":817,"o":"m 94 0 l 94 953 l 260 953 l 260 449 l 625 953 l 803 953 l 500 507 l 817 0 l 626 0 l 371 401 l 260 254 l 260 0 l 94 0 m 333 -468 l 333 -451 q 388 -365 369 -411 q 406 -274 406 -319 l 339 -274 l 339 -97 l 490 -97 l 490 -249 q 471 -367 490 -308 q 413 -468 451 -425 l 333 -468 z "},"L":{"ha":833,"x_min":136,"x_max":746,"o":"m 136 0 l 136 953 l 307 953 l 307 140 l 725 140 l 746 0 l 136 0 z "},"Ǉ":{"ha":833,"x_min":94,"x_max":739,"o":"m 436 -258 q 247 -208 317 -258 q 178 -65 178 -158 l 178 -43 l 336 -43 l 336 -61 q 367 -120 336 -99 q 451 -142 397 -142 q 539 -110 507 -142 q 571 -22 571 -78 l 571 953 l 739 953 l 739 -22 q 706 -150 739 -97 q 615 -231 674 -203 q 476 -258 557 -258 l 436 -258 m 94 0 l 94 953 l 265 953 l 265 140 l 483 140 l 506 0 l 94 0 z "},"Ĺ":{"ha":833,"x_min":136,"x_max":746,"o":"m 136 0 l 136 953 l 307 953 l 307 140 l 725 140 l 746 0 l 136 0 m 158 1049 l 296 1236 l 449 1236 l 449 1232 l 286 1049 l 158 1049 z "},"Ľ":{"ha":833,"x_min":136,"x_max":746,"o":"m 136 0 l 136 953 l 307 953 l 307 140 l 725 140 l 746 0 l 136 0 m 544 603 l 544 621 q 599 704 581 661 q 618 793 617 747 l 549 793 l 549 967 l 704 967 l 704 819 q 683 703 704 758 q 625 603 661 647 l 544 603 z "},"Ļ":{"ha":833,"x_min":136,"x_max":746,"o":"m 136 0 l 136 953 l 307 953 l 307 140 l 725 140 l 746 0 l 136 0 m 365 -468 l 365 -451 q 419 -365 401 -411 q 438 -274 438 -319 l 371 -274 l 371 -97 l 522 -97 l 522 -249 q 503 -367 522 -308 q 444 -468 483 -425 l 365 -468 z "},"Ŀ":{"ha":833,"x_min":136,"x_max":746,"o":"m 136 0 l 136 953 l 307 953 l 307 140 l 725 140 l 746 0 l 136 0 m 496 436 l 496 624 l 690 624 l 690 436 l 496 436 z "},"ǈ":{"ha":833,"x_min":94,"x_max":736,"o":"m 94 0 l 94 953 l 267 953 l 267 140 l 593 140 l 614 0 l 94 0 m 486 -258 q 390 -247 438 -258 q 311 -218 343 -236 l 311 -108 q 372 -131 336 -121 q 443 -142 408 -142 q 500 -135 474 -142 q 543 -104 526 -128 q 560 -33 560 -81 l 560 710 l 721 710 l 721 -22 q 657 -200 721 -142 q 486 -258 593 -258 m 538 840 l 538 1000 l 736 1000 l 736 840 l 538 840 z "},"Ł":{"ha":833,"x_min":42,"x_max":746,"o":"m 136 0 l 136 953 l 307 953 l 307 140 l 725 140 l 746 0 l 136 0 m 42 325 l 42 424 l 486 646 l 486 547 l 42 325 z "},"M":{"ha":833,"x_min":74,"x_max":760,"o":"m 74 0 l 74 953 l 294 953 l 413 243 l 418 243 l 540 953 l 760 953 l 760 0 l 608 0 l 608 754 l 601 754 l 475 0 l 339 0 l 215 754 l 208 754 l 208 0 l 74 0 z "},"N":{"ha":833,"x_min":94,"x_max":739,"o":"m 94 0 l 94 953 l 260 953 l 528 414 l 576 307 l 582 307 l 582 953 l 739 953 l 739 0 l 574 0 l 297 547 l 257 642 l 251 640 l 251 0 l 94 0 z "},"Ǌ":{"ha":833,"x_min":82,"x_max":751,"o":"m 449 -258 q 269 -208 335 -258 q 203 -65 203 -158 l 203 -43 l 361 -43 l 361 -61 q 391 -120 361 -99 q 476 -142 421 -142 q 564 -110 532 -142 q 596 -22 596 -78 l 596 953 l 751 953 l 751 -22 q 719 -150 751 -97 q 627 -231 686 -203 q 489 -258 568 -258 l 449 -258 m 82 0 l 82 953 l 218 953 l 342 478 l 371 332 l 376 332 l 376 953 l 515 953 l 515 0 l 379 0 l 253 483 l 226 617 l 221 615 l 221 0 l 82 0 z "},"Ń":{"ha":833,"x_min":94,"x_max":739,"o":"m 94 0 l 94 953 l 260 953 l 528 414 l 576 307 l 582 307 l 582 953 l 739 953 l 739 0 l 574 0 l 297 547 l 257 642 l 251 640 l 251 0 l 94 0 m 353 1049 l 490 1236 l 643 1236 l 643 1232 l 481 1049 l 353 1049 z "},"Ň":{"ha":833,"x_min":94,"x_max":739,"o":"m 94 0 l 94 953 l 260 953 l 528 414 l 576 307 l 582 307 l 582 953 l 739 953 l 739 0 l 574 0 l 297 547 l 257 642 l 251 640 l 251 0 l 94 0 m 339 1056 l 179 1229 l 314 1229 l 442 1092 l 393 1092 l 522 1229 l 656 1229 l 496 1056 l 339 1056 z "},"Ņ":{"ha":833,"x_min":94,"x_max":739,"o":"m 94 0 l 94 953 l 260 953 l 528 414 l 576 307 l 582 307 l 582 953 l 739 953 l 739 0 l 574 0 l 297 547 l 257 642 l 251 640 l 251 0 l 94 0 m 333 -468 l 333 -451 q 388 -365 369 -411 q 406 -274 406 -319 l 339 -274 l 339 -97 l 490 -97 l 490 -249 q 471 -367 490 -308 q 413 -468 451 -425 l 333 -468 z "},"Ɲ":{"ha":833,"x_min":-72,"x_max":739,"o":"m 60 -258 q 15 -255 39 -258 q -33 -246 -10 -251 q -72 -232 -56 -240 l -72 -128 q -32 -143 -56 -137 q 14 -149 -8 -149 q 69 -132 43 -149 q 94 -54 94 -115 l 94 953 l 260 953 l 528 414 l 576 307 l 582 307 l 582 953 l 739 953 l 739 0 l 574 0 l 297 547 l 257 642 l 251 640 l 251 -74 q 199 -213 251 -168 q 60 -258 146 -258 z "},"ǋ":{"ha":833,"x_min":94,"x_max":771,"o":"m 94 0 l 94 953 l 231 953 l 354 478 l 383 332 l 389 332 l 389 953 l 528 953 l 528 0 l 392 0 l 265 483 l 239 617 l 233 615 l 233 0 l 94 0 m 518 -258 q 469 -253 497 -258 q 415 -240 442 -249 q 365 -218 388 -231 l 365 -108 q 426 -131 390 -121 q 499 -142 463 -142 q 557 -131 531 -142 q 599 -94 583 -121 q 615 -21 615 -68 l 615 710 l 753 710 l 753 -22 q 689 -200 753 -142 q 518 -258 625 -258 m 594 840 l 594 1000 l 771 1000 l 771 840 l 594 840 z "},"Ñ":{"ha":833,"x_min":94,"x_max":739,"o":"m 94 0 l 94 953 l 260 953 l 528 414 l 576 307 l 582 307 l 582 953 l 739 953 l 739 0 l 574 0 l 297 547 l 257 642 l 251 640 l 251 0 l 94 0 m 163 1057 q 180 1138 164 1099 q 228 1202 196 1176 q 310 1228 261 1228 q 399 1213 363 1228 q 463 1183 435 1199 q 522 1168 492 1168 q 569 1184 553 1168 q 592 1228 585 1200 l 669 1228 q 652 1149 668 1189 q 605 1083 636 1110 q 524 1057 574 1057 q 433 1072 471 1057 q 367 1103 396 1088 q 306 1118 338 1118 q 265 1103 279 1118 q 242 1057 250 1089 l 163 1057 z "},"Ŋ":{"ha":833,"x_min":94,"x_max":739,"o":"m 543 -258 q 498 -255 522 -258 q 451 -246 474 -251 q 411 -232 428 -240 l 411 -128 q 451 -143 428 -137 q 497 -149 475 -149 q 551 -133 526 -149 q 576 -57 576 -117 l 576 -7 l 297 547 l 257 642 l 251 640 l 251 0 l 94 0 l 94 953 l 260 953 l 528 414 l 576 307 l 582 307 l 582 953 l 739 953 l 739 -74 q 684 -213 739 -168 q 543 -258 629 -258 z "},"O":{"ha":833,"x_min":43,"x_max":790,"o":"m 406 -14 q 262 9 328 -14 q 147 82 196 32 q 70 212 97 132 q 43 406 43 292 l 43 546 q 71 740 43 660 q 148 871 99 821 q 263 944 197 921 q 404 967 328 967 l 429 967 q 573 943 507 967 q 688 869 639 919 q 763 740 736 819 q 790 546 790 660 l 790 406 q 763 213 790 293 q 688 83 736 133 q 574 10 639 33 q 431 -14 508 -14 l 406 -14 m 417 119 q 495 132 458 119 q 559 173 532 144 q 601 251 586 201 q 617 374 617 300 l 617 581 q 601 703 617 654 q 559 780 586 751 q 495 821 532 808 q 417 833 458 833 q 339 821 375 833 q 276 780 303 808 q 233 703 249 751 q 218 581 218 654 l 218 374 q 233 251 218 300 q 276 173 249 201 q 339 132 303 144 q 417 119 375 119 z "},"Ó":{"ha":833,"x_min":43,"x_max":790,"o":"m 406 -14 q 262 9 328 -14 q 147 82 196 32 q 70 212 97 132 q 43 406 43 292 l 43 546 q 71 740 43 660 q 148 871 99 821 q 263 944 197 921 q 404 967 328 967 l 429 967 q 573 943 507 967 q 688 869 639 919 q 763 740 736 819 q 790 546 790 660 l 790 406 q 763 213 790 293 q 688 83 736 133 q 574 10 639 33 q 431 -14 508 -14 l 406 -14 m 417 119 q 495 132 458 119 q 559 173 532 144 q 601 251 586 201 q 617 374 617 300 l 617 581 q 601 703 617 654 q 559 780 586 751 q 495 821 532 808 q 417 833 458 833 q 339 821 375 833 q 276 780 303 808 q 233 703 249 751 q 218 581 218 654 l 218 374 q 233 251 218 300 q 276 173 249 201 q 339 132 303 144 q 417 119 375 119 m 353 1049 l 490 1236 l 643 1236 l 643 1232 l 481 1049 l 353 1049 z "},"Ŏ":{"ha":833,"x_min":43,"x_max":790,"o":"m 406 -14 q 262 9 328 -14 q 147 82 196 32 q 70 212 97 132 q 43 406 43 292 l 43 546 q 71 740 43 660 q 148 871 99 821 q 263 944 197 921 q 404 967 328 967 l 429 967 q 573 943 507 967 q 688 869 639 919 q 763 740 736 819 q 790 546 790 660 l 790 406 q 763 213 790 293 q 688 83 736 133 q 574 10 639 33 q 431 -14 508 -14 l 406 -14 m 417 119 q 495 132 458 119 q 559 173 532 144 q 601 251 586 201 q 617 374 617 300 l 617 581 q 601 703 617 654 q 559 780 586 751 q 495 821 532 808 q 417 833 458 833 q 339 821 375 833 q 276 780 303 808 q 233 703 249 751 q 218 581 218 654 l 218 374 q 233 251 218 300 q 276 173 249 201 q 339 132 303 144 q 417 119 375 119 m 410 1056 q 251 1106 304 1056 q 192 1231 197 1157 l 294 1231 q 335 1166 306 1186 q 414 1146 364 1146 q 499 1166 468 1146 q 542 1231 529 1186 l 643 1231 q 577 1106 638 1157 q 410 1056 517 1056 z "},"Ǒ":{"ha":833,"x_min":43,"x_max":790,"o":"m 406 -14 q 262 9 328 -14 q 147 82 196 32 q 70 212 97 132 q 43 406 43 292 l 43 546 q 71 740 43 660 q 148 871 99 821 q 263 944 197 921 q 404 967 328 967 l 429 967 q 573 943 507 967 q 688 869 639 919 q 763 740 736 819 q 790 546 790 660 l 790 406 q 763 213 790 293 q 688 83 736 133 q 574 10 639 33 q 431 -14 508 -14 l 406 -14 m 417 119 q 495 132 458 119 q 559 173 532 144 q 601 251 586 201 q 617 374 617 300 l 617 581 q 601 703 617 654 q 559 780 586 751 q 495 821 532 808 q 417 833 458 833 q 339 821 375 833 q 276 780 303 808 q 233 703 249 751 q 218 581 218 654 l 218 374 q 233 251 218 300 q 276 173 249 201 q 339 132 303 144 q 417 119 375 119 m 339 1056 l 179 1229 l 314 1229 l 442 1092 l 393 1092 l 522 1229 l 656 1229 l 496 1056 l 339 1056 z "},"Ô":{"ha":833,"x_min":43,"x_max":790,"o":"m 406 -14 q 262 9 328 -14 q 147 82 196 32 q 70 212 97 132 q 43 406 43 292 l 43 546 q 71 740 43 660 q 148 871 99 821 q 263 944 197 921 q 404 967 328 967 l 429 967 q 573 943 507 967 q 688 869 639 919 q 763 740 736 819 q 790 546 790 660 l 790 406 q 763 213 790 293 q 688 83 736 133 q 574 10 639 33 q 431 -14 508 -14 l 406 -14 m 417 119 q 495 132 458 119 q 559 173 532 144 q 601 251 586 201 q 617 374 617 300 l 617 581 q 601 703 617 654 q 559 780 586 751 q 495 821 532 808 q 417 833 458 833 q 339 821 375 833 q 276 780 303 808 q 233 703 249 751 q 218 581 218 654 l 218 374 q 233 251 218 300 q 276 173 249 201 q 339 132 303 144 q 417 119 375 119 m 175 1056 l 338 1229 l 494 1229 l 654 1056 l 519 1056 l 392 1193 l 440 1193 l 308 1056 l 175 1056 z "},"Ố":{"ha":833,"x_min":43,"x_max":790,"o":"m 406 -14 q 262 9 328 -14 q 147 82 196 32 q 70 212 97 132 q 43 406 43 292 l 43 546 q 71 740 43 660 q 148 871 99 821 q 263 944 197 921 q 404 967 328 967 l 429 967 q 573 943 507 967 q 688 869 639 919 q 763 740 736 819 q 790 546 790 660 l 790 406 q 763 213 790 293 q 688 83 736 133 q 574 10 639 33 q 431 -14 508 -14 l 406 -14 m 417 119 q 495 132 458 119 q 559 173 532 144 q 601 251 586 201 q 617 374 617 300 l 617 581 q 601 703 617 654 q 559 780 586 751 q 495 821 532 808 q 417 833 458 833 q 339 821 375 833 q 276 780 303 808 q 233 703 249 751 q 218 581 218 654 l 218 374 q 233 251 218 300 q 276 173 249 201 q 339 132 303 144 q 417 119 375 119 m 165 1056 l 354 1229 l 479 1229 l 668 1056 l 542 1056 l 417 1138 l 290 1056 l 165 1056 m 360 1279 l 475 1458 l 618 1458 l 619 1454 l 472 1279 l 360 1279 z "},"Ộ":{"ha":833,"x_min":43,"x_max":790,"o":"m 406 -14 q 262 9 328 -14 q 147 82 196 32 q 70 212 97 132 q 43 406 43 292 l 43 546 q 71 740 43 660 q 148 871 99 821 q 263 944 197 921 q 404 967 328 967 l 429 967 q 573 943 507 967 q 688 869 639 919 q 763 740 736 819 q 790 546 790 660 l 790 406 q 763 213 790 293 q 688 83 736 133 q 574 10 639 33 q 431 -14 508 -14 l 406 -14 m 417 119 q 495 132 458 119 q 559 173 532 144 q 601 251 586 201 q 617 374 617 300 l 617 581 q 601 703 617 654 q 559 780 586 751 q 495 821 532 808 q 417 833 458 833 q 339 821 375 833 q 276 780 303 808 q 233 703 249 751 q 218 581 218 654 l 218 374 q 233 251 218 300 q 276 173 249 201 q 339 132 303 144 q 417 119 375 119 m 175 1056 l 338 1229 l 494 1229 l 654 1056 l 519 1056 l 392 1193 l 440 1193 l 308 1056 l 175 1056 m 329 -256 l 329 -110 l 510 -110 l 510 -256 l 329 -256 z "},"Ồ":{"ha":833,"x_min":43,"x_max":790,"o":"m 406 -14 q 262 9 328 -14 q 147 82 196 32 q 70 212 97 132 q 43 406 43 292 l 43 546 q 71 740 43 660 q 148 871 99 821 q 263 944 197 921 q 404 967 328 967 l 429 967 q 573 943 507 967 q 688 869 639 919 q 763 740 736 819 q 790 546 790 660 l 790 406 q 763 213 790 293 q 688 83 736 133 q 574 10 639 33 q 431 -14 508 -14 l 406 -14 m 417 119 q 495 132 458 119 q 559 173 532 144 q 601 251 586 201 q 617 374 617 300 l 617 581 q 601 703 617 654 q 559 780 586 751 q 495 821 532 808 q 417 833 458 833 q 339 821 375 833 q 276 780 303 808 q 233 703 249 751 q 218 581 218 654 l 218 374 q 233 251 218 300 q 276 173 249 201 q 339 132 303 144 q 417 119 375 119 m 165 1056 l 354 1229 l 479 1229 l 668 1056 l 543 1056 l 417 1138 l 292 1056 l 165 1056 m 361 1279 l 214 1454 l 215 1458 l 358 1458 l 474 1279 l 361 1279 z "},"Ổ":{"ha":833,"x_min":43,"x_max":790,"o":"m 406 -14 q 262 9 328 -14 q 147 82 196 32 q 70 212 97 132 q 43 406 43 292 l 43 546 q 71 740 43 660 q 148 871 99 821 q 263 944 197 921 q 404 967 328 967 l 429 967 q 573 943 507 967 q 688 869 639 919 q 763 740 736 819 q 790 546 790 660 l 790 406 q 763 213 790 293 q 688 83 736 133 q 574 10 639 33 q 431 -14 508 -14 l 406 -14 m 417 119 q 495 132 458 119 q 559 173 532 144 q 601 251 586 201 q 617 374 617 300 l 617 581 q 601 703 617 654 q 559 780 586 751 q 495 821 532 808 q 417 833 458 833 q 339 821 375 833 q 276 780 303 808 q 233 703 249 751 q 218 581 218 654 l 218 374 q 233 251 218 300 q 276 173 249 201 q 339 132 303 144 q 417 119 375 119 m 165 1056 l 354 1229 l 479 1229 l 668 1056 l 542 1056 l 417 1138 l 290 1056 l 165 1056 m 394 1279 l 394 1347 q 451 1367 431 1350 q 471 1410 471 1383 q 454 1449 471 1436 q 410 1461 438 1461 q 375 1458 394 1461 q 335 1446 356 1454 l 335 1531 q 376 1540 356 1538 q 417 1543 397 1543 q 514 1512 475 1543 q 553 1422 553 1481 q 530 1351 553 1382 q 471 1301 507 1319 q 394 1279 435 1282 z "},"Ỗ":{"ha":833,"x_min":43,"x_max":790,"o":"m 406 -14 q 262 9 328 -14 q 147 82 196 32 q 70 212 97 132 q 43 406 43 292 l 43 546 q 71 740 43 660 q 148 871 99 821 q 263 944 197 921 q 404 967 328 967 l 429 967 q 573 943 507 967 q 688 869 639 919 q 763 740 736 819 q 790 546 790 660 l 790 406 q 763 213 790 293 q 688 83 736 133 q 574 10 639 33 q 431 -14 508 -14 l 406 -14 m 417 119 q 495 132 458 119 q 559 173 532 144 q 601 251 586 201 q 617 374 617 300 l 617 581 q 601 703 617 654 q 559 780 586 751 q 495 821 532 808 q 417 833 458 833 q 339 821 375 833 q 276 780 303 808 q 233 703 249 751 q 218 581 218 654 l 218 374 q 233 251 218 300 q 276 173 249 201 q 339 132 303 144 q 417 119 375 119 m 165 1056 l 354 1229 l 479 1229 l 668 1056 l 542 1056 l 417 1138 l 290 1056 l 165 1056 m 157 1281 q 175 1357 157 1319 q 229 1419 193 1394 q 318 1443 265 1443 q 394 1431 363 1443 q 456 1407 426 1419 q 524 1394 486 1394 q 573 1407 554 1394 q 599 1443 592 1419 l 676 1443 q 658 1368 676 1406 q 605 1306 640 1331 q 515 1281 569 1281 q 442 1292 472 1281 q 381 1317 411 1304 q 310 1331 351 1329 q 261 1317 279 1331 q 236 1281 243 1304 l 157 1281 z "},"Ȍ":{"ha":833,"x_min":43,"x_max":790,"o":"m 406 -14 q 262 9 328 -14 q 147 82 196 32 q 70 212 97 132 q 43 406 43 292 l 43 546 q 71 740 43 660 q 148 871 99 821 q 263 944 197 921 q 404 967 328 967 l 429 967 q 573 943 507 967 q 688 869 639 919 q 763 740 736 819 q 790 546 790 660 l 790 406 q 763 213 790 293 q 688 83 736 133 q 574 10 639 33 q 431 -14 508 -14 l 406 -14 m 417 119 q 495 132 458 119 q 559 173 532 144 q 601 251 586 201 q 617 374 617 300 l 617 581 q 601 703 617 654 q 559 780 586 751 q 495 821 532 808 q 417 833 458 833 q 339 821 375 833 q 276 780 303 808 q 233 703 249 751 q 218 581 218 654 l 218 374 q 233 251 218 300 q 276 173 249 201 q 339 132 303 144 q 417 119 375 119 m 486 1042 l 322 1239 l 325 1243 l 467 1243 l 597 1042 l 486 1042 m 250 1042 l 86 1239 l 88 1243 l 231 1243 l 361 1042 l 250 1042 z "},"Ö":{"ha":833,"x_min":43,"x_max":790,"o":"m 406 -14 q 262 9 328 -14 q 147 82 196 32 q 70 212 97 132 q 43 406 43 292 l 43 546 q 71 740 43 660 q 148 871 99 821 q 263 944 197 921 q 404 967 328 967 l 429 967 q 573 943 507 967 q 688 869 639 919 q 763 740 736 819 q 790 546 790 660 l 790 406 q 763 213 790 293 q 688 83 736 133 q 574 10 639 33 q 431 -14 508 -14 l 406 -14 m 417 119 q 495 132 458 119 q 559 173 532 144 q 601 251 586 201 q 617 374 617 300 l 617 581 q 601 703 617 654 q 559 780 586 751 q 495 821 532 808 q 417 833 458 833 q 339 821 375 833 q 276 780 303 808 q 233 703 249 751 q 218 581 218 654 l 218 374 q 233 251 218 300 q 276 173 249 201 q 339 132 303 144 q 417 119 375 119 m 188 1068 l 188 1211 l 332 1211 l 332 1068 l 188 1068 m 501 1068 l 501 1211 l 644 1211 l 644 1068 l 501 1068 z "},"Ȫ":{"ha":833,"x_min":43,"x_max":790,"o":"m 406 -14 q 262 9 328 -14 q 147 82 196 32 q 70 212 97 132 q 43 406 43 292 l 43 546 q 71 740 43 660 q 148 871 99 821 q 263 944 197 921 q 404 967 328 967 l 429 967 q 573 943 507 967 q 688 869 639 919 q 763 740 736 819 q 790 546 790 660 l 790 406 q 763 213 790 293 q 688 83 736 133 q 574 10 639 33 q 431 -14 508 -14 l 406 -14 m 417 119 q 495 132 458 119 q 559 173 532 144 q 601 251 586 201 q 617 374 617 300 l 617 581 q 601 703 617 654 q 559 780 586 751 q 495 821 532 808 q 417 833 458 833 q 339 821 375 833 q 276 780 303 808 q 233 703 249 751 q 218 581 218 654 l 218 374 q 233 251 218 300 q 276 173 249 201 q 339 132 303 144 q 417 119 375 119 m 189 1294 l 189 1393 l 647 1393 l 647 1294 l 189 1294 m 647 1069 l 469 1069 l 469 1229 l 647 1229 l 647 1069 m 367 1069 l 189 1069 l 189 1229 l 367 1229 l 367 1069 z "},"Ȱ":{"ha":833,"x_min":43,"x_max":790,"o":"m 406 -14 q 262 9 328 -14 q 147 82 196 32 q 70 212 97 132 q 43 406 43 292 l 43 546 q 71 740 43 660 q 148 871 99 821 q 263 944 197 921 q 404 967 328 967 l 429 967 q 573 943 507 967 q 688 869 639 919 q 763 740 736 819 q 790 546 790 660 l 790 406 q 763 213 790 293 q 688 83 736 133 q 574 10 639 33 q 431 -14 508 -14 l 406 -14 m 417 119 q 495 132 458 119 q 559 173 532 144 q 601 251 586 201 q 617 374 617 300 l 617 581 q 601 703 617 654 q 559 780 586 751 q 495 821 532 808 q 417 833 458 833 q 339 821 375 833 q 276 780 303 808 q 233 703 249 751 q 218 581 218 654 l 218 374 q 233 251 218 300 q 276 173 249 201 q 339 132 303 144 q 417 119 375 119 m 204 1293 l 204 1390 l 631 1390 l 631 1293 l 204 1293 m 314 1063 l 314 1222 l 522 1222 l 522 1063 l 314 1063 z "},"Ọ":{"ha":833,"x_min":43,"x_max":790,"o":"m 406 -14 q 262 9 328 -14 q 147 82 196 32 q 70 212 97 132 q 43 406 43 292 l 43 546 q 71 740 43 660 q 148 871 99 821 q 263 944 197 921 q 404 967 328 967 l 429 967 q 573 943 507 967 q 688 869 639 919 q 763 740 736 819 q 790 546 790 660 l 790 406 q 763 213 790 293 q 688 83 736 133 q 574 10 639 33 q 431 -14 508 -14 l 406 -14 m 417 119 q 495 132 458 119 q 559 173 532 144 q 601 251 586 201 q 617 374 617 300 l 617 581 q 601 703 617 654 q 559 780 586 751 q 495 821 532 808 q 417 833 458 833 q 339 821 375 833 q 276 780 303 808 q 233 703 249 751 q 218 581 218 654 l 218 374 q 233 251 218 300 q 276 173 249 201 q 339 132 303 144 q 417 119 375 119 m 329 -256 l 329 -110 l 510 -110 l 510 -256 l 329 -256 z "},"Ò":{"ha":833,"x_min":43,"x_max":790,"o":"m 406 -14 q 262 9 328 -14 q 147 82 196 32 q 70 212 97 132 q 43 406 43 292 l 43 546 q 71 740 43 660 q 148 871 99 821 q 263 944 197 921 q 404 967 328 967 l 429 967 q 573 943 507 967 q 688 869 639 919 q 763 740 736 819 q 790 546 790 660 l 790 406 q 763 213 790 293 q 688 83 736 133 q 574 10 639 33 q 431 -14 508 -14 l 406 -14 m 417 119 q 495 132 458 119 q 559 173 532 144 q 601 251 586 201 q 617 374 617 300 l 617 581 q 601 703 617 654 q 559 780 586 751 q 495 821 532 808 q 417 833 458 833 q 339 821 375 833 q 276 780 303 808 q 233 703 249 751 q 218 581 218 654 l 218 374 q 233 251 218 300 q 276 173 249 201 q 339 132 303 144 q 417 119 375 119 m 368 1049 l 206 1232 l 206 1236 l 358 1236 l 496 1049 l 368 1049 z "},"Ỏ":{"ha":833,"x_min":43,"x_max":790,"o":"m 406 -14 q 262 9 328 -14 q 147 82 196 32 q 70 212 97 132 q 43 406 43 292 l 43 546 q 71 740 43 660 q 148 871 99 821 q 263 944 197 921 q 404 967 328 967 l 429 967 q 573 943 507 967 q 688 869 639 919 q 763 740 736 819 q 790 546 790 660 l 790 406 q 763 213 790 293 q 688 83 736 133 q 574 10 639 33 q 431 -14 508 -14 l 406 -14 m 417 119 q 495 132 458 119 q 559 173 532 144 q 601 251 586 201 q 617 374 617 300 l 617 581 q 601 703 617 654 q 559 780 586 751 q 495 821 532 808 q 417 833 458 833 q 339 821 375 833 q 276 780 303 808 q 233 703 249 751 q 218 581 218 654 l 218 374 q 233 251 218 300 q 276 173 249 201 q 339 132 303 144 q 417 119 375 119 m 382 1050 l 382 1128 q 474 1189 474 1136 q 454 1226 474 1214 q 401 1239 435 1239 q 360 1235 383 1239 q 311 1222 336 1231 l 311 1324 q 362 1335 338 1332 q 410 1339 386 1339 q 527 1303 481 1339 q 574 1201 574 1267 q 547 1125 574 1158 q 477 1072 521 1092 q 382 1050 433 1053 z "},"Ơ":{"ha":833,"x_min":43,"x_max":853,"o":"m 406 -14 q 262 9 328 -14 q 147 82 196 32 q 70 212 97 132 q 43 406 43 292 l 43 546 q 71 740 43 660 q 148 871 99 821 q 263 944 197 921 q 404 967 328 967 l 429 967 q 573 943 507 967 q 688 869 639 919 q 763 740 736 819 q 790 546 790 660 l 790 406 q 763 213 790 293 q 688 83 736 133 q 574 10 639 33 q 431 -14 508 -14 l 406 -14 m 417 119 q 495 132 458 119 q 559 173 532 144 q 601 251 586 201 q 617 374 617 300 l 617 581 q 601 703 617 654 q 559 780 586 751 q 495 821 532 808 q 417 833 458 833 q 339 821 375 833 q 276 780 303 808 q 233 703 249 751 q 218 581 218 654 l 218 374 q 233 251 218 300 q 276 173 249 201 q 339 132 303 144 q 417 119 375 119 m 601 817 l 601 907 q 684 972 660 922 q 708 1104 708 1021 l 853 1104 q 822 971 853 1032 q 735 869 792 910 q 601 817 679 829 z "},"Ớ":{"ha":833,"x_min":43,"x_max":853,"o":"m 406 -14 q 262 9 328 -14 q 147 82 196 32 q 70 212 97 132 q 43 406 43 292 l 43 546 q 71 740 43 660 q 148 871 99 821 q 263 944 197 921 q 404 967 328 967 l 429 967 q 573 943 507 967 q 688 869 639 919 q 763 740 736 819 q 790 546 790 660 l 790 406 q 763 213 790 293 q 688 83 736 133 q 574 10 639 33 q 431 -14 508 -14 l 406 -14 m 417 119 q 495 132 458 119 q 559 173 532 144 q 601 251 586 201 q 617 374 617 300 l 617 581 q 601 703 617 654 q 559 780 586 751 q 495 821 532 808 q 417 833 458 833 q 339 821 375 833 q 276 780 303 808 q 233 703 249 751 q 218 581 218 654 l 218 374 q 233 251 218 300 q 276 173 249 201 q 339 132 303 144 q 417 119 375 119 m 601 817 l 601 907 q 684 972 660 922 q 708 1104 708 1021 l 853 1104 q 822 971 853 1032 q 735 869 792 910 q 601 817 679 829 m 353 1049 l 490 1236 l 643 1236 l 643 1232 l 481 1049 l 353 1049 z "},"Ợ":{"ha":833,"x_min":43,"x_max":853,"o":"m 406 -14 q 262 9 328 -14 q 147 82 196 32 q 70 212 97 132 q 43 406 43 292 l 43 546 q 71 740 43 660 q 148 871 99 821 q 263 944 197 921 q 404 967 328 967 l 429 967 q 573 943 507 967 q 688 869 639 919 q 763 740 736 819 q 790 546 790 660 l 790 406 q 763 213 790 293 q 688 83 736 133 q 574 10 639 33 q 431 -14 508 -14 l 406 -14 m 417 119 q 495 132 458 119 q 559 173 532 144 q 601 251 586 201 q 617 374 617 300 l 617 581 q 601 703 617 654 q 559 780 586 751 q 495 821 532 808 q 417 833 458 833 q 339 821 375 833 q 276 780 303 808 q 233 703 249 751 q 218 581 218 654 l 218 374 q 233 251 218 300 q 276 173 249 201 q 339 132 303 144 q 417 119 375 119 m 601 817 l 601 907 q 684 972 660 922 q 708 1104 708 1021 l 853 1104 q 822 971 853 1032 q 735 869 792 910 q 601 817 679 829 m 329 -256 l 329 -110 l 510 -110 l 510 -256 l 329 -256 z "},"Ờ":{"ha":833,"x_min":43,"x_max":853,"o":"m 406 -14 q 262 9 328 -14 q 147 82 196 32 q 70 212 97 132 q 43 406 43 292 l 43 546 q 71 740 43 660 q 148 871 99 821 q 263 944 197 921 q 404 967 328 967 l 429 967 q 573 943 507 967 q 688 869 639 919 q 763 740 736 819 q 790 546 790 660 l 790 406 q 763 213 790 293 q 688 83 736 133 q 574 10 639 33 q 431 -14 508 -14 l 406 -14 m 417 119 q 495 132 458 119 q 559 173 532 144 q 601 251 586 201 q 617 374 617 300 l 617 581 q 601 703 617 654 q 559 780 586 751 q 495 821 532 808 q 417 833 458 833 q 339 821 375 833 q 276 780 303 808 q 233 703 249 751 q 218 581 218 654 l 218 374 q 233 251 218 300 q 276 173 249 201 q 339 132 303 144 q 417 119 375 119 m 601 817 l 601 907 q 684 972 660 922 q 708 1104 708 1021 l 853 1104 q 822 971 853 1032 q 735 869 792 910 q 601 817 679 829 m 368 1049 l 206 1232 l 206 1236 l 358 1236 l 496 1049 l 368 1049 z "},"Ở":{"ha":833,"x_min":43,"x_max":853,"o":"m 406 -14 q 262 9 328 -14 q 147 82 196 32 q 70 212 97 132 q 43 406 43 292 l 43 546 q 71 740 43 660 q 148 871 99 821 q 263 944 197 921 q 404 967 328 967 l 429 967 q 573 943 507 967 q 688 869 639 919 q 763 740 736 819 q 790 546 790 660 l 790 406 q 763 213 790 293 q 688 83 736 133 q 574 10 639 33 q 431 -14 508 -14 l 406 -14 m 417 119 q 495 132 458 119 q 559 173 532 144 q 601 251 586 201 q 617 374 617 300 l 617 581 q 601 703 617 654 q 559 780 586 751 q 495 821 532 808 q 417 833 458 833 q 339 821 375 833 q 276 780 303 808 q 233 703 249 751 q 218 581 218 654 l 218 374 q 233 251 218 300 q 276 173 249 201 q 339 132 303 144 q 417 119 375 119 m 601 817 l 601 907 q 684 972 660 922 q 708 1104 708 1021 l 853 1104 q 822 971 853 1032 q 735 869 792 910 q 601 817 679 829 m 382 1050 l 382 1128 q 474 1189 474 1136 q 454 1226 474 1214 q 401 1239 435 1239 q 360 1235 383 1239 q 311 1222 336 1231 l 311 1324 q 362 1335 338 1332 q 410 1339 386 1339 q 527 1303 481 1339 q 574 1201 574 1267 q 547 1125 574 1158 q 477 1072 521 1092 q 382 1050 433 1053 z "},"Ỡ":{"ha":833,"x_min":43,"x_max":853,"o":"m 406 -14 q 262 9 328 -14 q 147 82 196 32 q 70 212 97 132 q 43 406 43 292 l 43 546 q 71 740 43 660 q 148 871 99 821 q 263 944 197 921 q 404 967 328 967 l 429 967 q 573 943 507 967 q 688 869 639 919 q 763 740 736 819 q 790 546 790 660 l 790 406 q 763 213 790 293 q 688 83 736 133 q 574 10 639 33 q 431 -14 508 -14 l 406 -14 m 417 119 q 495 132 458 119 q 559 173 532 144 q 601 251 586 201 q 617 374 617 300 l 617 581 q 601 703 617 654 q 559 780 586 751 q 495 821 532 808 q 417 833 458 833 q 339 821 375 833 q 276 780 303 808 q 233 703 249 751 q 218 581 218 654 l 218 374 q 233 251 218 300 q 276 173 249 201 q 339 132 303 144 q 417 119 375 119 m 601 817 l 601 907 q 684 972 660 922 q 708 1104 708 1021 l 853 1104 q 822 971 853 1032 q 735 869 792 910 q 601 817 679 829 m 188 1057 q 203 1138 189 1099 q 247 1202 218 1176 q 321 1228 276 1228 q 401 1213 368 1228 q 459 1183 433 1199 q 511 1168 485 1168 q 553 1184 539 1168 q 574 1228 568 1200 l 644 1228 q 628 1149 643 1189 q 585 1083 614 1110 q 513 1057 557 1057 q 432 1072 465 1057 q 372 1103 399 1088 q 317 1118 344 1118 q 280 1103 293 1118 q 260 1057 267 1089 l 188 1057 z "},"Ő":{"ha":833,"x_min":43,"x_max":790,"o":"m 406 -14 q 262 9 328 -14 q 147 82 196 32 q 70 212 97 132 q 43 406 43 292 l 43 546 q 71 740 43 660 q 148 871 99 821 q 263 944 197 921 q 404 967 328 967 l 429 967 q 573 943 507 967 q 688 869 639 919 q 763 740 736 819 q 790 546 790 660 l 790 406 q 763 213 790 293 q 688 83 736 133 q 574 10 639 33 q 431 -14 508 -14 l 406 -14 m 417 119 q 495 132 458 119 q 559 173 532 144 q 601 251 586 201 q 617 374 617 300 l 617 581 q 601 703 617 654 q 559 780 586 751 q 495 821 532 808 q 417 833 458 833 q 339 821 375 833 q 276 780 303 808 q 233 703 249 751 q 218 581 218 654 l 218 374 q 233 251 218 300 q 276 173 249 201 q 339 132 303 144 q 417 119 375 119 m 449 1049 l 588 1236 l 731 1236 l 732 1232 l 568 1049 l 449 1049 m 225 1049 l 364 1236 l 506 1236 l 508 1232 l 343 1049 l 225 1049 z "},"Ȏ":{"ha":833,"x_min":43,"x_max":790,"o":"m 406 -14 q 262 9 328 -14 q 147 82 196 32 q 70 212 97 132 q 43 406 43 292 l 43 546 q 71 740 43 660 q 148 871 99 821 q 263 944 197 921 q 404 967 328 967 l 429 967 q 573 943 507 967 q 688 869 639 919 q 763 740 736 819 q 790 546 790 660 l 790 406 q 763 213 790 293 q 688 83 736 133 q 574 10 639 33 q 431 -14 508 -14 l 406 -14 m 417 119 q 495 132 458 119 q 559 173 532 144 q 601 251 586 201 q 617 374 617 300 l 617 581 q 601 703 617 654 q 559 780 586 751 q 495 821 532 808 q 417 833 458 833 q 339 821 375 833 q 276 780 303 808 q 233 703 249 751 q 218 581 218 654 l 218 374 q 233 251 218 300 q 276 173 249 201 q 339 132 303 144 q 417 119 375 119 m 153 1044 q 224 1189 153 1136 q 419 1242 296 1242 q 613 1189 543 1242 q 683 1044 683 1136 l 581 1044 q 537 1123 578 1096 q 418 1150 496 1150 q 299 1123 340 1150 q 256 1044 258 1096 l 153 1044 z "},"Ō":{"ha":833,"x_min":43,"x_max":790,"o":"m 406 -14 q 262 9 328 -14 q 147 82 196 32 q 70 212 97 132 q 43 406 43 292 l 43 546 q 71 740 43 660 q 148 871 99 821 q 263 944 197 921 q 404 967 328 967 l 429 967 q 573 943 507 967 q 688 869 639 919 q 763 740 736 819 q 790 546 790 660 l 790 406 q 763 213 790 293 q 688 83 736 133 q 574 10 639 33 q 431 -14 508 -14 l 406 -14 m 417 119 q 495 132 458 119 q 559 173 532 144 q 601 251 586 201 q 617 374 617 300 l 617 581 q 601 703 617 654 q 559 780 586 751 q 495 821 532 808 q 417 833 458 833 q 339 821 375 833 q 276 780 303 808 q 233 703 249 751 q 218 581 218 654 l 218 374 q 233 251 218 300 q 276 173 249 201 q 339 132 303 144 q 417 119 375 119 m 194 1090 l 194 1182 l 638 1182 l 638 1090 l 194 1090 z "},"Ǫ":{"ha":833,"x_min":43,"x_max":790,"o":"m 406 -14 q 262 9 328 -14 q 147 82 196 32 q 70 212 97 132 q 43 406 43 292 l 43 546 q 71 740 43 660 q 148 871 99 821 q 263 944 197 921 q 404 967 328 967 l 429 967 q 573 943 507 967 q 688 869 639 919 q 763 740 736 819 q 790 546 790 660 l 790 406 q 763 213 790 293 q 688 83 736 133 q 574 10 639 33 q 431 -14 508 -14 l 406 -14 m 417 119 q 495 132 458 119 q 559 173 532 144 q 601 251 586 201 q 617 374 617 300 l 617 581 q 601 703 617 654 q 559 780 586 751 q 495 821 532 808 q 417 833 458 833 q 339 821 375 833 q 276 780 303 808 q 233 703 249 751 q 218 581 218 654 l 218 374 q 233 251 218 300 q 276 173 249 201 q 339 132 303 144 q 417 119 375 119 m 497 -200 q 428 -190 458 -200 q 382 -158 399 -179 q 365 -103 365 -136 q 384 -41 365 -68 q 425 0 403 -14 l 543 0 q 497 -37 517 -15 q 478 -83 478 -60 q 495 -121 478 -108 q 539 -133 513 -133 q 587 -127 564 -133 q 632 -114 610 -121 l 650 -165 q 573 -191 614 -182 q 497 -200 532 -200 z "},"Ø":{"ha":833,"x_min":25,"x_max":808,"o":"m 406 -14 q 262 9 328 -14 q 147 82 196 32 q 70 212 97 132 q 43 406 43 292 l 43 546 q 71 740 43 660 q 148 871 99 821 q 263 944 197 921 q 404 967 328 967 l 429 967 q 573 943 507 967 q 688 869 639 919 q 763 740 736 819 q 790 546 790 660 l 790 406 q 763 213 790 293 q 688 83 736 133 q 574 10 639 33 q 431 -14 508 -14 l 406 -14 m 417 119 q 495 132 458 119 q 559 173 532 144 q 601 251 586 201 q 617 374 617 300 l 617 581 q 601 703 617 654 q 559 780 586 751 q 495 821 532 808 q 417 833 458 833 q 339 821 375 833 q 276 780 303 808 q 233 703 249 751 q 218 581 218 654 l 218 374 q 233 251 218 300 q 276 173 249 201 q 339 132 303 144 q 417 119 375 119 m 25 -93 l 707 1044 l 808 1044 l 126 -93 l 25 -93 z "},"Ǿ":{"ha":833,"x_min":25,"x_max":808,"o":"m 406 -14 q 262 9 328 -14 q 147 82 196 32 q 70 212 97 132 q 43 406 43 292 l 43 546 q 71 740 43 660 q 148 871 99 821 q 263 944 197 921 q 404 967 328 967 l 429 967 q 573 943 507 967 q 688 869 639 919 q 763 740 736 819 q 790 546 790 660 l 790 406 q 763 213 790 293 q 688 83 736 133 q 574 10 639 33 q 431 -14 508 -14 l 406 -14 m 417 119 q 495 132 458 119 q 559 173 532 144 q 601 251 586 201 q 617 374 617 300 l 617 581 q 601 703 617 654 q 559 780 586 751 q 495 821 532 808 q 417 833 458 833 q 339 821 375 833 q 276 780 303 808 q 233 703 249 751 q 218 581 218 654 l 218 374 q 233 251 218 300 q 276 173 249 201 q 339 132 303 144 q 417 119 375 119 m 25 -93 l 707 1044 l 808 1044 l 126 -93 l 25 -93 m 353 1049 l 490 1236 l 643 1236 l 643 1232 l 481 1049 l 353 1049 z "},"Õ":{"ha":833,"x_min":43,"x_max":790,"o":"m 406 -14 q 262 9 328 -14 q 147 82 196 32 q 70 212 97 132 q 43 406 43 292 l 43 546 q 71 740 43 660 q 148 871 99 821 q 263 944 197 921 q 404 967 328 967 l 429 967 q 573 943 507 967 q 688 869 639 919 q 763 740 736 819 q 790 546 790 660 l 790 406 q 763 213 790 293 q 688 83 736 133 q 574 10 639 33 q 431 -14 508 -14 l 406 -14 m 417 119 q 495 132 458 119 q 559 173 532 144 q 601 251 586 201 q 617 374 617 300 l 617 581 q 601 703 617 654 q 559 780 586 751 q 495 821 532 808 q 417 833 458 833 q 339 821 375 833 q 276 780 303 808 q 233 703 249 751 q 218 581 218 654 l 218 374 q 233 251 218 300 q 276 173 249 201 q 339 132 303 144 q 417 119 375 119 m 163 1057 q 180 1138 164 1099 q 228 1202 196 1176 q 310 1228 261 1228 q 399 1213 363 1228 q 463 1183 435 1199 q 522 1168 492 1168 q 569 1184 553 1168 q 592 1228 585 1200 l 669 1228 q 652 1149 668 1189 q 605 1083 636 1110 q 524 1057 574 1057 q 433 1072 471 1057 q 367 1103 396 1088 q 306 1118 338 1118 q 265 1103 279 1118 q 242 1057 250 1089 l 163 1057 z "},"Ȭ":{"ha":833,"x_min":43,"x_max":790,"o":"m 406 -14 q 262 9 328 -14 q 147 82 196 32 q 70 212 97 132 q 43 406 43 292 l 43 546 q 71 740 43 660 q 148 871 99 821 q 263 944 197 921 q 404 967 328 967 l 429 967 q 573 943 507 967 q 688 869 639 919 q 763 740 736 819 q 790 546 790 660 l 790 406 q 763 213 790 293 q 688 83 736 133 q 574 10 639 33 q 431 -14 508 -14 l 406 -14 m 417 119 q 495 132 458 119 q 559 173 532 144 q 601 251 586 201 q 617 374 617 300 l 617 581 q 601 703 617 654 q 559 780 586 751 q 495 821 532 808 q 417 833 458 833 q 339 821 375 833 q 276 780 303 808 q 233 703 249 751 q 218 581 218 654 l 218 374 q 233 251 218 300 q 276 173 249 201 q 339 132 303 144 q 417 119 375 119 m 178 1282 l 178 1367 l 653 1367 l 653 1282 l 178 1282 m 136 1067 q 152 1136 136 1101 q 201 1194 168 1171 q 286 1218 235 1218 q 381 1206 339 1218 q 461 1180 422 1193 q 543 1167 500 1167 q 588 1181 571 1167 q 611 1218 604 1194 l 689 1218 q 673 1149 689 1183 q 624 1090 657 1114 q 539 1067 590 1067 q 443 1080 486 1067 q 361 1106 400 1093 q 282 1118 322 1118 q 238 1105 256 1118 q 214 1067 221 1092 l 136 1067 z "},"Œ":{"ha":833,"x_min":43,"x_max":822,"o":"m 353 0 q 230 19 286 0 q 131 82 174 39 q 66 196 89 125 q 43 371 43 267 l 43 582 q 66 756 43 685 q 131 869 89 826 q 229 933 172 913 q 353 953 286 953 l 808 953 l 782 818 l 579 818 l 579 547 l 765 547 l 765 415 l 579 415 l 579 133 l 801 133 l 822 0 l 353 0 m 353 133 l 438 133 l 438 818 l 353 818 q 272 800 308 818 q 214 735 235 782 q 193 603 193 689 l 193 350 q 214 217 193 264 q 272 151 235 169 q 353 133 308 133 z "},"P":{"ha":833,"x_min":94,"x_max":801,"o":"m 94 0 l 94 953 l 526 953 q 665 916 603 953 q 764 817 726 879 q 801 681 801 756 l 801 664 q 764 526 801 589 q 665 425 726 463 q 526 388 603 388 l 263 388 l 263 0 l 94 0 m 263 522 l 483 522 q 558 542 525 522 q 610 594 590 561 q 629 671 629 628 q 610 745 629 711 q 559 799 592 779 q 483 819 526 819 l 263 819 l 263 522 z "},"Þ":{"ha":833,"x_min":99,"x_max":801,"o":"m 99 0 l 99 953 l 268 953 l 268 785 l 515 785 q 662 748 597 785 q 764 649 726 711 q 801 511 801 588 q 765 365 801 429 q 663 263 728 300 q 515 226 599 226 l 268 226 l 268 0 l 99 0 m 268 354 l 481 354 q 560 374 526 354 q 613 427 594 393 q 631 503 631 461 q 612 581 631 547 q 560 633 593 614 q 481 651 526 651 l 268 651 l 268 354 z "},"Q":{"ha":833,"x_min":43,"x_max":813,"o":"m 617 -206 q 493 -183 550 -206 q 398 -116 436 -160 q 347 -8 360 -72 q 225 26 281 0 q 128 102 169 53 q 65 226 88 151 q 43 406 43 301 l 43 546 q 71 740 43 660 q 148 871 99 821 q 263 944 197 921 q 404 967 328 967 l 429 967 q 573 943 507 967 q 688 869 639 919 q 763 740 736 819 q 790 546 790 660 l 790 406 q 766 221 790 299 q 697 93 742 143 q 593 17 653 43 q 463 -12 533 -8 l 501 47 q 544 -60 501 -22 q 663 -99 586 -99 q 740 -88 699 -99 q 813 -60 782 -78 l 813 -158 q 726 -192 779 -178 q 617 -206 674 -206 m 417 119 q 495 132 458 119 q 559 173 532 144 q 601 251 586 201 q 617 374 617 300 l 617 581 q 601 703 617 654 q 559 780 586 751 q 495 821 532 808 q 417 833 458 833 q 339 821 375 833 q 276 780 303 808 q 233 703 249 751 q 218 581 218 654 l 218 374 q 233 251 218 300 q 276 173 249 201 q 339 132 303 144 q 417 119 375 119 z "},"R":{"ha":833,"x_min":94,"x_max":843,"o":"m 750 -8 q 677 6 711 -8 q 623 60 643 21 q 603 171 603 99 q 590 274 603 232 q 555 342 576 317 q 506 381 533 368 q 449 393 478 393 l 263 393 l 263 0 l 94 0 l 94 953 l 518 953 q 658 922 596 953 q 755 835 719 890 q 790 703 790 779 q 744 549 790 614 q 624 469 699 485 l 624 463 q 706 414 674 449 q 756 330 739 379 q 772 225 772 281 q 788 94 772 132 q 843 46 803 57 l 843 7 q 801 -5 825 -1 q 750 -8 776 -8 m 263 525 l 471 525 q 585 569 546 525 q 624 678 624 613 q 586 781 624 743 q 479 819 549 819 l 263 819 l 263 525 z "},"Ŕ":{"ha":833,"x_min":94,"x_max":843,"o":"m 750 -8 q 677 6 711 -8 q 623 60 643 21 q 603 171 603 99 q 590 274 603 232 q 555 342 576 317 q 506 381 533 368 q 449 393 478 393 l 263 393 l 263 0 l 94 0 l 94 953 l 518 953 q 658 922 596 953 q 755 835 719 890 q 790 703 790 779 q 744 549 790 614 q 624 469 699 485 l 624 463 q 706 414 674 449 q 756 330 739 379 q 772 225 772 281 q 788 94 772 132 q 843 46 803 57 l 843 7 q 801 -5 825 -1 q 750 -8 776 -8 m 263 525 l 471 525 q 585 569 546 525 q 624 678 624 613 q 586 781 624 743 q 479 819 549 819 l 263 819 l 263 525 m 353 1049 l 490 1236 l 643 1236 l 643 1232 l 481 1049 l 353 1049 z "},"Ř":{"ha":833,"x_min":94,"x_max":843,"o":"m 750 -8 q 677 6 711 -8 q 623 60 643 21 q 603 171 603 99 q 590 274 603 232 q 555 342 576 317 q 506 381 533 368 q 449 393 478 393 l 263 393 l 263 0 l 94 0 l 94 953 l 518 953 q 658 922 596 953 q 755 835 719 890 q 790 703 790 779 q 744 549 790 614 q 624 469 699 485 l 624 463 q 706 414 674 449 q 756 330 739 379 q 772 225 772 281 q 788 94 772 132 q 843 46 803 57 l 843 7 q 801 -5 825 -1 q 750 -8 776 -8 m 263 525 l 471 525 q 585 569 546 525 q 624 678 624 613 q 586 781 624 743 q 479 819 549 819 l 263 819 l 263 525 m 339 1056 l 179 1229 l 314 1229 l 442 1092 l 393 1092 l 522 1229 l 656 1229 l 496 1056 l 339 1056 z "},"Ŗ":{"ha":833,"x_min":94,"x_max":843,"o":"m 750 -8 q 677 6 711 -8 q 623 60 643 21 q 603 171 603 99 q 590 274 603 232 q 555 342 576 317 q 506 381 533 368 q 449 393 478 393 l 263 393 l 263 0 l 94 0 l 94 953 l 518 953 q 658 922 596 953 q 755 835 719 890 q 790 703 790 779 q 744 549 790 614 q 624 469 699 485 l 624 463 q 706 414 674 449 q 756 330 739 379 q 772 225 772 281 q 788 94 772 132 q 843 46 803 57 l 843 7 q 801 -5 825 -1 q 750 -8 776 -8 m 263 525 l 471 525 q 585 569 546 525 q 624 678 624 613 q 586 781 624 743 q 479 819 549 819 l 263 819 l 263 525 m 354 -468 l 354 -451 q 408 -365 390 -411 q 426 -274 426 -319 l 360 -274 l 360 -97 l 511 -97 l 511 -249 q 492 -367 511 -308 q 433 -468 472 -425 l 354 -468 z "},"Ȑ":{"ha":833,"x_min":86,"x_max":843,"o":"m 750 -8 q 677 6 711 -8 q 623 60 643 21 q 603 171 603 99 q 590 274 603 232 q 555 342 576 317 q 506 381 533 368 q 449 393 478 393 l 263 393 l 263 0 l 94 0 l 94 953 l 518 953 q 658 922 596 953 q 755 835 719 890 q 790 703 790 779 q 744 549 790 614 q 624 469 699 485 l 624 463 q 706 414 674 449 q 756 330 739 379 q 772 225 772 281 q 788 94 772 132 q 843 46 803 57 l 843 7 q 801 -5 825 -1 q 750 -8 776 -8 m 263 525 l 471 525 q 585 569 546 525 q 624 678 624 613 q 586 781 624 743 q 479 819 549 819 l 263 819 l 263 525 m 486 1042 l 322 1239 l 325 1243 l 467 1243 l 597 1042 l 486 1042 m 250 1042 l 86 1239 l 88 1243 l 231 1243 l 361 1042 l 250 1042 z "},"Ȓ":{"ha":833,"x_min":94,"x_max":843,"o":"m 750 -8 q 677 6 711 -8 q 623 60 643 21 q 603 171 603 99 q 590 274 603 232 q 555 342 576 317 q 506 381 533 368 q 449 393 478 393 l 263 393 l 263 0 l 94 0 l 94 953 l 518 953 q 658 922 596 953 q 755 835 719 890 q 790 703 790 779 q 744 549 790 614 q 624 469 699 485 l 624 463 q 706 414 674 449 q 756 330 739 379 q 772 225 772 281 q 788 94 772 132 q 843 46 803 57 l 843 7 q 801 -5 825 -1 q 750 -8 776 -8 m 263 525 l 471 525 q 585 569 546 525 q 624 678 624 613 q 586 781 624 743 q 479 819 549 819 l 263 819 l 263 525 m 153 1044 q 224 1189 153 1136 q 419 1242 296 1242 q 613 1189 543 1242 q 683 1044 683 1136 l 581 1044 q 537 1123 578 1096 q 418 1150 496 1150 q 299 1123 340 1150 q 256 1044 258 1096 l 153 1044 z "},"S":{"ha":833,"x_min":46,"x_max":788,"o":"m 415 -14 q 275 2 342 -14 q 157 52 208 18 q 76 141 106 86 q 46 274 46 196 q 46 288 46 281 q 47 303 46 296 l 207 303 q 206 289 206 296 q 206 275 206 282 q 231 190 206 224 q 302 139 256 156 q 413 122 349 122 q 521 136 476 122 q 590 181 565 150 q 614 263 614 213 q 584 338 614 310 q 506 384 554 367 q 399 416 457 401 q 283 449 342 431 q 176 497 225 467 q 98 576 128 526 q 68 703 68 626 q 117 851 68 793 q 245 938 165 910 q 421 967 325 967 q 593 939 515 967 q 717 852 671 911 q 764 699 764 793 l 764 681 l 607 681 l 607 700 q 584 774 607 743 q 519 820 561 804 q 421 836 478 836 q 327 824 368 836 q 263 785 286 811 q 240 715 240 758 q 269 642 240 669 q 347 599 299 615 q 454 569 396 583 q 571 538 513 556 q 678 491 629 521 q 757 412 726 461 q 788 286 788 363 q 739 112 788 178 q 606 16 690 46 q 415 -14 522 -14 z "},"Ś":{"ha":833,"x_min":46,"x_max":788,"o":"m 415 -14 q 275 2 342 -14 q 157 52 208 18 q 76 141 106 86 q 46 274 46 196 q 46 288 46 281 q 47 303 46 296 l 207 303 q 206 289 206 296 q 206 275 206 282 q 231 190 206 224 q 302 139 256 156 q 413 122 349 122 q 521 136 476 122 q 590 181 565 150 q 614 263 614 213 q 584 338 614 310 q 506 384 554 367 q 399 416 457 401 q 283 449 342 431 q 176 497 225 467 q 98 576 128 526 q 68 703 68 626 q 117 851 68 793 q 245 938 165 910 q 421 967 325 967 q 593 939 515 967 q 717 852 671 911 q 764 699 764 793 l 764 681 l 607 681 l 607 700 q 584 774 607 743 q 519 820 561 804 q 421 836 478 836 q 327 824 368 836 q 263 785 286 811 q 240 715 240 758 q 269 642 240 669 q 347 599 299 615 q 454 569 396 583 q 571 538 513 556 q 678 491 629 521 q 757 412 726 461 q 788 286 788 363 q 739 112 788 178 q 606 16 690 46 q 415 -14 522 -14 m 353 1049 l 490 1236 l 643 1236 l 643 1232 l 481 1049 l 353 1049 z "},"Š":{"ha":833,"x_min":46,"x_max":788,"o":"m 415 -14 q 275 2 342 -14 q 157 52 208 18 q 76 141 106 86 q 46 274 46 196 q 46 288 46 281 q 47 303 46 296 l 207 303 q 206 289 206 296 q 206 275 206 282 q 231 190 206 224 q 302 139 256 156 q 413 122 349 122 q 521 136 476 122 q 590 181 565 150 q 614 263 614 213 q 584 338 614 310 q 506 384 554 367 q 399 416 457 401 q 283 449 342 431 q 176 497 225 467 q 98 576 128 526 q 68 703 68 626 q 117 851 68 793 q 245 938 165 910 q 421 967 325 967 q 593 939 515 967 q 717 852 671 911 q 764 699 764 793 l 764 681 l 607 681 l 607 700 q 584 774 607 743 q 519 820 561 804 q 421 836 478 836 q 327 824 368 836 q 263 785 286 811 q 240 715 240 758 q 269 642 240 669 q 347 599 299 615 q 454 569 396 583 q 571 538 513 556 q 678 491 629 521 q 757 412 726 461 q 788 286 788 363 q 739 112 788 178 q 606 16 690 46 q 415 -14 522 -14 m 339 1056 l 179 1229 l 314 1229 l 442 1092 l 393 1092 l 522 1229 l 656 1229 l 496 1056 l 339 1056 z "},"Ş":{"ha":833,"x_min":46,"x_max":788,"o":"m 415 -14 q 275 2 342 -14 q 157 52 208 18 q 76 141 106 86 q 46 274 46 196 q 46 288 46 281 q 47 303 46 296 l 207 303 q 206 289 206 296 q 206 275 206 282 q 231 190 206 224 q 302 139 256 156 q 413 122 349 122 q 521 136 476 122 q 590 181 565 150 q 614 263 614 213 q 584 338 614 310 q 506 384 554 367 q 399 416 457 401 q 283 449 342 431 q 176 497 225 467 q 98 576 128 526 q 68 703 68 626 q 117 851 68 793 q 245 938 165 910 q 421 967 325 967 q 593 939 515 967 q 717 852 671 911 q 764 699 764 793 l 764 681 l 607 681 l 607 700 q 584 774 607 743 q 519 820 561 804 q 421 836 478 836 q 327 824 368 836 q 263 785 286 811 q 240 715 240 758 q 269 642 240 669 q 347 599 299 615 q 454 569 396 583 q 571 538 513 556 q 678 491 629 521 q 757 412 726 461 q 788 286 788 363 q 739 112 788 178 q 606 16 690 46 q 415 -14 522 -14 m 404 -290 q 331 -283 368 -290 q 265 -258 293 -275 l 285 -190 q 312 -203 294 -197 q 351 -211 329 -208 q 392 -214 372 -214 q 449 -202 424 -214 q 475 -156 475 -190 q 458 -115 475 -128 q 413 -103 440 -103 l 378 -103 l 378 -40 l 411 -40 q 486 -51 450 -40 q 545 -88 522 -61 q 568 -165 568 -115 q 540 -242 568 -215 q 474 -280 513 -269 q 404 -290 436 -290 z "},"Ŝ":{"ha":833,"x_min":46,"x_max":788,"o":"m 415 -14 q 275 2 342 -14 q 157 52 208 18 q 76 141 106 86 q 46 274 46 196 q 46 288 46 281 q 47 303 46 296 l 207 303 q 206 289 206 296 q 206 275 206 282 q 231 190 206 224 q 302 139 256 156 q 413 122 349 122 q 521 136 476 122 q 590 181 565 150 q 614 263 614 213 q 584 338 614 310 q 506 384 554 367 q 399 416 457 401 q 283 449 342 431 q 176 497 225 467 q 98 576 128 526 q 68 703 68 626 q 117 851 68 793 q 245 938 165 910 q 421 967 325 967 q 593 939 515 967 q 717 852 671 911 q 764 699 764 793 l 764 681 l 607 681 l 607 700 q 584 774 607 743 q 519 820 561 804 q 421 836 478 836 q 327 824 368 836 q 263 785 286 811 q 240 715 240 758 q 269 642 240 669 q 347 599 299 615 q 454 569 396 583 q 571 538 513 556 q 678 491 629 521 q 757 412 726 461 q 788 286 788 363 q 739 112 788 178 q 606 16 690 46 q 415 -14 522 -14 m 175 1056 l 338 1229 l 494 1229 l 654 1056 l 519 1056 l 392 1193 l 440 1193 l 308 1056 l 175 1056 z "},"Ș":{"ha":833,"x_min":46,"x_max":788,"o":"m 415 -14 q 275 2 342 -14 q 157 52 208 18 q 76 141 106 86 q 46 274 46 196 q 46 288 46 281 q 47 303 46 296 l 207 303 q 206 289 206 296 q 206 275 206 282 q 231 190 206 224 q 302 139 256 156 q 413 122 349 122 q 521 136 476 122 q 590 181 565 150 q 614 263 614 213 q 584 338 614 310 q 506 384 554 367 q 399 416 457 401 q 283 449 342 431 q 176 497 225 467 q 98 576 128 526 q 68 703 68 626 q 117 851 68 793 q 245 938 165 910 q 421 967 325 967 q 593 939 515 967 q 717 852 671 911 q 764 699 764 793 l 764 681 l 607 681 l 607 700 q 584 774 607 743 q 519 820 561 804 q 421 836 478 836 q 327 824 368 836 q 263 785 286 811 q 240 715 240 758 q 269 642 240 669 q 347 599 299 615 q 454 569 396 583 q 571 538 513 556 q 678 491 629 521 q 757 412 726 461 q 788 286 788 363 q 739 112 788 178 q 606 16 690 46 q 415 -14 522 -14 m 333 -468 l 333 -451 q 388 -365 369 -411 q 406 -274 406 -319 l 339 -274 l 339 -97 l 490 -97 l 490 -249 q 471 -367 490 -308 q 413 -468 451 -425 l 333 -468 z "},"Ṣ":{"ha":833,"x_min":46,"x_max":788,"o":"m 415 -14 q 275 2 342 -14 q 157 52 208 18 q 76 141 106 86 q 46 274 46 196 q 46 288 46 281 q 47 303 46 296 l 207 303 q 206 289 206 296 q 206 275 206 282 q 231 190 206 224 q 302 139 256 156 q 413 122 349 122 q 521 136 476 122 q 590 181 565 150 q 614 263 614 213 q 584 338 614 310 q 506 384 554 367 q 399 416 457 401 q 283 449 342 431 q 176 497 225 467 q 98 576 128 526 q 68 703 68 626 q 117 851 68 793 q 245 938 165 910 q 421 967 325 967 q 593 939 515 967 q 717 852 671 911 q 764 699 764 793 l 764 681 l 607 681 l 607 700 q 584 774 607 743 q 519 820 561 804 q 421 836 478 836 q 327 824 368 836 q 263 785 286 811 q 240 715 240 758 q 269 642 240 669 q 347 599 299 615 q 454 569 396 583 q 571 538 513 556 q 678 491 629 521 q 757 412 726 461 q 788 286 788 363 q 739 112 788 178 q 606 16 690 46 q 415 -14 522 -14 m 329 -256 l 329 -110 l 510 -110 l 510 -256 l 329 -256 z "},"ẞ":{"ha":833,"x_min":81,"x_max":782,"o":"m 493 0 l 364 0 l 364 128 l 475 128 q 595 166 560 128 q 631 279 631 204 q 609 364 631 331 q 553 414 588 397 q 481 431 519 431 l 388 431 l 388 543 l 472 543 q 537 559 506 543 q 589 608 568 575 q 610 690 610 642 q 564 801 610 765 q 444 838 518 838 q 298 777 343 838 q 253 590 253 717 l 253 0 l 81 0 l 81 563 q 442 967 81 967 q 610 937 538 967 q 724 849 683 907 q 765 707 765 790 q 726 576 765 626 q 632 497 688 526 l 632 492 q 739 415 696 469 q 782 269 782 360 q 493 0 782 0 z "},"T":{"ha":833,"x_min":46,"x_max":788,"o":"m 332 0 l 332 814 l 46 814 l 46 953 l 788 953 l 788 814 l 501 814 l 501 0 l 332 0 z "},"Ŧ":{"ha":833,"x_min":46,"x_max":788,"o":"m 332 0 l 332 814 l 46 814 l 46 953 l 788 953 l 788 814 l 501 814 l 501 0 l 332 0 m 146 410 l 146 524 l 688 524 l 688 410 l 146 410 z "},"Ť":{"ha":833,"x_min":46,"x_max":788,"o":"m 332 0 l 332 814 l 46 814 l 46 953 l 788 953 l 788 814 l 501 814 l 501 0 l 332 0 m 339 1056 l 179 1229 l 314 1229 l 442 1092 l 393 1092 l 522 1229 l 656 1229 l 496 1056 l 339 1056 z "},"Ţ":{"ha":833,"x_min":46,"x_max":788,"o":"m 332 0 l 332 814 l 46 814 l 46 953 l 788 953 l 788 814 l 501 814 l 501 0 l 332 0 m 404 -290 q 331 -283 368 -290 q 265 -258 293 -275 l 285 -190 q 312 -203 294 -197 q 351 -211 329 -208 q 392 -214 372 -214 q 449 -202 424 -214 q 475 -156 475 -190 q 458 -115 475 -128 q 413 -103 440 -103 l 378 -103 l 378 -40 l 411 -40 q 486 -51 450 -40 q 545 -88 522 -61 q 568 -165 568 -115 q 540 -242 568 -215 q 474 -280 513 -269 q 404 -290 436 -290 z "},"Ț":{"ha":833,"x_min":46,"x_max":788,"o":"m 332 0 l 332 814 l 46 814 l 46 953 l 788 953 l 788 814 l 501 814 l 501 0 l 332 0 m 333 -468 l 333 -451 q 388 -365 369 -411 q 406 -274 406 -319 l 339 -274 l 339 -97 l 490 -97 l 490 -249 q 471 -367 490 -308 q 413 -468 451 -425 l 333 -468 z "},"Ṭ":{"ha":833,"x_min":46,"x_max":788,"o":"m 332 0 l 332 814 l 46 814 l 46 953 l 788 953 l 788 814 l 501 814 l 501 0 l 332 0 m 329 -256 l 329 -110 l 510 -110 l 510 -256 l 329 -256 z "},"U":{"ha":833,"x_min":81,"x_max":753,"o":"m 401 -14 q 165 70 250 -14 q 81 304 81 154 l 81 953 l 246 953 l 246 304 q 291 168 246 217 q 417 119 336 119 q 543 168 499 119 q 588 304 588 217 l 588 953 l 753 953 l 753 304 q 668 70 753 154 q 432 -14 583 -14 l 401 -14 z "},"Ú":{"ha":833,"x_min":81,"x_max":753,"o":"m 401 -14 q 165 70 250 -14 q 81 304 81 154 l 81 953 l 246 953 l 246 304 q 291 168 246 217 q 417 119 336 119 q 543 168 499 119 q 588 304 588 217 l 588 953 l 753 953 l 753 304 q 668 70 753 154 q 432 -14 583 -14 l 401 -14 m 353 1049 l 490 1236 l 643 1236 l 643 1232 l 481 1049 l 353 1049 z "},"Ʉ":{"ha":833,"x_min":6,"x_max":832,"o":"m 6 608 l 832 608 l 832 471 l 6 471 l 6 608 m 401 -14 q 165 70 250 -14 q 81 304 81 154 l 81 953 l 246 953 l 246 304 q 291 168 246 217 q 417 119 336 119 q 543 168 499 119 q 588 304 588 217 l 588 953 l 753 953 l 753 304 q 668 70 753 154 q 432 -14 583 -14 l 401 -14 z "},"Ŭ":{"ha":833,"x_min":81,"x_max":753,"o":"m 401 -14 q 165 70 250 -14 q 81 304 81 154 l 81 953 l 246 953 l 246 304 q 291 168 246 217 q 417 119 336 119 q 543 168 499 119 q 588 304 588 217 l 588 953 l 753 953 l 753 304 q 668 70 753 154 q 432 -14 583 -14 l 401 -14 m 410 1056 q 251 1106 304 1056 q 192 1231 197 1157 l 294 1231 q 335 1166 306 1186 q 414 1146 364 1146 q 499 1166 468 1146 q 542 1231 529 1186 l 643 1231 q 577 1106 638 1157 q 410 1056 517 1056 z "},"Ǔ":{"ha":833,"x_min":81,"x_max":753,"o":"m 401 -14 q 165 70 250 -14 q 81 304 81 154 l 81 953 l 246 953 l 246 304 q 291 168 246 217 q 417 119 336 119 q 543 168 499 119 q 588 304 588 217 l 588 953 l 753 953 l 753 304 q 668 70 753 154 q 432 -14 583 -14 l 401 -14 m 339 1056 l 179 1229 l 314 1229 l 442 1092 l 393 1092 l 522 1229 l 656 1229 l 496 1056 l 339 1056 z "},"Û":{"ha":833,"x_min":81,"x_max":753,"o":"m 401 -14 q 165 70 250 -14 q 81 304 81 154 l 81 953 l 246 953 l 246 304 q 291 168 246 217 q 417 119 336 119 q 543 168 499 119 q 588 304 588 217 l 588 953 l 753 953 l 753 304 q 668 70 753 154 q 432 -14 583 -14 l 401 -14 m 175 1056 l 338 1229 l 494 1229 l 654 1056 l 519 1056 l 392 1193 l 440 1193 l 308 1056 l 175 1056 z "},"Ȕ":{"ha":833,"x_min":81,"x_max":753,"o":"m 401 -14 q 165 70 250 -14 q 81 304 81 154 l 81 953 l 246 953 l 246 304 q 291 168 246 217 q 417 119 336 119 q 543 168 499 119 q 588 304 588 217 l 588 953 l 753 953 l 753 304 q 668 70 753 154 q 432 -14 583 -14 l 401 -14 m 486 1042 l 322 1239 l 325 1243 l 467 1243 l 597 1042 l 486 1042 m 250 1042 l 86 1239 l 88 1243 l 231 1243 l 361 1042 l 250 1042 z "},"Ü":{"ha":833,"x_min":81,"x_max":753,"o":"m 401 -14 q 165 70 250 -14 q 81 304 81 154 l 81 953 l 246 953 l 246 304 q 291 168 246 217 q 417 119 336 119 q 543 168 499 119 q 588 304 588 217 l 588 953 l 753 953 l 753 304 q 668 70 753 154 q 432 -14 583 -14 l 401 -14 m 188 1068 l 188 1211 l 332 1211 l 332 1068 l 188 1068 m 501 1068 l 501 1211 l 644 1211 l 644 1068 l 501 1068 z "},"Ǘ":{"ha":833,"x_min":81,"x_max":753,"o":"m 401 -14 q 165 70 250 -14 q 81 304 81 154 l 81 953 l 246 953 l 246 304 q 291 168 246 217 q 417 119 336 119 q 543 168 499 119 q 588 304 588 217 l 588 953 l 753 953 l 753 304 q 668 70 753 154 q 432 -14 583 -14 l 401 -14 m 360 1293 l 490 1467 l 647 1467 l 649 1463 l 485 1293 l 360 1293 m 161 1068 l 161 1228 l 339 1228 l 339 1068 l 161 1068 m 497 1068 l 497 1228 l 675 1228 l 675 1068 l 497 1068 z "},"Ǚ":{"ha":833,"x_min":81,"x_max":753,"o":"m 401 -14 q 165 70 250 -14 q 81 304 81 154 l 81 953 l 246 953 l 246 304 q 291 168 246 217 q 417 119 336 119 q 543 168 499 119 q 588 304 588 217 l 588 953 l 753 953 l 753 304 q 668 70 753 154 q 432 -14 583 -14 l 401 -14 m 333 1268 l 167 1442 l 304 1442 l 418 1346 l 532 1442 l 669 1442 l 503 1268 l 333 1268 m 161 1068 l 161 1228 l 339 1228 l 339 1068 l 161 1068 m 497 1068 l 497 1228 l 675 1228 l 675 1068 l 497 1068 z "},"Ǜ":{"ha":833,"x_min":81,"x_max":753,"o":"m 401 -14 q 165 70 250 -14 q 81 304 81 154 l 81 953 l 246 953 l 246 304 q 291 168 246 217 q 417 119 336 119 q 543 168 499 119 q 588 304 588 217 l 588 953 l 753 953 l 753 304 q 668 70 753 154 q 432 -14 583 -14 l 401 -14 m 481 1293 l 356 1293 l 192 1463 l 193 1467 l 350 1467 l 481 1293 m 679 1068 l 501 1068 l 501 1228 l 679 1228 l 679 1068 m 343 1068 l 165 1068 l 165 1228 l 343 1228 l 343 1068 z "},"Ǖ":{"ha":833,"x_min":81,"x_max":753,"o":"m 401 -14 q 165 70 250 -14 q 81 304 81 154 l 81 953 l 246 953 l 246 304 q 291 168 246 217 q 417 119 336 119 q 543 168 499 119 q 588 304 588 217 l 588 953 l 753 953 l 753 304 q 668 70 753 154 q 432 -14 583 -14 l 401 -14 m 189 1294 l 189 1393 l 647 1393 l 647 1294 l 189 1294 m 647 1069 l 469 1069 l 469 1229 l 647 1229 l 647 1069 m 367 1069 l 189 1069 l 189 1229 l 367 1229 l 367 1069 z "},"Ụ":{"ha":833,"x_min":81,"x_max":753,"o":"m 401 -14 q 165 70 250 -14 q 81 304 81 154 l 81 953 l 246 953 l 246 304 q 291 168 246 217 q 417 119 336 119 q 543 168 499 119 q 588 304 588 217 l 588 953 l 753 953 l 753 304 q 668 70 753 154 q 432 -14 583 -14 l 401 -14 m 329 -256 l 329 -110 l 510 -110 l 510 -256 l 329 -256 z "},"Ù":{"ha":833,"x_min":81,"x_max":753,"o":"m 401 -14 q 165 70 250 -14 q 81 304 81 154 l 81 953 l 246 953 l 246 304 q 291 168 246 217 q 417 119 336 119 q 543 168 499 119 q 588 304 588 217 l 588 953 l 753 953 l 753 304 q 668 70 753 154 q 432 -14 583 -14 l 401 -14 m 368 1049 l 206 1232 l 206 1236 l 358 1236 l 496 1049 l 368 1049 z "},"Ủ":{"ha":833,"x_min":81,"x_max":753,"o":"m 401 -14 q 165 70 250 -14 q 81 304 81 154 l 81 953 l 246 953 l 246 304 q 291 168 246 217 q 417 119 336 119 q 543 168 499 119 q 588 304 588 217 l 588 953 l 753 953 l 753 304 q 668 70 753 154 q 432 -14 583 -14 l 401 -14 m 382 1050 l 382 1128 q 474 1189 474 1136 q 454 1226 474 1214 q 401 1239 435 1239 q 360 1235 383 1239 q 311 1222 336 1231 l 311 1324 q 362 1335 338 1332 q 410 1339 386 1339 q 527 1303 481 1339 q 574 1201 574 1267 q 547 1125 574 1158 q 477 1072 521 1092 q 382 1050 433 1053 z "},"Ư":{"ha":833,"x_min":81,"x_max":892,"o":"m 401 -14 q 165 70 250 -14 q 81 304 81 154 l 81 953 l 246 953 l 246 304 q 291 168 246 217 q 417 119 336 119 q 543 168 499 119 q 588 304 588 217 l 588 953 l 753 953 l 753 304 q 668 70 753 154 q 432 -14 583 -14 l 401 -14 m 640 863 l 640 953 q 723 1017 699 968 q 747 1150 747 1067 l 892 1150 q 861 1017 892 1078 q 774 915 831 956 q 640 863 718 875 z "},"Ứ":{"ha":833,"x_min":81,"x_max":892,"o":"m 401 -14 q 165 70 250 -14 q 81 304 81 154 l 81 953 l 246 953 l 246 304 q 291 168 246 217 q 417 119 336 119 q 543 168 499 119 q 588 304 588 217 l 588 953 l 753 953 l 753 304 q 668 70 753 154 q 432 -14 583 -14 l 401 -14 m 640 863 l 640 953 q 723 1017 699 968 q 747 1150 747 1067 l 892 1150 q 861 1017 892 1078 q 774 915 831 956 q 640 863 718 875 m 353 1049 l 490 1236 l 643 1236 l 643 1232 l 481 1049 l 353 1049 z "},"Ự":{"ha":833,"x_min":81,"x_max":892,"o":"m 401 -14 q 165 70 250 -14 q 81 304 81 154 l 81 953 l 246 953 l 246 304 q 291 168 246 217 q 417 119 336 119 q 543 168 499 119 q 588 304 588 217 l 588 953 l 753 953 l 753 304 q 668 70 753 154 q 432 -14 583 -14 l 401 -14 m 640 863 l 640 953 q 723 1017 699 968 q 747 1150 747 1067 l 892 1150 q 861 1017 892 1078 q 774 915 831 956 q 640 863 718 875 m 329 -256 l 329 -110 l 510 -110 l 510 -256 l 329 -256 z "},"Ừ":{"ha":833,"x_min":81,"x_max":892,"o":"m 401 -14 q 165 70 250 -14 q 81 304 81 154 l 81 953 l 246 953 l 246 304 q 291 168 246 217 q 417 119 336 119 q 543 168 499 119 q 588 304 588 217 l 588 953 l 753 953 l 753 304 q 668 70 753 154 q 432 -14 583 -14 l 401 -14 m 640 863 l 640 953 q 723 1017 699 968 q 747 1150 747 1067 l 892 1150 q 861 1017 892 1078 q 774 915 831 956 q 640 863 718 875 m 368 1049 l 206 1232 l 206 1236 l 358 1236 l 496 1049 l 368 1049 z "},"Ử":{"ha":833,"x_min":81,"x_max":892,"o":"m 401 -14 q 165 70 250 -14 q 81 304 81 154 l 81 953 l 246 953 l 246 304 q 291 168 246 217 q 417 119 336 119 q 543 168 499 119 q 588 304 588 217 l 588 953 l 753 953 l 753 304 q 668 70 753 154 q 432 -14 583 -14 l 401 -14 m 640 863 l 640 953 q 723 1017 699 968 q 747 1150 747 1067 l 892 1150 q 861 1017 892 1078 q 774 915 831 956 q 640 863 718 875 m 382 1050 l 382 1128 q 474 1189 474 1136 q 454 1226 474 1214 q 401 1239 435 1239 q 360 1235 383 1239 q 311 1222 336 1231 l 311 1324 q 362 1335 338 1332 q 410 1339 386 1339 q 527 1303 481 1339 q 574 1201 574 1267 q 547 1125 574 1158 q 477 1072 521 1092 q 382 1050 433 1053 z "},"Ữ":{"ha":833,"x_min":81,"x_max":892,"o":"m 401 -14 q 165 70 250 -14 q 81 304 81 154 l 81 953 l 246 953 l 246 304 q 291 168 246 217 q 417 119 336 119 q 543 168 499 119 q 588 304 588 217 l 588 953 l 753 953 l 753 304 q 668 70 753 154 q 432 -14 583 -14 l 401 -14 m 640 863 l 640 953 q 723 1017 699 968 q 747 1150 747 1067 l 892 1150 q 861 1017 892 1078 q 774 915 831 956 q 640 863 718 875 m 163 1057 q 180 1138 164 1099 q 228 1202 196 1176 q 310 1228 261 1228 q 399 1213 363 1228 q 463 1183 435 1199 q 522 1168 492 1168 q 569 1184 553 1168 q 592 1228 585 1200 l 669 1228 q 652 1149 668 1189 q 605 1083 636 1110 q 524 1057 574 1057 q 433 1072 471 1057 q 367 1103 396 1088 q 306 1118 338 1118 q 265 1103 279 1118 q 242 1057 250 1089 l 163 1057 z "},"Ű":{"ha":833,"x_min":81,"x_max":753,"o":"m 401 -14 q 165 70 250 -14 q 81 304 81 154 l 81 953 l 246 953 l 246 304 q 291 168 246 217 q 417 119 336 119 q 543 168 499 119 q 588 304 588 217 l 588 953 l 753 953 l 753 304 q 668 70 753 154 q 432 -14 583 -14 l 401 -14 m 449 1049 l 588 1236 l 731 1236 l 732 1232 l 568 1049 l 449 1049 m 225 1049 l 364 1236 l 506 1236 l 508 1232 l 343 1049 l 225 1049 z "},"Ȗ":{"ha":833,"x_min":81,"x_max":753,"o":"m 401 -14 q 165 70 250 -14 q 81 304 81 154 l 81 953 l 246 953 l 246 304 q 291 168 246 217 q 417 119 336 119 q 543 168 499 119 q 588 304 588 217 l 588 953 l 753 953 l 753 304 q 668 70 753 154 q 432 -14 583 -14 l 401 -14 m 153 1044 q 224 1189 153 1136 q 419 1242 296 1242 q 613 1189 543 1242 q 683 1044 683 1136 l 581 1044 q 537 1123 578 1096 q 418 1150 496 1150 q 299 1123 340 1150 q 256 1044 258 1096 l 153 1044 z "},"Ū":{"ha":833,"x_min":81,"x_max":753,"o":"m 401 -14 q 165 70 250 -14 q 81 304 81 154 l 81 953 l 246 953 l 246 304 q 291 168 246 217 q 417 119 336 119 q 543 168 499 119 q 588 304 588 217 l 588 953 l 753 953 l 753 304 q 668 70 753 154 q 432 -14 583 -14 l 401 -14 m 194 1090 l 194 1182 l 638 1182 l 638 1090 l 194 1090 z "},"Ų":{"ha":833,"x_min":81,"x_max":753,"o":"m 401 -14 q 165 70 250 -14 q 81 304 81 154 l 81 953 l 246 953 l 246 304 q 291 168 246 217 q 417 119 336 119 q 543 168 499 119 q 588 304 588 217 l 588 953 l 753 953 l 753 304 q 668 70 753 154 q 432 -14 583 -14 l 401 -14 m 496 -200 q 427 -190 457 -200 q 381 -158 397 -179 q 364 -103 364 -136 q 383 -41 364 -68 q 424 0 401 -14 l 542 0 q 496 -37 515 -15 q 476 -83 476 -60 q 494 -121 476 -108 q 538 -133 511 -133 q 585 -127 563 -133 q 631 -114 608 -121 l 649 -165 q 572 -191 613 -182 q 496 -200 531 -200 z "},"Ů":{"ha":833,"x_min":81,"x_max":753,"o":"m 401 -14 q 165 70 250 -14 q 81 304 81 154 l 81 953 l 246 953 l 246 304 q 291 168 246 217 q 417 119 336 119 q 543 168 499 119 q 588 304 588 217 l 588 953 l 753 953 l 753 304 q 668 70 753 154 q 432 -14 583 -14 l 401 -14 m 417 1032 q 310 1072 353 1032 q 268 1171 268 1111 q 310 1272 268 1232 q 417 1311 353 1311 q 524 1272 482 1311 q 565 1171 565 1232 q 524 1072 565 1111 q 417 1032 482 1032 m 417 1101 q 467 1122 447 1101 q 488 1172 488 1142 q 467 1222 488 1203 q 417 1242 447 1242 q 366 1222 386 1242 q 346 1171 346 1203 q 366 1121 346 1140 q 417 1101 386 1101 z "},"Ũ":{"ha":833,"x_min":81,"x_max":753,"o":"m 401 -14 q 165 70 250 -14 q 81 304 81 154 l 81 953 l 246 953 l 246 304 q 291 168 246 217 q 417 119 336 119 q 543 168 499 119 q 588 304 588 217 l 588 953 l 753 953 l 753 304 q 668 70 753 154 q 432 -14 583 -14 l 401 -14 m 163 1057 q 180 1138 164 1099 q 228 1202 196 1176 q 310 1228 261 1228 q 399 1213 363 1228 q 463 1183 435 1199 q 522 1168 492 1168 q 569 1184 553 1168 q 592 1228 585 1200 l 669 1228 q 652 1149 668 1189 q 605 1083 636 1110 q 524 1057 574 1057 q 433 1072 471 1057 q 367 1103 396 1088 q 306 1118 338 1118 q 265 1103 279 1118 q 242 1057 250 1089 l 163 1057 z "},"V":{"ha":833,"x_min":15,"x_max":818,"o":"m 313 0 l 15 953 l 188 953 l 421 157 l 426 157 l 653 953 l 818 953 l 522 0 l 313 0 z "},"W":{"ha":833,"x_min":0,"x_max":833,"o":"m 138 0 l 0 953 l 149 953 l 253 271 l 258 271 l 360 953 l 492 953 l 593 271 l 599 271 l 701 953 l 833 953 l 696 0 l 519 0 l 419 651 l 414 651 l 315 0 l 138 0 z "},"Ẃ":{"ha":833,"x_min":0,"x_max":833,"o":"m 138 0 l 0 953 l 149 953 l 253 271 l 258 271 l 360 953 l 492 953 l 593 271 l 599 271 l 701 953 l 833 953 l 696 0 l 519 0 l 419 651 l 414 651 l 315 0 l 138 0 m 353 1049 l 490 1236 l 643 1236 l 643 1232 l 481 1049 l 353 1049 z "},"Ŵ":{"ha":833,"x_min":0,"x_max":833,"o":"m 138 0 l 0 953 l 149 953 l 253 271 l 258 271 l 360 953 l 492 953 l 593 271 l 599 271 l 701 953 l 833 953 l 696 0 l 519 0 l 419 651 l 414 651 l 315 0 l 138 0 m 175 1056 l 338 1229 l 494 1229 l 654 1056 l 519 1056 l 392 1193 l 440 1193 l 308 1056 l 175 1056 z "},"Ẅ":{"ha":833,"x_min":0,"x_max":833,"o":"m 138 0 l 0 953 l 149 953 l 253 271 l 258 271 l 360 953 l 492 953 l 593 271 l 599 271 l 701 953 l 833 953 l 696 0 l 519 0 l 419 651 l 414 651 l 315 0 l 138 0 m 188 1068 l 188 1211 l 332 1211 l 332 1068 l 188 1068 m 501 1068 l 501 1211 l 644 1211 l 644 1068 l 501 1068 z "},"Ẁ":{"ha":833,"x_min":0,"x_max":833,"o":"m 138 0 l 0 953 l 149 953 l 253 271 l 258 271 l 360 953 l 492 953 l 593 271 l 599 271 l 701 953 l 833 953 l 696 0 l 519 0 l 419 651 l 414 651 l 315 0 l 138 0 m 368 1049 l 206 1232 l 206 1236 l 358 1236 l 496 1049 l 368 1049 z "},"X":{"ha":833,"x_min":11,"x_max":824,"o":"m 11 0 l 308 501 l 42 953 l 233 953 l 429 625 l 432 625 l 621 953 l 793 953 l 526 500 l 824 0 l 631 0 l 406 375 l 401 375 l 190 0 l 11 0 z "},"Y":{"ha":833,"x_min":21,"x_max":813,"o":"m 332 0 l 332 349 l 21 953 l 204 953 l 422 529 l 428 529 l 642 953 l 813 953 l 503 349 l 503 0 l 332 0 z "},"Ý":{"ha":833,"x_min":21,"x_max":813,"o":"m 332 0 l 332 349 l 21 953 l 204 953 l 422 529 l 428 529 l 642 953 l 813 953 l 503 349 l 503 0 l 332 0 m 353 1049 l 490 1236 l 643 1236 l 643 1232 l 481 1049 l 353 1049 z "},"Ŷ":{"ha":833,"x_min":21,"x_max":813,"o":"m 332 0 l 332 349 l 21 953 l 204 953 l 422 529 l 428 529 l 642 953 l 813 953 l 503 349 l 503 0 l 332 0 m 175 1056 l 338 1229 l 494 1229 l 654 1056 l 519 1056 l 392 1193 l 440 1193 l 308 1056 l 175 1056 z "},"Ÿ":{"ha":833,"x_min":21,"x_max":813,"o":"m 332 0 l 332 349 l 21 953 l 204 953 l 422 529 l 428 529 l 642 953 l 813 953 l 503 349 l 503 0 l 332 0 m 188 1068 l 188 1211 l 332 1211 l 332 1068 l 188 1068 m 501 1068 l 501 1211 l 644 1211 l 644 1068 l 501 1068 z "},"Ỵ":{"ha":833,"x_min":21,"x_max":813,"o":"m 332 0 l 332 349 l 21 953 l 204 953 l 422 529 l 428 529 l 642 953 l 813 953 l 503 349 l 503 0 l 332 0 m 329 -256 l 329 -110 l 510 -110 l 510 -256 l 329 -256 z "},"Ỳ":{"ha":833,"x_min":21,"x_max":813,"o":"m 332 0 l 332 349 l 21 953 l 204 953 l 422 529 l 428 529 l 642 953 l 813 953 l 503 349 l 503 0 l 332 0 m 368 1049 l 206 1232 l 206 1236 l 358 1236 l 496 1049 l 368 1049 z "},"Ỷ":{"ha":833,"x_min":21,"x_max":813,"o":"m 332 0 l 332 349 l 21 953 l 204 953 l 422 529 l 428 529 l 642 953 l 813 953 l 503 349 l 503 0 l 332 0 m 382 1050 l 382 1128 q 474 1189 474 1136 q 454 1226 474 1214 q 401 1239 435 1239 q 360 1235 383 1239 q 311 1222 336 1231 l 311 1324 q 362 1335 338 1332 q 410 1339 386 1339 q 527 1303 481 1339 q 574 1201 574 1267 q 547 1125 574 1158 q 477 1072 521 1092 q 382 1050 433 1053 z "},"Ȳ":{"ha":833,"x_min":21,"x_max":813,"o":"m 332 0 l 332 349 l 21 953 l 204 953 l 422 529 l 428 529 l 642 953 l 813 953 l 503 349 l 503 0 l 332 0 m 194 1090 l 194 1182 l 638 1182 l 638 1090 l 194 1090 z "},"Ỹ":{"ha":833,"x_min":21,"x_max":813,"o":"m 332 0 l 332 349 l 21 953 l 204 953 l 422 529 l 428 529 l 642 953 l 813 953 l 503 349 l 503 0 l 332 0 m 163 1057 q 180 1138 164 1099 q 228 1202 196 1176 q 310 1228 261 1228 q 399 1213 363 1228 q 463 1183 435 1199 q 522 1168 492 1168 q 569 1184 553 1168 q 592 1228 585 1200 l 669 1228 q 652 1149 668 1189 q 605 1083 636 1110 q 524 1057 574 1057 q 433 1072 471 1057 q 367 1103 396 1088 q 306 1118 338 1118 q 265 1103 279 1118 q 242 1057 250 1089 l 163 1057 z "},"Z":{"ha":833,"x_min":46,"x_max":786,"o":"m 46 0 l 46 57 l 532 817 l 79 817 l 79 953 l 775 953 l 775 897 l 293 136 l 786 136 l 786 0 l 46 0 z "},"Ź":{"ha":833,"x_min":46,"x_max":786,"o":"m 46 0 l 46 57 l 532 817 l 79 817 l 79 953 l 775 953 l 775 897 l 293 136 l 786 136 l 786 0 l 46 0 m 353 1049 l 490 1236 l 643 1236 l 643 1232 l 481 1049 l 353 1049 z "},"Ž":{"ha":833,"x_min":46,"x_max":786,"o":"m 46 0 l 46 57 l 532 817 l 79 817 l 79 953 l 775 953 l 775 897 l 293 136 l 786 136 l 786 0 l 46 0 m 339 1056 l 179 1229 l 314 1229 l 442 1092 l 393 1092 l 522 1229 l 656 1229 l 496 1056 l 339 1056 z "},"Ż":{"ha":833,"x_min":46,"x_max":786,"o":"m 46 0 l 46 57 l 532 817 l 79 817 l 79 953 l 775 953 l 775 897 l 293 136 l 786 136 l 786 0 l 46 0 m 340 1068 l 340 1213 l 486 1213 l 486 1068 l 340 1068 z "},"ɪ":{"ha":833,"x_min":190,"x_max":643,"o":"m 190 0 l 190 124 l 336 124 l 336 586 l 190 586 l 190 710 l 643 710 l 643 586 l 497 586 l 497 124 l 643 124 l 643 0 l 190 0 z "},"a":{"ha":833,"x_min":86,"x_max":788,"o":"m 315 -14 q 146 38 206 -14 q 86 190 86 89 q 131 325 86 274 q 276 400 176 376 q 538 424 375 424 l 538 497 q 506 587 538 558 q 400 615 474 615 q 297 587 333 615 q 260 507 260 558 l 260 493 l 111 493 q 109 517 110 511 q 108 523 108 524 q 108 520 108 522 q 108 521 108 518 q 190 669 108 614 q 406 724 271 724 q 624 668 550 724 q 699 501 699 613 l 699 139 q 709 107 699 117 q 738 97 719 97 q 788 113 767 97 l 788 13 q 741 -7 769 0 q 682 -14 713 -14 q 610 -3 638 -14 q 569 31 582 7 q 551 96 556 54 q 492 31 528 56 q 412 -3 457 7 q 315 -14 367 -14 m 368 96 q 463 121 425 96 q 519 190 500 146 q 538 286 538 233 l 538 332 q 365 319 429 332 q 274 278 301 307 q 246 200 246 250 q 276 122 246 149 q 368 96 306 96 z "},"á":{"ha":833,"x_min":86,"x_max":788,"o":"m 315 -14 q 146 38 206 -14 q 86 190 86 89 q 131 325 86 274 q 276 400 176 376 q 538 424 375 424 l 538 497 q 506 587 538 558 q 400 615 474 615 q 297 587 333 615 q 260 507 260 558 l 260 493 l 111 493 q 109 517 110 511 q 108 523 108 524 q 108 520 108 522 q 108 521 108 518 q 190 669 108 614 q 406 724 271 724 q 624 668 550 724 q 699 501 699 613 l 699 139 q 709 107 699 117 q 738 97 719 97 q 788 113 767 97 l 788 13 q 741 -7 769 0 q 682 -14 713 -14 q 610 -3 638 -14 q 569 31 582 7 q 551 96 556 54 q 492 31 528 56 q 412 -3 457 7 q 315 -14 367 -14 m 368 96 q 463 121 425 96 q 519 190 500 146 q 538 286 538 233 l 538 332 q 365 319 429 332 q 274 278 301 307 q 246 200 246 250 q 276 122 246 149 q 368 96 306 96 m 321 817 l 431 1054 l 574 1054 l 575 1050 l 431 817 l 321 817 z "},"ă":{"ha":833,"x_min":86,"x_max":788,"o":"m 315 -14 q 146 38 206 -14 q 86 190 86 89 q 131 325 86 274 q 276 400 176 376 q 538 424 375 424 l 538 497 q 506 587 538 558 q 400 615 474 615 q 297 587 333 615 q 260 507 260 558 l 260 493 l 111 493 q 109 517 110 511 q 108 523 108 524 q 108 520 108 522 q 108 521 108 518 q 190 669 108 614 q 406 724 271 724 q 624 668 550 724 q 699 501 699 613 l 699 139 q 709 107 699 117 q 738 97 719 97 q 788 113 767 97 l 788 13 q 741 -7 769 0 q 682 -14 713 -14 q 610 -3 638 -14 q 569 31 582 7 q 551 96 556 54 q 492 31 528 56 q 412 -3 457 7 q 315 -14 367 -14 m 368 96 q 463 121 425 96 q 519 190 500 146 q 538 286 538 233 l 538 332 q 365 319 429 332 q 274 278 301 307 q 246 200 246 250 q 276 122 246 149 q 368 96 306 96 m 393 817 q 267 844 318 817 q 191 917 217 871 q 161 1019 165 963 l 264 1019 q 308 933 275 960 q 397 907 342 907 q 492 933 458 907 q 539 1019 525 960 l 640 1019 q 607 917 638 963 q 523 844 576 871 q 393 817 469 817 z "},"ắ":{"ha":833,"x_min":86,"x_max":788,"o":"m 315 -14 q 146 38 206 -14 q 86 190 86 89 q 131 325 86 274 q 276 400 176 376 q 538 424 375 424 l 538 497 q 506 587 538 558 q 400 615 474 615 q 297 587 333 615 q 260 507 260 558 l 260 493 l 111 493 q 109 517 110 511 q 108 523 108 524 q 108 520 108 522 q 108 521 108 518 q 190 669 108 614 q 406 724 271 724 q 624 668 550 724 q 699 501 699 613 l 699 139 q 709 107 699 117 q 738 97 719 97 q 788 113 767 97 l 788 13 q 741 -7 769 0 q 682 -14 713 -14 q 610 -3 638 -14 q 569 31 582 7 q 551 96 556 54 q 492 31 528 56 q 412 -3 457 7 q 315 -14 367 -14 m 368 96 q 463 121 425 96 q 519 190 500 146 q 538 286 538 233 l 538 332 q 365 319 429 332 q 274 278 301 307 q 246 200 246 250 q 276 122 246 149 q 368 96 306 96 m 396 838 q 260 861 315 838 q 178 924 206 885 q 150 1013 150 964 l 253 1013 q 301 948 264 968 q 403 928 339 928 q 505 948 468 928 q 556 1013 542 968 l 657 1013 q 625 924 657 964 q 534 861 593 885 q 396 838 475 838 m 333 1026 l 464 1228 l 607 1228 l 608 1224 l 446 1026 l 333 1026 z "},"ặ":{"ha":833,"x_min":86,"x_max":788,"o":"m 315 -14 q 146 38 206 -14 q 86 190 86 89 q 131 325 86 274 q 276 400 176 376 q 538 424 375 424 l 538 497 q 506 587 538 558 q 400 615 474 615 q 297 587 333 615 q 260 507 260 558 l 260 493 l 111 493 q 109 517 110 511 q 108 523 108 524 q 108 520 108 522 q 108 521 108 518 q 190 669 108 614 q 406 724 271 724 q 624 668 550 724 q 699 501 699 613 l 699 139 q 709 107 699 117 q 738 97 719 97 q 788 113 767 97 l 788 13 q 741 -7 769 0 q 682 -14 713 -14 q 610 -3 638 -14 q 569 31 582 7 q 551 96 556 54 q 492 31 528 56 q 412 -3 457 7 q 315 -14 367 -14 m 368 96 q 463 121 425 96 q 519 190 500 146 q 538 286 538 233 l 538 332 q 365 319 429 332 q 274 278 301 307 q 246 200 246 250 q 276 122 246 149 q 368 96 306 96 m 317 -256 l 317 -110 l 497 -110 l 497 -256 l 317 -256 m 393 817 q 267 844 318 817 q 191 917 217 871 q 161 1019 165 963 l 264 1019 q 308 933 275 960 q 397 907 342 907 q 492 933 458 907 q 539 1019 525 960 l 640 1019 q 607 917 638 963 q 523 844 576 871 q 393 817 469 817 z "},"ằ":{"ha":833,"x_min":86,"x_max":788,"o":"m 315 -14 q 146 38 206 -14 q 86 190 86 89 q 131 325 86 274 q 276 400 176 376 q 538 424 375 424 l 538 497 q 506 587 538 558 q 400 615 474 615 q 297 587 333 615 q 260 507 260 558 l 260 493 l 111 493 q 109 517 110 511 q 108 523 108 524 q 108 520 108 522 q 108 521 108 518 q 190 669 108 614 q 406 724 271 724 q 624 668 550 724 q 699 501 699 613 l 699 139 q 709 107 699 117 q 738 97 719 97 q 788 113 767 97 l 788 13 q 741 -7 769 0 q 682 -14 713 -14 q 610 -3 638 -14 q 569 31 582 7 q 551 96 556 54 q 492 31 528 56 q 412 -3 457 7 q 315 -14 367 -14 m 368 96 q 463 121 425 96 q 519 190 500 146 q 538 286 538 233 l 538 332 q 365 319 429 332 q 274 278 301 307 q 246 200 246 250 q 276 122 246 149 q 368 96 306 96 m 403 851 q 267 875 324 851 q 181 938 211 899 q 150 1026 150 978 l 251 1026 q 303 962 265 982 q 404 942 340 942 q 506 962 469 942 q 554 1026 543 982 l 657 1026 q 627 938 657 978 q 541 875 597 899 q 403 851 485 851 m 361 1040 l 199 1238 l 200 1242 l 343 1242 l 474 1040 l 361 1040 z "},"ẳ":{"ha":833,"x_min":86,"x_max":788,"o":"m 315 -14 q 146 38 206 -14 q 86 190 86 89 q 131 325 86 274 q 276 400 176 376 q 538 424 375 424 l 538 497 q 506 587 538 558 q 400 615 474 615 q 297 587 333 615 q 260 507 260 558 l 260 493 l 111 493 q 109 517 110 511 q 108 523 108 524 q 108 520 108 522 q 108 521 108 518 q 190 669 108 614 q 406 724 271 724 q 624 668 550 724 q 699 501 699 613 l 699 139 q 709 107 699 117 q 738 97 719 97 q 788 113 767 97 l 788 13 q 741 -7 769 0 q 682 -14 713 -14 q 610 -3 638 -14 q 569 31 582 7 q 551 96 556 54 q 492 31 528 56 q 412 -3 457 7 q 315 -14 367 -14 m 368 96 q 463 121 425 96 q 519 190 500 146 q 538 286 538 233 l 538 332 q 365 319 429 332 q 274 278 301 307 q 246 200 246 250 q 276 122 246 149 q 368 96 306 96 m 403 851 q 267 875 324 851 q 181 938 211 899 q 150 1026 150 978 l 251 1026 q 303 962 265 982 q 404 942 340 942 q 506 962 469 942 q 554 1026 543 982 l 657 1026 q 627 938 657 978 q 541 875 597 899 q 403 851 485 851 m 372 1040 l 372 1108 q 429 1128 408 1111 q 450 1171 450 1144 q 433 1208 450 1196 q 389 1221 417 1221 q 354 1217 374 1221 q 314 1207 335 1214 l 314 1292 q 356 1301 335 1299 q 396 1304 376 1304 q 493 1273 454 1304 q 532 1183 532 1242 q 509 1112 532 1143 q 450 1062 486 1081 q 372 1040 414 1043 z "},"ẵ":{"ha":833,"x_min":86,"x_max":788,"o":"m 315 -14 q 146 38 206 -14 q 86 190 86 89 q 131 325 86 274 q 276 400 176 376 q 538 424 375 424 l 538 497 q 506 587 538 558 q 400 615 474 615 q 297 587 333 615 q 260 507 260 558 l 260 493 l 111 493 q 109 517 110 511 q 108 523 108 524 q 108 520 108 522 q 108 521 108 518 q 190 669 108 614 q 406 724 271 724 q 624 668 550 724 q 699 501 699 613 l 699 139 q 709 107 699 117 q 738 97 719 97 q 788 113 767 97 l 788 13 q 741 -7 769 0 q 682 -14 713 -14 q 610 -3 638 -14 q 569 31 582 7 q 551 96 556 54 q 492 31 528 56 q 412 -3 457 7 q 315 -14 367 -14 m 368 96 q 463 121 425 96 q 519 190 500 146 q 538 286 538 233 l 538 332 q 365 319 429 332 q 274 278 301 307 q 246 200 246 250 q 276 122 246 149 q 368 96 306 96 m 403 851 q 267 875 324 851 q 181 938 211 899 q 150 1026 150 978 l 251 1026 q 303 962 265 982 q 404 942 340 942 q 506 962 469 942 q 554 1026 543 982 l 657 1026 q 627 938 657 978 q 541 875 597 899 q 403 851 485 851 m 144 1076 q 163 1153 144 1115 q 217 1215 181 1190 q 306 1239 253 1239 q 382 1227 350 1239 q 444 1203 414 1215 q 511 1190 474 1190 q 560 1203 542 1190 q 586 1239 579 1215 l 664 1239 q 646 1164 664 1201 q 592 1101 628 1126 q 503 1076 557 1076 q 429 1088 460 1076 q 369 1113 399 1100 q 297 1126 339 1125 q 249 1113 267 1126 q 224 1076 231 1100 l 144 1076 z "},"ǎ":{"ha":833,"x_min":86,"x_max":788,"o":"m 315 -14 q 146 38 206 -14 q 86 190 86 89 q 131 325 86 274 q 276 400 176 376 q 538 424 375 424 l 538 497 q 506 587 538 558 q 400 615 474 615 q 297 587 333 615 q 260 507 260 558 l 260 493 l 111 493 q 109 517 110 511 q 108 523 108 524 q 108 520 108 522 q 108 521 108 518 q 190 669 108 614 q 406 724 271 724 q 624 668 550 724 q 699 501 699 613 l 699 139 q 709 107 699 117 q 738 97 719 97 q 788 113 767 97 l 788 13 q 741 -7 769 0 q 682 -14 713 -14 q 610 -3 638 -14 q 569 31 582 7 q 551 96 556 54 q 492 31 528 56 q 412 -3 457 7 q 315 -14 367 -14 m 368 96 q 463 121 425 96 q 519 190 500 146 q 538 286 538 233 l 538 332 q 365 319 429 332 q 274 278 301 307 q 246 200 246 250 q 276 122 246 149 q 368 96 306 96 m 642 1053 l 468 817 l 331 817 l 157 1053 l 285 1053 l 443 835 l 356 835 l 514 1053 l 642 1053 z "},"â":{"ha":833,"x_min":86,"x_max":788,"o":"m 315 -14 q 146 38 206 -14 q 86 190 86 89 q 131 325 86 274 q 276 400 176 376 q 538 424 375 424 l 538 497 q 506 587 538 558 q 400 615 474 615 q 297 587 333 615 q 260 507 260 558 l 260 493 l 111 493 q 109 517 110 511 q 108 523 108 524 q 108 520 108 522 q 108 521 108 518 q 190 669 108 614 q 406 724 271 724 q 624 668 550 724 q 699 501 699 613 l 699 139 q 709 107 699 117 q 738 97 719 97 q 788 113 767 97 l 788 13 q 741 -7 769 0 q 682 -14 713 -14 q 610 -3 638 -14 q 569 31 582 7 q 551 96 556 54 q 492 31 528 56 q 412 -3 457 7 q 315 -14 367 -14 m 368 96 q 463 121 425 96 q 519 190 500 146 q 538 286 538 233 l 538 332 q 365 319 429 332 q 274 278 301 307 q 246 200 246 250 q 276 122 246 149 q 368 96 306 96 m 161 817 l 335 1053 l 472 1053 l 646 817 l 518 817 l 353 1035 l 454 1035 l 289 817 l 161 817 z "},"ấ":{"ha":833,"x_min":86,"x_max":788,"o":"m 315 -14 q 146 38 206 -14 q 86 190 86 89 q 131 325 86 274 q 276 400 176 376 q 538 424 375 424 l 538 497 q 506 587 538 558 q 400 615 474 615 q 297 587 333 615 q 260 507 260 558 l 260 493 l 111 493 q 109 517 110 511 q 108 523 108 524 q 108 520 108 522 q 108 521 108 518 q 190 669 108 614 q 406 724 271 724 q 624 668 550 724 q 699 501 699 613 l 699 139 q 709 107 699 117 q 738 97 719 97 q 788 113 767 97 l 788 13 q 741 -7 769 0 q 682 -14 713 -14 q 610 -3 638 -14 q 569 31 582 7 q 551 96 556 54 q 492 31 528 56 q 412 -3 457 7 q 315 -14 367 -14 m 368 96 q 463 121 425 96 q 519 190 500 146 q 538 286 538 233 l 538 332 q 365 319 429 332 q 274 278 301 307 q 246 200 246 250 q 276 122 246 149 q 368 96 306 96 m 153 824 l 342 1025 l 465 1025 l 656 824 l 528 824 l 403 932 l 278 824 l 153 824 m 350 1081 l 479 1282 l 624 1282 l 625 1278 l 461 1081 l 350 1081 z "},"ậ":{"ha":833,"x_min":86,"x_max":788,"o":"m 315 -14 q 146 38 206 -14 q 86 190 86 89 q 131 325 86 274 q 276 400 176 376 q 538 424 375 424 l 538 497 q 506 587 538 558 q 400 615 474 615 q 297 587 333 615 q 260 507 260 558 l 260 493 l 111 493 q 109 517 110 511 q 108 523 108 524 q 108 520 108 522 q 108 521 108 518 q 190 669 108 614 q 406 724 271 724 q 624 668 550 724 q 699 501 699 613 l 699 139 q 709 107 699 117 q 738 97 719 97 q 788 113 767 97 l 788 13 q 741 -7 769 0 q 682 -14 713 -14 q 610 -3 638 -14 q 569 31 582 7 q 551 96 556 54 q 492 31 528 56 q 412 -3 457 7 q 315 -14 367 -14 m 368 96 q 463 121 425 96 q 519 190 500 146 q 538 286 538 233 l 538 332 q 365 319 429 332 q 274 278 301 307 q 246 200 246 250 q 276 122 246 149 q 368 96 306 96 m 317 -256 l 317 -110 l 497 -110 l 497 -256 l 317 -256 m 161 817 l 335 1053 l 472 1053 l 646 817 l 518 817 l 353 1035 l 454 1035 l 289 817 l 161 817 z "},"ầ":{"ha":833,"x_min":86,"x_max":788,"o":"m 315 -14 q 146 38 206 -14 q 86 190 86 89 q 131 325 86 274 q 276 400 176 376 q 538 424 375 424 l 538 497 q 506 587 538 558 q 400 615 474 615 q 297 587 333 615 q 260 507 260 558 l 260 493 l 111 493 q 109 517 110 511 q 108 523 108 524 q 108 520 108 522 q 108 521 108 518 q 190 669 108 614 q 406 724 271 724 q 624 668 550 724 q 699 501 699 613 l 699 139 q 709 107 699 117 q 738 97 719 97 q 788 113 767 97 l 788 13 q 741 -7 769 0 q 682 -14 713 -14 q 610 -3 638 -14 q 569 31 582 7 q 551 96 556 54 q 492 31 528 56 q 412 -3 457 7 q 315 -14 367 -14 m 368 96 q 463 121 425 96 q 519 190 500 146 q 538 286 538 233 l 538 332 q 365 319 429 332 q 274 278 301 307 q 246 200 246 250 q 276 122 246 149 q 368 96 306 96 m 153 824 l 343 1025 l 467 1025 l 656 824 l 531 824 l 406 932 l 281 824 l 153 824 m 347 1081 l 183 1278 l 185 1282 l 329 1282 l 458 1081 l 347 1081 z "},"ẩ":{"ha":833,"x_min":86,"x_max":788,"o":"m 315 -14 q 146 38 206 -14 q 86 190 86 89 q 131 325 86 274 q 276 400 176 376 q 538 424 375 424 l 538 497 q 506 587 538 558 q 400 615 474 615 q 297 587 333 615 q 260 507 260 558 l 260 493 l 111 493 q 109 517 110 511 q 108 523 108 524 q 108 520 108 522 q 108 521 108 518 q 190 669 108 614 q 406 724 271 724 q 624 668 550 724 q 699 501 699 613 l 699 139 q 709 107 699 117 q 738 97 719 97 q 788 113 767 97 l 788 13 q 741 -7 769 0 q 682 -14 713 -14 q 610 -3 638 -14 q 569 31 582 7 q 551 96 556 54 q 492 31 528 56 q 412 -3 457 7 q 315 -14 367 -14 m 368 96 q 463 121 425 96 q 519 190 500 146 q 538 286 538 233 l 538 332 q 365 319 429 332 q 274 278 301 307 q 246 200 246 250 q 276 122 246 149 q 368 96 306 96 m 154 825 l 343 1026 l 467 1026 l 657 825 l 529 825 l 404 933 l 279 825 l 154 825 m 381 1082 l 381 1150 q 437 1171 417 1154 q 457 1214 457 1188 q 440 1251 457 1239 q 396 1264 424 1264 q 361 1260 381 1264 q 321 1250 342 1257 l 321 1335 q 363 1344 342 1342 q 403 1346 383 1346 q 500 1315 461 1346 q 539 1226 539 1285 q 516 1154 539 1186 q 457 1103 493 1122 q 381 1082 421 1085 z "},"ẫ":{"ha":833,"x_min":86,"x_max":788,"o":"m 315 -14 q 146 38 206 -14 q 86 190 86 89 q 131 325 86 274 q 276 400 176 376 q 538 424 375 424 l 538 497 q 506 587 538 558 q 400 615 474 615 q 297 587 333 615 q 260 507 260 558 l 260 493 l 111 493 q 109 517 110 511 q 108 523 108 524 q 108 520 108 522 q 108 521 108 518 q 190 669 108 614 q 406 724 271 724 q 624 668 550 724 q 699 501 699 613 l 699 139 q 709 107 699 117 q 738 97 719 97 q 788 113 767 97 l 788 13 q 741 -7 769 0 q 682 -14 713 -14 q 610 -3 638 -14 q 569 31 582 7 q 551 96 556 54 q 492 31 528 56 q 412 -3 457 7 q 315 -14 367 -14 m 368 96 q 463 121 425 96 q 519 190 500 146 q 538 286 538 233 l 538 332 q 365 319 429 332 q 274 278 301 307 q 246 200 246 250 q 276 122 246 149 q 368 96 306 96 m 153 824 l 342 1025 l 465 1025 l 656 824 l 528 824 l 403 932 l 278 824 l 153 824 m 143 1076 q 161 1153 143 1115 q 215 1215 179 1190 q 304 1239 251 1239 q 381 1227 349 1239 q 442 1203 413 1215 q 510 1190 472 1190 q 559 1203 540 1190 q 585 1239 578 1215 l 663 1239 q 644 1164 663 1201 q 591 1101 626 1126 q 501 1076 556 1076 q 428 1088 458 1076 q 367 1113 397 1100 q 296 1126 338 1125 q 247 1113 265 1126 q 222 1076 229 1100 l 143 1076 z "},"ȁ":{"ha":833,"x_min":78,"x_max":788,"o":"m 315 -14 q 146 38 206 -14 q 86 190 86 89 q 131 325 86 274 q 276 400 176 376 q 538 424 375 424 l 538 497 q 506 587 538 558 q 400 615 474 615 q 297 587 333 615 q 260 507 260 558 l 260 493 l 111 493 q 109 517 110 511 q 108 523 108 524 q 108 520 108 522 q 108 521 108 518 q 190 669 108 614 q 406 724 271 724 q 624 668 550 724 q 699 501 699 613 l 699 139 q 709 107 699 117 q 738 97 719 97 q 788 113 767 97 l 788 13 q 741 -7 769 0 q 682 -14 713 -14 q 610 -3 638 -14 q 569 31 582 7 q 551 96 556 54 q 492 31 528 56 q 412 -3 457 7 q 315 -14 367 -14 m 368 96 q 463 121 425 96 q 519 190 500 146 q 538 286 538 233 l 538 332 q 365 319 429 332 q 274 278 301 307 q 246 200 246 250 q 276 122 246 149 q 368 96 306 96 m 478 824 l 315 1021 l 317 1025 l 460 1025 l 590 824 l 478 824 m 242 824 l 78 1021 l 81 1025 l 224 1025 l 353 824 l 242 824 z "},"ä":{"ha":833,"x_min":86,"x_max":788,"o":"m 315 -14 q 146 38 206 -14 q 86 190 86 89 q 131 325 86 274 q 276 400 176 376 q 538 424 375 424 l 538 497 q 506 587 538 558 q 400 615 474 615 q 297 587 333 615 q 260 507 260 558 l 260 493 l 111 493 q 109 517 110 511 q 108 523 108 524 q 108 520 108 522 q 108 521 108 518 q 190 669 108 614 q 406 724 271 724 q 624 668 550 724 q 699 501 699 613 l 699 139 q 709 107 699 117 q 738 97 719 97 q 788 113 767 97 l 788 13 q 741 -7 769 0 q 682 -14 713 -14 q 610 -3 638 -14 q 569 31 582 7 q 551 96 556 54 q 492 31 528 56 q 412 -3 457 7 q 315 -14 367 -14 m 368 96 q 463 121 425 96 q 519 190 500 146 q 538 286 538 233 l 538 332 q 365 319 429 332 q 274 278 301 307 q 246 200 246 250 q 276 122 246 149 q 368 96 306 96 m 174 847 l 174 990 l 318 990 l 318 847 l 174 847 m 488 847 l 488 990 l 631 990 l 631 847 l 488 847 z "},"ạ":{"ha":833,"x_min":86,"x_max":788,"o":"m 315 -14 q 146 38 206 -14 q 86 190 86 89 q 131 325 86 274 q 276 400 176 376 q 538 424 375 424 l 538 497 q 506 587 538 558 q 400 615 474 615 q 297 587 333 615 q 260 507 260 558 l 260 493 l 111 493 q 109 517 110 511 q 108 523 108 524 q 108 520 108 522 q 108 521 108 518 q 190 669 108 614 q 406 724 271 724 q 624 668 550 724 q 699 501 699 613 l 699 139 q 709 107 699 117 q 738 97 719 97 q 788 113 767 97 l 788 13 q 741 -7 769 0 q 682 -14 713 -14 q 610 -3 638 -14 q 569 31 582 7 q 551 96 556 54 q 492 31 528 56 q 412 -3 457 7 q 315 -14 367 -14 m 368 96 q 463 121 425 96 q 519 190 500 146 q 538 286 538 233 l 538 332 q 365 319 429 332 q 274 278 301 307 q 246 200 246 250 q 276 122 246 149 q 368 96 306 96 m 317 -256 l 317 -110 l 497 -110 l 497 -256 l 317 -256 z "},"à":{"ha":833,"x_min":86,"x_max":788,"o":"m 315 -14 q 146 38 206 -14 q 86 190 86 89 q 131 325 86 274 q 276 400 176 376 q 538 424 375 424 l 538 497 q 506 587 538 558 q 400 615 474 615 q 297 587 333 615 q 260 507 260 558 l 260 493 l 111 493 q 109 517 110 511 q 108 523 108 524 q 108 520 108 522 q 108 521 108 518 q 190 669 108 614 q 406 724 271 724 q 624 668 550 724 q 699 501 699 613 l 699 139 q 709 107 699 117 q 738 97 719 97 q 788 113 767 97 l 788 13 q 741 -7 769 0 q 682 -14 713 -14 q 610 -3 638 -14 q 569 31 582 7 q 551 96 556 54 q 492 31 528 56 q 412 -3 457 7 q 315 -14 367 -14 m 368 96 q 463 121 425 96 q 519 190 500 146 q 538 286 538 233 l 538 332 q 365 319 429 332 q 274 278 301 307 q 246 200 246 250 q 276 122 246 149 q 368 96 306 96 m 368 817 l 224 1050 l 225 1054 l 368 1054 l 478 817 l 368 817 z "},"ả":{"ha":833,"x_min":86,"x_max":788,"o":"m 315 -14 q 146 38 206 -14 q 86 190 86 89 q 131 325 86 274 q 276 400 176 376 q 538 424 375 424 l 538 497 q 506 587 538 558 q 400 615 474 615 q 297 587 333 615 q 260 507 260 558 l 260 493 l 111 493 q 109 517 110 511 q 108 523 108 524 q 108 520 108 522 q 108 521 108 518 q 190 669 108 614 q 406 724 271 724 q 624 668 550 724 q 699 501 699 613 l 699 139 q 709 107 699 117 q 738 97 719 97 q 788 113 767 97 l 788 13 q 741 -7 769 0 q 682 -14 713 -14 q 610 -3 638 -14 q 569 31 582 7 q 551 96 556 54 q 492 31 528 56 q 412 -3 457 7 q 315 -14 367 -14 m 368 96 q 463 121 425 96 q 519 190 500 146 q 538 286 538 233 l 538 332 q 365 319 429 332 q 274 278 301 307 q 246 200 246 250 q 276 122 246 149 q 368 96 306 96 m 364 779 l 364 861 q 431 885 407 865 q 454 936 454 904 q 435 981 454 967 q 383 996 415 996 q 341 992 364 996 q 292 979 318 988 l 292 1081 q 343 1092 318 1089 q 390 1096 368 1096 q 508 1058 461 1096 q 554 951 554 1021 q 527 865 554 903 q 456 805 500 828 q 364 779 413 782 z "},"ȃ":{"ha":833,"x_min":86,"x_max":788,"o":"m 315 -14 q 146 38 206 -14 q 86 190 86 89 q 131 325 86 274 q 276 400 176 376 q 538 424 375 424 l 538 497 q 506 587 538 558 q 400 615 474 615 q 297 587 333 615 q 260 507 260 558 l 260 493 l 111 493 q 109 517 110 511 q 108 523 108 524 q 108 520 108 522 q 108 521 108 518 q 190 669 108 614 q 406 724 271 724 q 624 668 550 724 q 699 501 699 613 l 699 139 q 709 107 699 117 q 738 97 719 97 q 788 113 767 97 l 788 13 q 741 -7 769 0 q 682 -14 713 -14 q 610 -3 638 -14 q 569 31 582 7 q 551 96 556 54 q 492 31 528 56 q 412 -3 457 7 q 315 -14 367 -14 m 368 96 q 463 121 425 96 q 519 190 500 146 q 538 286 538 233 l 538 332 q 365 319 429 332 q 274 278 301 307 q 246 200 246 250 q 276 122 246 149 q 368 96 306 96 m 146 818 q 217 973 146 917 q 407 1029 288 1029 q 596 973 526 1029 q 665 818 665 917 l 567 818 q 523 903 567 871 q 406 935 479 935 q 289 903 333 935 q 244 818 244 871 l 146 818 z "},"ā":{"ha":833,"x_min":86,"x_max":788,"o":"m 315 -14 q 146 38 206 -14 q 86 190 86 89 q 131 325 86 274 q 276 400 176 376 q 538 424 375 424 l 538 497 q 506 587 538 558 q 400 615 474 615 q 297 587 333 615 q 260 507 260 558 l 260 493 l 111 493 q 109 517 110 511 q 108 523 108 524 q 108 520 108 522 q 108 521 108 518 q 190 669 108 614 q 406 724 271 724 q 624 668 550 724 q 699 501 699 613 l 699 139 q 709 107 699 117 q 738 97 719 97 q 788 113 767 97 l 788 13 q 741 -7 769 0 q 682 -14 713 -14 q 610 -3 638 -14 q 569 31 582 7 q 551 96 556 54 q 492 31 528 56 q 412 -3 457 7 q 315 -14 367 -14 m 368 96 q 463 121 425 96 q 519 190 500 146 q 538 286 538 233 l 538 332 q 365 319 429 332 q 274 278 301 307 q 246 200 246 250 q 276 122 246 149 q 368 96 306 96 m 183 860 l 183 951 l 626 951 l 626 860 l 183 860 z "},"ą":{"ha":833,"x_min":86,"x_max":865,"o":"m 315 -14 q 146 38 206 -14 q 86 190 86 89 q 131 325 86 274 q 276 400 176 376 q 538 424 375 424 l 538 497 q 506 587 538 558 q 400 615 474 615 q 297 587 333 615 q 260 507 260 558 l 260 493 l 111 493 q 109 517 110 511 q 108 523 108 524 q 108 520 108 522 q 108 521 108 518 q 190 669 108 614 q 406 724 271 724 q 624 668 550 724 q 699 501 699 613 l 699 139 q 709 107 699 117 q 738 97 719 97 q 788 113 767 97 l 788 13 q 741 -7 769 0 q 682 -14 713 -14 q 610 -3 638 -14 q 569 31 582 7 q 551 96 556 54 q 492 31 528 56 q 412 -3 457 7 q 315 -14 367 -14 m 368 96 q 463 121 425 96 q 519 190 500 146 q 538 286 538 233 l 538 332 q 365 319 429 332 q 274 278 301 307 q 246 200 246 250 q 276 122 246 149 q 368 96 306 96 m 713 -200 q 644 -190 674 -200 q 597 -158 614 -179 q 581 -103 581 -136 q 599 -41 581 -68 q 640 0 618 -14 l 758 0 q 713 -37 732 -15 q 693 -83 693 -60 q 710 -121 693 -108 q 754 -133 728 -133 q 802 -127 779 -133 q 847 -114 825 -121 l 865 -165 q 788 -191 829 -182 q 713 -200 747 -200 z "},"å":{"ha":833,"x_min":86,"x_max":788,"o":"m 315 -14 q 146 38 206 -14 q 86 190 86 89 q 131 325 86 274 q 276 400 176 376 q 538 424 375 424 l 538 497 q 506 587 538 558 q 400 615 474 615 q 297 587 333 615 q 260 507 260 558 l 260 493 l 111 493 q 109 517 110 511 q 108 523 108 524 q 108 520 108 522 q 108 521 108 518 q 190 669 108 614 q 406 724 271 724 q 624 668 550 724 q 699 501 699 613 l 699 139 q 709 107 699 117 q 738 97 719 97 q 788 113 767 97 l 788 13 q 741 -7 769 0 q 682 -14 713 -14 q 610 -3 638 -14 q 569 31 582 7 q 551 96 556 54 q 492 31 528 56 q 412 -3 457 7 q 315 -14 367 -14 m 368 96 q 463 121 425 96 q 519 190 500 146 q 538 286 538 233 l 538 332 q 365 319 429 332 q 274 278 301 307 q 246 200 246 250 q 276 122 246 149 q 368 96 306 96 m 404 813 q 298 852 340 813 q 256 951 256 892 q 298 1052 256 1013 q 404 1092 340 1092 q 511 1052 469 1092 q 553 951 553 1013 q 511 852 553 892 q 404 813 469 813 m 404 882 q 455 901 435 882 q 475 951 475 921 q 455 1003 475 983 q 404 1022 435 1022 q 353 1002 374 1022 q 333 951 333 982 q 353 901 333 921 q 404 882 374 882 z "},"ǻ":{"ha":833,"x_min":86,"x_max":788,"o":"m 315 -14 q 146 38 206 -14 q 86 190 86 89 q 131 325 86 274 q 276 400 176 376 q 538 424 375 424 l 538 497 q 506 587 538 558 q 400 615 474 615 q 297 587 333 615 q 260 507 260 558 l 260 493 l 111 493 q 109 517 110 511 q 108 523 108 524 q 108 520 108 522 q 108 521 108 518 q 190 669 108 614 q 406 724 271 724 q 624 668 550 724 q 699 501 699 613 l 699 139 q 709 107 699 117 q 738 97 719 97 q 788 113 767 97 l 788 13 q 741 -7 769 0 q 682 -14 713 -14 q 610 -3 638 -14 q 569 31 582 7 q 551 96 556 54 q 492 31 528 56 q 412 -3 457 7 q 315 -14 367 -14 m 368 96 q 463 121 425 96 q 519 190 500 146 q 538 286 538 233 l 538 332 q 365 319 429 332 q 274 278 301 307 q 246 200 246 250 q 276 122 246 149 q 368 96 306 96 m 363 1153 l 454 1335 l 569 1335 l 571 1332 l 449 1153 l 363 1153 m 406 813 q 299 852 342 813 q 257 951 257 892 q 299 1052 257 1013 q 406 1092 342 1092 q 513 1052 471 1092 q 554 951 554 1013 q 513 852 554 892 q 406 813 471 813 m 406 882 q 456 901 436 882 q 476 951 476 921 q 456 1003 476 983 q 406 1022 436 1022 q 355 1002 375 1022 q 335 951 335 982 q 355 901 335 921 q 406 882 375 882 z "},"ã":{"ha":833,"x_min":86,"x_max":788,"o":"m 315 -14 q 146 38 206 -14 q 86 190 86 89 q 131 325 86 274 q 276 400 176 376 q 538 424 375 424 l 538 497 q 506 587 538 558 q 400 615 474 615 q 297 587 333 615 q 260 507 260 558 l 260 493 l 111 493 q 109 517 110 511 q 108 523 108 524 q 108 520 108 522 q 108 521 108 518 q 190 669 108 614 q 406 724 271 724 q 624 668 550 724 q 699 501 699 613 l 699 139 q 709 107 699 117 q 738 97 719 97 q 788 113 767 97 l 788 13 q 741 -7 769 0 q 682 -14 713 -14 q 610 -3 638 -14 q 569 31 582 7 q 551 96 556 54 q 492 31 528 56 q 412 -3 457 7 q 315 -14 367 -14 m 368 96 q 463 121 425 96 q 519 190 500 146 q 538 286 538 233 l 538 332 q 365 319 429 332 q 274 278 301 307 q 246 200 246 250 q 276 122 246 149 q 368 96 306 96 m 142 833 q 160 923 143 879 q 211 994 178 967 q 296 1022 244 1022 q 385 1003 349 1022 q 449 965 421 985 q 508 946 478 946 q 560 966 542 946 q 585 1024 578 986 l 663 1024 q 644 935 661 979 q 594 863 628 892 q 510 835 561 835 q 419 854 457 835 q 353 893 382 874 q 292 913 324 913 q 246 893 263 913 q 221 833 229 874 l 142 833 z "},"æ":{"ha":833,"x_min":18,"x_max":815,"o":"m 203 -14 q 112 6 154 -14 q 44 70 69 26 q 18 183 18 114 q 42 299 18 253 q 110 372 65 344 q 215 412 154 400 q 350 424 276 424 l 350 468 q 246 617 350 617 q 181 590 207 617 q 156 507 156 564 l 156 493 l 43 493 q 42 506 42 499 q 42 521 42 514 q 67 628 42 582 q 138 699 93 674 q 243 724 183 724 l 254 724 q 363 692 318 724 q 431 614 408 661 q 498 694 454 665 q 593 724 542 724 l 606 724 q 719 685 672 724 q 790 575 765 646 q 815 408 815 504 l 815 335 l 490 335 q 516 157 490 218 q 600 96 542 96 q 675 140 650 96 q 700 264 700 183 l 815 264 q 791 117 815 179 q 719 20 767 54 q 601 -14 671 -14 l 588 -14 q 481 19 529 -14 q 407 114 432 51 q 324 18 376 50 q 203 -14 271 -14 m 224 96 q 292 119 264 96 q 335 184 321 143 q 350 278 350 225 l 350 332 q 233 319 279 332 q 165 275 188 306 q 142 190 142 244 q 166 117 142 139 q 224 96 190 96 m 492 424 l 694 424 q 669 568 694 519 q 593 617 643 617 q 519 569 544 617 q 492 424 494 522 z "},"ǽ":{"ha":833,"x_min":18,"x_max":815,"o":"m 203 -14 q 112 6 154 -14 q 44 70 69 26 q 18 183 18 114 q 42 299 18 253 q 110 372 65 344 q 215 412 154 400 q 350 424 276 424 l 350 468 q 246 617 350 617 q 181 590 207 617 q 156 507 156 564 l 156 493 l 43 493 q 42 506 42 499 q 42 521 42 514 q 67 628 42 582 q 138 699 93 674 q 243 724 183 724 l 254 724 q 363 692 318 724 q 431 614 408 661 q 498 694 454 665 q 593 724 542 724 l 606 724 q 719 685 672 724 q 790 575 765 646 q 815 408 815 504 l 815 335 l 490 335 q 516 157 490 218 q 600 96 542 96 q 675 140 650 96 q 700 264 700 183 l 815 264 q 791 117 815 179 q 719 20 767 54 q 601 -14 671 -14 l 588 -14 q 481 19 529 -14 q 407 114 432 51 q 324 18 376 50 q 203 -14 271 -14 m 224 96 q 292 119 264 96 q 335 184 321 143 q 350 278 350 225 l 350 332 q 233 319 279 332 q 165 275 188 306 q 142 190 142 244 q 166 117 142 139 q 224 96 190 96 m 492 424 l 694 424 q 669 568 694 519 q 593 617 643 617 q 519 569 544 617 q 492 424 494 522 m 333 817 l 443 1054 l 586 1054 l 588 1050 l 443 817 l 333 817 z "},"b":{"ha":833,"x_min":118,"x_max":763,"o":"m 475 -14 q 351 14 407 -14 q 263 96 296 42 l 249 0 l 118 0 l 118 1000 l 279 1000 l 279 632 q 360 699 310 675 q 481 724 411 724 q 636 679 574 724 q 731 556 699 635 q 763 372 763 476 l 763 353 q 727 158 763 240 q 627 31 692 75 q 475 -14 563 -14 m 440 97 q 555 149 510 97 q 600 310 600 200 l 600 413 q 555 562 600 511 q 440 613 510 613 q 325 562 371 613 q 279 413 279 511 l 279 310 q 325 149 279 200 q 440 97 371 97 z "},"c":{"ha":833,"x_min":81,"x_max":719,"o":"m 400 -14 q 275 11 333 -14 q 173 83 217 36 q 105 193 129 129 q 81 336 81 257 l 81 374 q 105 517 81 453 q 173 627 129 581 q 275 699 217 674 q 401 724 333 724 l 422 724 q 578 688 511 724 q 682 586 644 651 q 719 431 719 521 l 576 431 q 556 536 576 496 q 501 595 536 576 q 417 614 465 614 q 299 564 347 614 q 251 411 251 514 l 251 299 q 298 148 251 200 q 421 96 344 96 q 503 115 468 96 q 558 174 539 133 q 578 279 578 214 l 719 279 q 681 120 719 186 q 576 20 643 54 q 421 -14 508 -14 l 400 -14 z "},"ć":{"ha":833,"x_min":81,"x_max":719,"o":"m 400 -14 q 275 11 333 -14 q 173 83 217 36 q 105 193 129 129 q 81 336 81 257 l 81 374 q 105 517 81 453 q 173 627 129 581 q 275 699 217 674 q 401 724 333 724 l 422 724 q 578 688 511 724 q 682 586 644 651 q 719 431 719 521 l 576 431 q 556 536 576 496 q 501 595 536 576 q 417 614 465 614 q 299 564 347 614 q 251 411 251 514 l 251 299 q 298 148 251 200 q 421 96 344 96 q 503 115 468 96 q 558 174 539 133 q 578 279 578 214 l 719 279 q 681 120 719 186 q 576 20 643 54 q 421 -14 508 -14 l 400 -14 m 333 817 l 443 1054 l 586 1054 l 588 1050 l 443 817 l 333 817 z "},"č":{"ha":833,"x_min":81,"x_max":719,"o":"m 400 -14 q 275 11 333 -14 q 173 83 217 36 q 105 193 129 129 q 81 336 81 257 l 81 374 q 105 517 81 453 q 173 627 129 581 q 275 699 217 674 q 401 724 333 724 l 422 724 q 578 688 511 724 q 682 586 644 651 q 719 431 719 521 l 576 431 q 556 536 576 496 q 501 595 536 576 q 417 614 465 614 q 299 564 347 614 q 251 411 251 514 l 251 299 q 298 148 251 200 q 421 96 344 96 q 503 115 468 96 q 558 174 539 133 q 578 279 578 214 l 719 279 q 681 120 719 186 q 576 20 643 54 q 421 -14 508 -14 l 400 -14 m 654 1053 l 481 817 l 343 817 l 169 1053 l 297 1053 l 456 835 l 368 835 l 526 1053 l 654 1053 z "},"ç":{"ha":833,"x_min":81,"x_max":719,"o":"m 400 -14 q 275 11 333 -14 q 173 83 217 36 q 105 193 129 129 q 81 336 81 257 l 81 374 q 105 517 81 453 q 173 627 129 581 q 275 699 217 674 q 401 724 333 724 l 422 724 q 578 688 511 724 q 682 586 644 651 q 719 431 719 521 l 576 431 q 556 536 576 496 q 501 595 536 576 q 417 614 465 614 q 299 564 347 614 q 251 411 251 514 l 251 299 q 298 148 251 200 q 421 96 344 96 q 503 115 468 96 q 558 174 539 133 q 578 279 578 214 l 719 279 q 681 120 719 186 q 576 20 643 54 q 421 -14 508 -14 l 400 -14 m 404 -290 q 331 -283 368 -290 q 265 -258 293 -275 l 285 -190 q 312 -203 294 -197 q 351 -211 329 -208 q 392 -214 372 -214 q 449 -202 424 -214 q 475 -156 475 -190 q 458 -115 475 -128 q 413 -103 440 -103 l 378 -103 l 378 -40 l 411 -40 q 486 -51 450 -40 q 545 -88 522 -61 q 568 -165 568 -115 q 540 -242 568 -215 q 474 -280 513 -269 q 404 -290 436 -290 z "},"ĉ":{"ha":833,"x_min":81,"x_max":719,"o":"m 400 -14 q 275 11 333 -14 q 173 83 217 36 q 105 193 129 129 q 81 336 81 257 l 81 374 q 105 517 81 453 q 173 627 129 581 q 275 699 217 674 q 401 724 333 724 l 422 724 q 578 688 511 724 q 682 586 644 651 q 719 431 719 521 l 576 431 q 556 536 576 496 q 501 595 536 576 q 417 614 465 614 q 299 564 347 614 q 251 411 251 514 l 251 299 q 298 148 251 200 q 421 96 344 96 q 503 115 468 96 q 558 174 539 133 q 578 279 578 214 l 719 279 q 681 120 719 186 q 576 20 643 54 q 421 -14 508 -14 l 400 -14 m 174 817 l 347 1053 l 485 1053 l 658 817 l 531 817 l 365 1035 l 467 1035 l 301 817 l 174 817 z "},"ċ":{"ha":833,"x_min":81,"x_max":719,"o":"m 400 -14 q 275 11 333 -14 q 173 83 217 36 q 105 193 129 129 q 81 336 81 257 l 81 374 q 105 517 81 453 q 173 627 129 581 q 275 699 217 674 q 401 724 333 724 l 422 724 q 578 688 511 724 q 682 586 644 651 q 719 431 719 521 l 576 431 q 556 536 576 496 q 501 595 536 576 q 417 614 465 614 q 299 564 347 614 q 251 411 251 514 l 251 299 q 298 148 251 200 q 421 96 344 96 q 503 115 468 96 q 558 174 539 133 q 578 279 578 214 l 719 279 q 681 120 719 186 q 576 20 643 54 q 421 -14 508 -14 l 400 -14 m 343 854 l 343 997 l 488 997 l 488 854 l 343 854 z "},"d":{"ha":833,"x_min":71,"x_max":715,"o":"m 351 -14 q 211 23 275 -14 q 109 138 147 60 q 71 342 71 217 l 71 357 q 109 558 71 476 q 212 682 147 640 q 356 724 276 724 q 474 700 424 724 q 554 636 525 676 l 554 1000 l 715 1000 l 715 0 l 585 0 l 568 96 q 483 15 538 43 q 351 -14 429 -14 m 393 97 q 508 149 463 97 q 554 306 554 200 l 554 404 q 508 561 554 510 q 393 613 463 613 q 278 560 324 613 q 233 404 233 508 l 233 307 q 278 149 233 201 q 393 97 324 97 z "},"ð":{"ha":833,"x_min":76,"x_max":757,"o":"m 406 -14 q 236 29 311 -14 q 119 153 161 72 q 76 343 76 233 l 76 367 q 113 546 76 465 q 214 674 149 626 q 365 721 279 721 q 418 717 392 721 q 467 704 444 713 q 410 773 444 736 q 342 838 376 810 l 218 779 l 161 828 l 286 888 q 224 935 256 913 q 164 971 192 957 l 264 1015 q 329 980 296 999 q 394 939 363 961 l 519 999 l 571 949 l 458 894 q 609 747 542 831 q 717 567 676 664 q 757 367 757 471 l 757 343 q 715 153 757 233 q 598 30 672 74 q 429 -14 524 -14 l 406 -14 m 417 96 q 502 119 464 96 q 563 188 540 142 q 586 299 586 233 l 586 411 q 563 523 586 478 q 502 591 540 568 q 417 614 464 614 q 331 591 369 614 q 270 523 293 568 q 247 411 247 478 l 247 299 q 270 188 247 233 q 331 119 293 142 q 417 96 369 96 z "},"ď":{"ha":833,"x_min":71,"x_max":951,"o":"m 351 -14 q 211 23 275 -14 q 109 138 147 60 q 71 342 71 217 l 71 357 q 109 558 71 476 q 212 682 147 640 q 356 724 276 724 q 474 700 424 724 q 554 636 525 676 l 554 1000 l 715 1000 l 715 0 l 585 0 l 568 96 q 483 15 538 43 q 351 -14 429 -14 m 393 97 q 508 149 463 97 q 554 306 554 200 l 554 404 q 508 561 554 510 q 393 613 463 613 q 278 560 324 613 q 233 404 233 508 l 233 307 q 278 149 233 201 q 393 97 324 97 m 792 603 l 792 621 q 846 704 828 661 q 865 793 864 747 l 796 793 l 796 967 l 951 967 l 951 819 q 930 703 951 758 q 872 603 908 647 l 792 603 z "},"đ":{"ha":833,"x_min":71,"x_max":833,"o":"m 351 -14 q 211 23 275 -14 q 109 138 147 60 q 71 342 71 217 l 71 357 q 109 558 71 476 q 212 682 147 640 q 356 724 276 724 q 474 700 424 724 q 554 636 525 676 l 554 1000 l 715 1000 l 715 0 l 585 0 l 568 96 q 483 15 538 43 q 351 -14 429 -14 m 393 97 q 508 149 463 97 q 554 306 554 200 l 554 404 q 508 561 554 510 q 393 613 463 613 q 278 560 324 613 q 233 404 233 508 l 233 307 q 278 149 233 201 q 393 97 324 97 m 315 789 l 315 897 l 833 897 l 833 789 l 315 789 z "},"ǆ":{"ha":833,"x_min":0,"x_max":824,"o":"m 185 -14 q 48 65 96 -14 q 0 292 0 144 l 0 431 q 49 648 0 572 q 189 724 99 724 q 265 701 233 724 q 317 640 297 678 l 317 1000 l 435 1000 l 435 0 l 351 0 l 335 89 q 274 13 308 39 q 185 -14 239 -14 m 217 97 q 267 117 244 97 q 304 181 290 136 q 318 299 318 225 l 318 422 q 288 567 318 521 q 217 613 258 613 q 144 568 169 613 q 118 438 118 524 l 118 285 q 144 145 118 193 q 217 97 169 97 m 467 0 l 467 57 l 676 597 l 482 597 l 482 710 l 814 710 l 814 654 l 604 113 l 824 113 l 824 0 l 467 0 m 590 799 l 474 1000 l 568 1000 l 647 875 l 728 1000 l 822 1000 l 706 799 l 590 799 z "},"e":{"ha":833,"x_min":81,"x_max":742,"o":"m 418 -14 q 228 30 303 -14 q 117 153 153 74 q 81 339 81 233 l 81 371 q 122 558 81 479 q 241 681 164 638 q 424 724 318 724 q 593 685 522 724 q 703 578 664 646 q 742 422 742 511 l 742 326 l 250 326 l 250 299 q 299 147 250 199 q 422 96 347 96 q 547 136 504 96 q 590 260 590 176 l 742 260 q 701 113 742 175 q 589 19 661 51 q 418 -14 517 -14 m 251 425 l 583 425 l 583 446 q 563 532 583 494 q 506 592 543 569 q 421 614 469 614 q 329 588 367 614 q 272 519 292 561 q 251 433 251 478 l 251 425 z "},"é":{"ha":833,"x_min":81,"x_max":742,"o":"m 418 -14 q 228 30 303 -14 q 117 153 153 74 q 81 339 81 233 l 81 371 q 122 558 81 479 q 241 681 164 638 q 424 724 318 724 q 593 685 522 724 q 703 578 664 646 q 742 422 742 511 l 742 326 l 250 326 l 250 299 q 299 147 250 199 q 422 96 347 96 q 547 136 504 96 q 590 260 590 176 l 742 260 q 701 113 742 175 q 589 19 661 51 q 418 -14 517 -14 m 251 425 l 583 425 l 583 446 q 563 532 583 494 q 506 592 543 569 q 421 614 469 614 q 329 588 367 614 q 272 519 292 561 q 251 433 251 478 l 251 425 m 343 817 l 453 1054 l 596 1054 l 597 1050 l 453 817 l 343 817 z "},"ĕ":{"ha":833,"x_min":81,"x_max":742,"o":"m 418 -14 q 228 30 303 -14 q 117 153 153 74 q 81 339 81 233 l 81 371 q 122 558 81 479 q 241 681 164 638 q 424 724 318 724 q 593 685 522 724 q 703 578 664 646 q 742 422 742 511 l 742 326 l 250 326 l 250 299 q 299 147 250 199 q 422 96 347 96 q 547 136 504 96 q 590 260 590 176 l 742 260 q 701 113 742 175 q 589 19 661 51 q 418 -14 517 -14 m 251 425 l 583 425 l 583 446 q 563 532 583 494 q 506 592 543 569 q 421 614 469 614 q 329 588 367 614 q 272 519 292 561 q 251 433 251 478 l 251 425 m 415 817 q 290 844 340 817 q 213 917 239 871 q 183 1019 188 963 l 286 1019 q 331 933 297 960 q 419 907 364 907 q 514 933 481 907 q 561 1019 547 960 l 663 1019 q 629 917 660 963 q 545 844 599 871 q 415 817 492 817 z "},"ě":{"ha":833,"x_min":81,"x_max":742,"o":"m 418 -14 q 228 30 303 -14 q 117 153 153 74 q 81 339 81 233 l 81 371 q 122 558 81 479 q 241 681 164 638 q 424 724 318 724 q 593 685 522 724 q 703 578 664 646 q 742 422 742 511 l 742 326 l 250 326 l 250 299 q 299 147 250 199 q 422 96 347 96 q 547 136 504 96 q 590 260 590 176 l 742 260 q 701 113 742 175 q 589 19 661 51 q 418 -14 517 -14 m 251 425 l 583 425 l 583 446 q 563 532 583 494 q 506 592 543 569 q 421 614 469 614 q 329 588 367 614 q 272 519 292 561 q 251 433 251 478 l 251 425 m 664 1053 l 490 817 l 353 817 l 179 1053 l 307 1053 l 465 835 l 378 835 l 536 1053 l 664 1053 z "},"ê":{"ha":833,"x_min":81,"x_max":742,"o":"m 418 -14 q 228 30 303 -14 q 117 153 153 74 q 81 339 81 233 l 81 371 q 122 558 81 479 q 241 681 164 638 q 424 724 318 724 q 593 685 522 724 q 703 578 664 646 q 742 422 742 511 l 742 326 l 250 326 l 250 299 q 299 147 250 199 q 422 96 347 96 q 547 136 504 96 q 590 260 590 176 l 742 260 q 701 113 742 175 q 589 19 661 51 q 418 -14 517 -14 m 251 425 l 583 425 l 583 446 q 563 532 583 494 q 506 592 543 569 q 421 614 469 614 q 329 588 367 614 q 272 519 292 561 q 251 433 251 478 l 251 425 m 183 817 l 357 1053 l 494 1053 l 668 817 l 540 817 l 375 1035 l 476 1035 l 311 817 l 183 817 z "},"ế":{"ha":833,"x_min":81,"x_max":742,"o":"m 418 -14 q 228 30 303 -14 q 117 153 153 74 q 81 339 81 233 l 81 371 q 122 558 81 479 q 241 681 164 638 q 424 724 318 724 q 593 685 522 724 q 703 578 664 646 q 742 422 742 511 l 742 326 l 250 326 l 250 299 q 299 147 250 199 q 422 96 347 96 q 547 136 504 96 q 590 260 590 176 l 742 260 q 701 113 742 175 q 589 19 661 51 q 418 -14 517 -14 m 251 425 l 583 425 l 583 446 q 563 532 583 494 q 506 592 543 569 q 421 614 469 614 q 329 588 367 614 q 272 519 292 561 q 251 433 251 478 l 251 425 m 175 824 l 364 1025 l 488 1025 l 678 824 l 550 824 l 425 932 l 300 824 l 175 824 m 372 1081 l 501 1282 l 646 1282 l 647 1278 l 483 1081 l 372 1081 z "},"ệ":{"ha":833,"x_min":81,"x_max":742,"o":"m 418 -14 q 228 30 303 -14 q 117 153 153 74 q 81 339 81 233 l 81 371 q 122 558 81 479 q 241 681 164 638 q 424 724 318 724 q 593 685 522 724 q 703 578 664 646 q 742 422 742 511 l 742 326 l 250 326 l 250 299 q 299 147 250 199 q 422 96 347 96 q 547 136 504 96 q 590 260 590 176 l 742 260 q 701 113 742 175 q 589 19 661 51 q 418 -14 517 -14 m 251 425 l 583 425 l 583 446 q 563 532 583 494 q 506 592 543 569 q 421 614 469 614 q 329 588 367 614 q 272 519 292 561 q 251 433 251 478 l 251 425 m 332 -256 l 332 -110 l 513 -110 l 513 -256 l 332 -256 m 183 817 l 357 1053 l 494 1053 l 668 817 l 540 817 l 375 1035 l 476 1035 l 311 817 l 183 817 z "},"ề":{"ha":833,"x_min":81,"x_max":742,"o":"m 418 -14 q 228 30 303 -14 q 117 153 153 74 q 81 339 81 233 l 81 371 q 122 558 81 479 q 241 681 164 638 q 424 724 318 724 q 593 685 522 724 q 703 578 664 646 q 742 422 742 511 l 742 326 l 250 326 l 250 299 q 299 147 250 199 q 422 96 347 96 q 547 136 504 96 q 590 260 590 176 l 742 260 q 701 113 742 175 q 589 19 661 51 q 418 -14 517 -14 m 251 425 l 583 425 l 583 446 q 563 532 583 494 q 506 592 543 569 q 421 614 469 614 q 329 588 367 614 q 272 519 292 561 q 251 433 251 478 l 251 425 m 175 824 l 365 1025 l 489 1025 l 678 824 l 553 824 l 428 932 l 303 824 l 175 824 m 369 1081 l 206 1278 l 207 1282 l 351 1282 l 481 1081 l 369 1081 z "},"ể":{"ha":833,"x_min":81,"x_max":742,"o":"m 418 -14 q 228 30 303 -14 q 117 153 153 74 q 81 339 81 233 l 81 371 q 122 558 81 479 q 241 681 164 638 q 424 724 318 724 q 593 685 522 724 q 703 578 664 646 q 742 422 742 511 l 742 326 l 250 326 l 250 299 q 299 147 250 199 q 422 96 347 96 q 547 136 504 96 q 590 260 590 176 l 742 260 q 701 113 742 175 q 589 19 661 51 q 418 -14 517 -14 m 251 425 l 583 425 l 583 446 q 563 532 583 494 q 506 592 543 569 q 421 614 469 614 q 329 588 367 614 q 272 519 292 561 q 251 433 251 478 l 251 425 m 176 825 l 365 1026 l 489 1026 l 679 825 l 551 825 l 426 933 l 301 825 l 176 825 m 403 1082 l 403 1150 q 459 1171 439 1154 q 479 1214 479 1188 q 463 1251 479 1239 q 418 1264 446 1264 q 383 1260 403 1264 q 343 1250 364 1257 l 343 1335 q 385 1344 364 1342 q 425 1346 406 1346 q 522 1315 483 1346 q 561 1226 561 1285 q 538 1154 561 1186 q 479 1103 515 1122 q 403 1082 443 1085 z "},"ễ":{"ha":833,"x_min":81,"x_max":742,"o":"m 418 -14 q 228 30 303 -14 q 117 153 153 74 q 81 339 81 233 l 81 371 q 122 558 81 479 q 241 681 164 638 q 424 724 318 724 q 593 685 522 724 q 703 578 664 646 q 742 422 742 511 l 742 326 l 250 326 l 250 299 q 299 147 250 199 q 422 96 347 96 q 547 136 504 96 q 590 260 590 176 l 742 260 q 701 113 742 175 q 589 19 661 51 q 418 -14 517 -14 m 251 425 l 583 425 l 583 446 q 563 532 583 494 q 506 592 543 569 q 421 614 469 614 q 329 588 367 614 q 272 519 292 561 q 251 433 251 478 l 251 425 m 175 824 l 364 1025 l 488 1025 l 678 824 l 550 824 l 425 932 l 300 824 l 175 824 m 165 1076 q 183 1153 165 1115 q 238 1215 201 1190 q 326 1239 274 1239 q 403 1227 371 1239 q 465 1203 435 1215 q 532 1190 494 1190 q 581 1203 563 1190 q 607 1239 600 1215 l 685 1239 q 667 1164 685 1201 q 613 1101 649 1126 q 524 1076 578 1076 q 450 1088 481 1076 q 390 1113 419 1100 q 318 1126 360 1125 q 269 1113 288 1126 q 244 1076 251 1100 l 165 1076 z "},"ȅ":{"ha":833,"x_min":81,"x_max":742,"o":"m 418 -14 q 228 30 303 -14 q 117 153 153 74 q 81 339 81 233 l 81 371 q 122 558 81 479 q 241 681 164 638 q 424 724 318 724 q 593 685 522 724 q 703 578 664 646 q 742 422 742 511 l 742 326 l 250 326 l 250 299 q 299 147 250 199 q 422 96 347 96 q 547 136 504 96 q 590 260 590 176 l 742 260 q 701 113 742 175 q 589 19 661 51 q 418 -14 517 -14 m 251 425 l 583 425 l 583 446 q 563 532 583 494 q 506 592 543 569 q 421 614 469 614 q 329 588 367 614 q 272 519 292 561 q 251 433 251 478 l 251 425 m 500 824 l 338 1021 l 339 1025 l 482 1025 l 613 824 l 500 824 m 264 824 l 100 1021 l 103 1025 l 246 1025 l 375 824 l 264 824 z "},"ë":{"ha":833,"x_min":81,"x_max":742,"o":"m 418 -14 q 228 30 303 -14 q 117 153 153 74 q 81 339 81 233 l 81 371 q 122 558 81 479 q 241 681 164 638 q 424 724 318 724 q 593 685 522 724 q 703 578 664 646 q 742 422 742 511 l 742 326 l 250 326 l 250 299 q 299 147 250 199 q 422 96 347 96 q 547 136 504 96 q 590 260 590 176 l 742 260 q 701 113 742 175 q 589 19 661 51 q 418 -14 517 -14 m 251 425 l 583 425 l 583 446 q 563 532 583 494 q 506 592 543 569 q 421 614 469 614 q 329 588 367 614 q 272 519 292 561 q 251 433 251 478 l 251 425 m 196 847 l 196 990 l 340 990 l 340 847 l 196 847 m 510 847 l 510 990 l 653 990 l 653 847 l 510 847 z "},"ė":{"ha":833,"x_min":81,"x_max":742,"o":"m 418 -14 q 228 30 303 -14 q 117 153 153 74 q 81 339 81 233 l 81 371 q 122 558 81 479 q 241 681 164 638 q 424 724 318 724 q 593 685 522 724 q 703 578 664 646 q 742 422 742 511 l 742 326 l 250 326 l 250 299 q 299 147 250 199 q 422 96 347 96 q 547 136 504 96 q 590 260 590 176 l 742 260 q 701 113 742 175 q 589 19 661 51 q 418 -14 517 -14 m 251 425 l 583 425 l 583 446 q 563 532 583 494 q 506 592 543 569 q 421 614 469 614 q 329 588 367 614 q 272 519 292 561 q 251 433 251 478 l 251 425 m 353 854 l 353 997 l 497 997 l 497 854 l 353 854 z "},"ẹ":{"ha":833,"x_min":81,"x_max":742,"o":"m 418 -14 q 228 30 303 -14 q 117 153 153 74 q 81 339 81 233 l 81 371 q 122 558 81 479 q 241 681 164 638 q 424 724 318 724 q 593 685 522 724 q 703 578 664 646 q 742 422 742 511 l 742 326 l 250 326 l 250 299 q 299 147 250 199 q 422 96 347 96 q 547 136 504 96 q 590 260 590 176 l 742 260 q 701 113 742 175 q 589 19 661 51 q 418 -14 517 -14 m 251 425 l 583 425 l 583 446 q 563 532 583 494 q 506 592 543 569 q 421 614 469 614 q 329 588 367 614 q 272 519 292 561 q 251 433 251 478 l 251 425 m 332 -256 l 332 -110 l 513 -110 l 513 -256 l 332 -256 z "},"è":{"ha":833,"x_min":81,"x_max":742,"o":"m 418 -14 q 228 30 303 -14 q 117 153 153 74 q 81 339 81 233 l 81 371 q 122 558 81 479 q 241 681 164 638 q 424 724 318 724 q 593 685 522 724 q 703 578 664 646 q 742 422 742 511 l 742 326 l 250 326 l 250 299 q 299 147 250 199 q 422 96 347 96 q 547 136 504 96 q 590 260 590 176 l 742 260 q 701 113 742 175 q 589 19 661 51 q 418 -14 517 -14 m 251 425 l 583 425 l 583 446 q 563 532 583 494 q 506 592 543 569 q 421 614 469 614 q 329 588 367 614 q 272 519 292 561 q 251 433 251 478 l 251 425 m 390 817 l 246 1050 l 247 1054 l 390 1054 l 500 817 l 390 817 z "},"ẻ":{"ha":833,"x_min":81,"x_max":742,"o":"m 418 -14 q 228 30 303 -14 q 117 153 153 74 q 81 339 81 233 l 81 371 q 122 558 81 479 q 241 681 164 638 q 424 724 318 724 q 593 685 522 724 q 703 578 664 646 q 742 422 742 511 l 742 326 l 250 326 l 250 299 q 299 147 250 199 q 422 96 347 96 q 547 136 504 96 q 590 260 590 176 l 742 260 q 701 113 742 175 q 589 19 661 51 q 418 -14 517 -14 m 251 425 l 583 425 l 583 446 q 563 532 583 494 q 506 592 543 569 q 421 614 469 614 q 329 588 367 614 q 272 519 292 561 q 251 433 251 478 l 251 425 m 386 779 l 386 861 q 453 885 429 865 q 476 936 476 904 q 457 981 476 967 q 406 996 438 996 q 363 992 386 996 q 314 979 340 988 l 314 1081 q 365 1092 340 1089 q 413 1096 390 1096 q 530 1058 483 1096 q 576 951 576 1021 q 549 865 576 903 q 478 805 522 828 q 386 779 435 782 z "},"ȇ":{"ha":833,"x_min":81,"x_max":742,"o":"m 418 -14 q 228 30 303 -14 q 117 153 153 74 q 81 339 81 233 l 81 371 q 122 558 81 479 q 241 681 164 638 q 424 724 318 724 q 593 685 522 724 q 703 578 664 646 q 742 422 742 511 l 742 326 l 250 326 l 250 299 q 299 147 250 199 q 422 96 347 96 q 547 136 504 96 q 590 260 590 176 l 742 260 q 701 113 742 175 q 589 19 661 51 q 418 -14 517 -14 m 251 425 l 583 425 l 583 446 q 563 532 583 494 q 506 592 543 569 q 421 614 469 614 q 329 588 367 614 q 272 519 292 561 q 251 433 251 478 l 251 425 m 168 818 q 239 973 168 917 q 429 1029 310 1029 q 618 973 549 1029 q 688 818 688 917 l 589 818 q 545 903 589 871 q 428 935 501 935 q 311 903 356 935 q 267 818 267 871 l 168 818 z "},"ē":{"ha":833,"x_min":81,"x_max":742,"o":"m 418 -14 q 228 30 303 -14 q 117 153 153 74 q 81 339 81 233 l 81 371 q 122 558 81 479 q 241 681 164 638 q 424 724 318 724 q 593 685 522 724 q 703 578 664 646 q 742 422 742 511 l 742 326 l 250 326 l 250 299 q 299 147 250 199 q 422 96 347 96 q 547 136 504 96 q 590 260 590 176 l 742 260 q 701 113 742 175 q 589 19 661 51 q 418 -14 517 -14 m 251 425 l 583 425 l 583 446 q 563 532 583 494 q 506 592 543 569 q 421 614 469 614 q 329 588 367 614 q 272 519 292 561 q 251 433 251 478 l 251 425 m 206 860 l 206 951 l 649 951 l 649 860 l 206 860 z "},"ę":{"ha":833,"x_min":81,"x_max":742,"o":"m 418 -14 q 228 30 303 -14 q 117 153 153 74 q 81 339 81 233 l 81 371 q 122 558 81 479 q 241 681 164 638 q 424 724 318 724 q 593 685 522 724 q 703 578 664 646 q 742 422 742 511 l 742 326 l 250 326 l 250 299 q 299 147 250 199 q 422 96 347 96 q 547 136 504 96 q 590 260 590 176 l 742 260 q 701 113 742 175 q 589 19 661 51 q 418 -14 517 -14 m 251 425 l 583 425 l 583 446 q 563 532 583 494 q 506 592 543 569 q 421 614 469 614 q 329 588 367 614 q 272 519 292 561 q 251 433 251 478 l 251 425 m 486 -200 q 417 -190 447 -200 q 371 -158 388 -179 q 354 -103 354 -136 q 373 -41 354 -68 q 414 0 392 -14 l 532 0 q 486 -37 506 -15 q 467 -83 467 -60 q 484 -121 467 -108 q 528 -133 501 -133 q 576 -127 553 -133 q 621 -114 599 -121 l 639 -165 q 562 -191 603 -182 q 486 -200 521 -200 z "},"ẽ":{"ha":833,"x_min":81,"x_max":742,"o":"m 418 -14 q 228 30 303 -14 q 117 153 153 74 q 81 339 81 233 l 81 371 q 122 558 81 479 q 241 681 164 638 q 424 724 318 724 q 593 685 522 724 q 703 578 664 646 q 742 422 742 511 l 742 326 l 250 326 l 250 299 q 299 147 250 199 q 422 96 347 96 q 547 136 504 96 q 590 260 590 176 l 742 260 q 701 113 742 175 q 589 19 661 51 q 418 -14 517 -14 m 251 425 l 583 425 l 583 446 q 563 532 583 494 q 506 592 543 569 q 421 614 469 614 q 329 588 367 614 q 272 519 292 561 q 251 433 251 478 l 251 425 m 164 833 q 183 923 165 879 q 233 994 200 967 q 318 1022 267 1022 q 407 1003 371 1022 q 472 965 443 985 q 531 946 500 946 q 582 966 564 946 q 607 1024 600 986 l 685 1024 q 667 935 683 979 q 617 863 650 892 q 532 835 583 835 q 442 854 479 835 q 375 893 404 874 q 314 913 346 913 q 268 893 285 913 q 243 833 251 874 l 164 833 z "},"ə":{"ha":833,"x_min":92,"x_max":753,"o":"m 415 724 q 606 680 532 724 q 717 557 681 636 q 753 371 753 478 l 753 339 q 711 151 753 231 q 592 29 669 72 q 410 -14 515 -14 q 241 25 313 -14 q 131 132 169 64 q 92 288 92 200 l 92 383 l 583 383 l 583 411 q 535 563 583 511 q 411 614 486 614 q 286 574 329 614 q 243 450 243 533 l 92 450 q 132 597 92 536 q 245 691 172 658 q 415 724 318 724 m 582 285 l 250 285 l 250 264 q 270 178 250 217 q 327 118 290 140 q 413 96 364 96 q 505 122 467 96 q 563 190 543 149 q 582 276 582 232 l 582 285 z "},"f":{"ha":833,"x_min":114,"x_max":756,"o":"m 306 0 l 306 586 l 115 586 l 115 710 l 306 710 l 306 782 q 342 909 306 858 q 444 985 379 960 q 589 1011 508 1011 q 677 1002 629 1011 q 756 978 725 993 l 756 868 q 698 886 731 878 q 632 894 665 894 q 550 884 588 894 q 490 846 513 874 q 468 765 468 818 l 468 710 l 740 710 l 740 586 l 468 586 l 468 0 l 306 0 m 114 0 l 114 121 l 747 121 l 747 0 l 114 0 z "},"g":{"ha":833,"x_min":63,"x_max":799,"o":"m 253 -261 q 111 -212 160 -261 q 63 -93 63 -164 q 92 1 63 -40 q 167 63 121 43 q 119 114 136 82 q 101 182 101 146 q 134 271 101 232 q 222 319 167 310 q 147 394 172 349 q 121 500 121 440 q 196 663 121 603 q 422 724 271 724 q 557 703 506 724 q 640 754 614 718 q 671 838 667 790 l 799 838 q 759 719 799 765 q 654 657 719 672 l 654 654 q 706 587 688 628 q 724 500 724 546 q 654 335 724 397 q 450 274 585 274 l 336 274 q 274 256 297 274 q 251 207 251 239 q 274 158 251 175 q 335 140 296 140 l 581 140 q 741 88 683 140 q 799 -50 799 36 q 741 -202 799 -143 q 578 -261 683 -261 l 253 -261 m 299 -161 l 553 -161 q 625 -135 600 -161 q 650 -72 650 -110 q 626 -11 650 -36 q 553 14 601 14 l 299 14 q 227 -12 251 14 q 203 -74 203 -37 q 227 -135 203 -108 q 299 -161 251 -161 m 425 372 q 535 405 494 372 q 575 499 575 438 q 535 592 575 560 q 425 624 494 624 q 315 592 356 624 q 275 499 275 560 q 315 405 275 438 q 425 372 356 372 z "},"ğ":{"ha":833,"x_min":63,"x_max":799,"o":"m 253 -261 q 111 -212 160 -261 q 63 -93 63 -164 q 92 1 63 -40 q 167 63 121 43 q 119 114 136 82 q 101 182 101 146 q 134 271 101 232 q 222 319 167 310 q 147 394 172 349 q 121 500 121 440 q 196 663 121 603 q 422 724 271 724 q 557 703 506 724 q 640 754 614 718 q 671 838 667 790 l 799 838 q 759 719 799 765 q 654 657 719 672 l 654 654 q 706 587 688 628 q 724 500 724 546 q 654 335 724 397 q 450 274 585 274 l 336 274 q 274 256 297 274 q 251 207 251 239 q 274 158 251 175 q 335 140 296 140 l 581 140 q 741 88 683 140 q 799 -50 799 36 q 741 -202 799 -143 q 578 -261 683 -261 l 253 -261 m 299 -161 l 553 -161 q 625 -135 600 -161 q 650 -72 650 -110 q 626 -11 650 -36 q 553 14 601 14 l 299 14 q 227 -12 251 14 q 203 -74 203 -37 q 227 -135 203 -108 q 299 -161 251 -161 m 425 372 q 535 405 494 372 q 575 499 575 438 q 535 592 575 560 q 425 624 494 624 q 315 592 356 624 q 275 499 275 560 q 315 405 275 438 q 425 372 356 372 m 406 817 q 280 844 331 817 q 203 917 229 871 q 174 1019 178 963 l 276 1019 q 321 933 288 960 q 410 907 354 907 q 504 933 471 907 q 551 1019 538 960 l 653 1019 q 619 917 650 963 q 535 844 589 871 q 406 817 482 817 z "},"ǧ":{"ha":833,"x_min":63,"x_max":799,"o":"m 253 -261 q 111 -212 160 -261 q 63 -93 63 -164 q 92 1 63 -40 q 167 63 121 43 q 119 114 136 82 q 101 182 101 146 q 134 271 101 232 q 222 319 167 310 q 147 394 172 349 q 121 500 121 440 q 196 663 121 603 q 422 724 271 724 q 557 703 506 724 q 640 754 614 718 q 671 838 667 790 l 799 838 q 759 719 799 765 q 654 657 719 672 l 654 654 q 706 587 688 628 q 724 500 724 546 q 654 335 724 397 q 450 274 585 274 l 336 274 q 274 256 297 274 q 251 207 251 239 q 274 158 251 175 q 335 140 296 140 l 581 140 q 741 88 683 140 q 799 -50 799 36 q 741 -202 799 -143 q 578 -261 683 -261 l 253 -261 m 299 -161 l 553 -161 q 625 -135 600 -161 q 650 -72 650 -110 q 626 -11 650 -36 q 553 14 601 14 l 299 14 q 227 -12 251 14 q 203 -74 203 -37 q 227 -135 203 -108 q 299 -161 251 -161 m 425 372 q 535 405 494 372 q 575 499 575 438 q 535 592 575 560 q 425 624 494 624 q 315 592 356 624 q 275 499 275 560 q 315 405 275 438 q 425 372 356 372 m 654 1053 l 481 817 l 343 817 l 169 1053 l 297 1053 l 456 835 l 368 835 l 526 1053 l 654 1053 z "},"ĝ":{"ha":833,"x_min":63,"x_max":831,"o":"m 253 -261 q 111 -212 160 -261 q 63 -93 63 -164 q 92 1 63 -40 q 167 63 121 43 q 119 114 136 82 q 101 182 101 146 q 134 271 101 232 q 222 319 167 310 q 147 394 172 349 q 121 500 121 440 q 196 663 121 603 q 422 724 271 724 q 508 715 461 724 q 589 688 554 707 q 669 730 640 699 q 703 808 699 761 l 831 808 q 787 693 831 736 q 672 636 743 650 l 672 633 q 710 577 696 608 q 724 500 724 546 q 654 335 724 397 q 450 274 585 274 l 336 274 q 274 256 297 274 q 251 207 251 239 q 274 158 251 175 q 335 140 296 140 l 581 140 q 741 88 683 140 q 799 -50 799 36 q 741 -202 799 -143 q 578 -261 683 -261 l 253 -261 m 299 -161 l 553 -161 q 625 -135 600 -161 q 650 -72 650 -110 q 626 -11 650 -36 q 553 14 601 14 l 299 14 q 227 -12 251 14 q 203 -74 203 -37 q 227 -135 203 -108 q 299 -161 251 -161 m 425 372 q 535 405 494 372 q 575 499 575 438 q 535 592 575 560 q 425 624 494 624 q 315 592 356 624 q 275 499 275 560 q 315 405 275 438 q 425 372 356 372 m 179 817 l 342 990 l 499 990 l 658 817 l 524 817 l 396 954 l 444 954 l 313 817 l 179 817 z "},"ģ":{"ha":833,"x_min":63,"x_max":799,"o":"m 253 -261 q 111 -212 160 -261 q 63 -93 63 -164 q 92 1 63 -40 q 167 63 121 43 q 119 114 136 82 q 101 182 101 146 q 134 271 101 232 q 222 319 167 310 q 147 394 172 349 q 121 500 121 440 q 196 663 121 603 q 422 724 271 724 q 557 703 506 724 q 640 754 614 718 q 671 838 667 790 l 799 838 q 759 719 799 765 q 654 657 719 672 l 654 654 q 706 587 688 628 q 724 500 724 546 q 654 335 724 397 q 450 274 585 274 l 336 274 q 274 256 297 274 q 251 207 251 239 q 274 158 251 175 q 335 140 296 140 l 581 140 q 741 88 683 140 q 799 -50 799 36 q 741 -202 799 -143 q 578 -261 683 -261 l 253 -261 m 299 -161 l 553 -161 q 625 -135 600 -161 q 650 -72 650 -110 q 626 -11 650 -36 q 553 14 601 14 l 299 14 q 227 -12 251 14 q 203 -74 203 -37 q 227 -135 203 -108 q 299 -161 251 -161 m 425 372 q 535 405 494 372 q 575 499 575 438 q 535 592 575 560 q 425 624 494 624 q 315 592 356 624 q 275 499 275 560 q 315 405 275 438 q 425 372 356 372 m 497 1208 l 497 1192 q 443 1106 461 1151 q 425 1014 425 1060 l 492 1014 l 492 838 l 340 838 l 340 989 q 360 1107 340 1049 q 418 1208 379 1165 l 497 1208 z "},"ġ":{"ha":833,"x_min":63,"x_max":799,"o":"m 253 -261 q 111 -212 160 -261 q 63 -93 63 -164 q 92 1 63 -40 q 167 63 121 43 q 119 114 136 82 q 101 182 101 146 q 134 271 101 232 q 222 319 167 310 q 147 394 172 349 q 121 500 121 440 q 196 663 121 603 q 422 724 271 724 q 557 703 506 724 q 640 754 614 718 q 671 838 667 790 l 799 838 q 759 719 799 765 q 654 657 719 672 l 654 654 q 706 587 688 628 q 724 500 724 546 q 654 335 724 397 q 450 274 585 274 l 336 274 q 274 256 297 274 q 251 207 251 239 q 274 158 251 175 q 335 140 296 140 l 581 140 q 741 88 683 140 q 799 -50 799 36 q 741 -202 799 -143 q 578 -261 683 -261 l 253 -261 m 299 -161 l 553 -161 q 625 -135 600 -161 q 650 -72 650 -110 q 626 -11 650 -36 q 553 14 601 14 l 299 14 q 227 -12 251 14 q 203 -74 203 -37 q 227 -135 203 -108 q 299 -161 251 -161 m 425 372 q 535 405 494 372 q 575 499 575 438 q 535 592 575 560 q 425 624 494 624 q 315 592 356 624 q 275 499 275 560 q 315 405 275 438 q 425 372 356 372 m 343 854 l 343 997 l 488 997 l 488 854 l 343 854 z "},"ǥ":{"ha":833,"x_min":-8,"x_max":867,"o":"m 253 -261 q 111 -212 160 -261 q 63 -93 63 -164 q 92 1 63 -40 q 167 63 121 43 q 119 114 136 82 q 101 182 101 146 q 134 271 101 232 q 222 319 167 310 q 147 394 172 349 q 121 500 121 440 q 196 663 121 603 q 422 724 271 724 q 557 703 506 724 q 640 754 614 718 q 671 838 667 790 l 799 838 q 759 719 799 765 q 654 657 719 672 l 654 654 q 706 587 688 628 q 724 500 724 546 q 654 335 724 397 q 450 274 585 274 l 336 274 q 274 256 297 274 q 251 207 251 239 q 274 158 251 175 q 335 140 296 140 l 581 140 q 741 88 683 140 q 799 -50 799 36 q 741 -202 799 -143 q 578 -261 683 -261 l 253 -261 m 425 372 q 535 405 494 372 q 575 499 575 438 q 535 592 575 560 q 425 624 494 624 q 315 592 356 624 q 275 499 275 560 q 315 405 275 438 q 425 372 356 372 m 299 -161 l 553 -161 q 625 -135 600 -161 q 650 -72 650 -110 q 626 -11 650 -36 q 553 14 601 14 l 299 14 q 227 -12 251 14 q 203 -74 203 -37 q 227 -135 203 -108 q 299 -161 251 -161 m -8 -122 l -8 -12 l 122 -12 l 167 -26 l 696 -26 l 742 -12 l 867 -12 l 867 -122 l 740 -122 l 697 -108 l 161 -108 l 113 -122 l -8 -122 z "},"h":{"ha":833,"x_min":113,"x_max":728,"o":"m 113 0 l 113 1000 l 274 1000 l 274 617 q 366 697 310 669 q 486 724 422 724 q 610 696 556 724 q 697 613 665 668 q 728 476 728 558 l 728 0 l 565 0 l 565 443 q 528 562 565 522 q 425 601 490 601 q 347 581 382 601 q 293 525 313 561 q 274 443 274 489 l 274 0 l 113 0 z "},"ħ":{"ha":833,"x_min":-3,"x_max":728,"o":"m 113 0 l 113 1000 l 274 1000 l 274 617 q 366 697 310 669 q 486 724 422 724 q 610 696 556 724 q 697 613 665 668 q 728 476 728 558 l 728 0 l 565 0 l 565 443 q 528 562 565 522 q 425 601 490 601 q 347 581 382 601 q 293 525 313 561 q 274 443 274 489 l 274 0 l 113 0 m -3 789 l -3 897 l 515 897 l 515 789 l -3 789 z "},"ĥ":{"ha":833,"x_min":-49,"x_max":728,"o":"m 113 0 l 113 1000 l 274 1000 l 274 617 q 366 697 310 669 q 486 724 422 724 q 610 696 556 724 q 697 613 665 668 q 728 476 728 558 l 728 0 l 565 0 l 565 443 q 528 562 565 522 q 425 601 490 601 q 347 581 382 601 q 293 525 313 561 q 274 443 274 489 l 274 0 l 113 0 m -49 1056 l 114 1229 l 271 1229 l 431 1056 l 296 1056 l 168 1193 l 217 1193 l 85 1056 l -49 1056 z "},"ḥ":{"ha":833,"x_min":113,"x_max":728,"o":"m 113 0 l 113 1000 l 274 1000 l 274 617 q 366 697 310 669 q 486 724 422 724 q 610 696 556 724 q 697 613 665 668 q 728 476 728 558 l 728 0 l 565 0 l 565 443 q 528 562 565 522 q 425 601 490 601 q 347 581 382 601 q 293 525 313 561 q 274 443 274 489 l 274 0 l 113 0 m 329 -256 l 329 -110 l 510 -110 l 510 -256 l 329 -256 z "},"i":{"ha":833,"x_min":128,"x_max":771,"o":"m 376 0 l 376 586 l 128 586 l 128 710 l 538 710 l 538 0 l 376 0 m 128 0 l 128 121 l 771 121 l 771 0 l 128 0 m 374 854 l 374 997 l 518 997 l 518 854 l 374 854 z "},"ı":{"ha":833,"x_min":128,"x_max":771,"o":"m 376 0 l 376 586 l 128 586 l 128 710 l 538 710 l 538 0 l 376 0 m 128 0 l 128 121 l 771 121 l 771 0 l 128 0 z "},"í":{"ha":833,"x_min":128,"x_max":771,"o":"m 376 0 l 376 586 l 128 586 l 128 710 l 538 710 l 538 0 l 376 0 m 128 0 l 128 121 l 771 121 l 771 0 l 128 0 m 364 817 l 474 1054 l 617 1054 l 618 1050 l 474 817 l 364 817 z "},"ĭ":{"ha":833,"x_min":128,"x_max":771,"o":"m 376 0 l 376 586 l 128 586 l 128 710 l 538 710 l 538 0 l 376 0 m 128 0 l 128 121 l 771 121 l 771 0 l 128 0 m 436 817 q 310 844 361 817 q 234 917 260 871 q 204 1019 208 963 l 307 1019 q 351 933 318 960 q 440 907 385 907 q 535 933 501 907 q 582 1019 568 960 l 683 1019 q 650 917 681 963 q 566 844 619 871 q 436 817 513 817 z "},"ǐ":{"ha":833,"x_min":128,"x_max":771,"o":"m 376 0 l 376 586 l 128 586 l 128 710 l 538 710 l 538 0 l 376 0 m 128 0 l 128 121 l 771 121 l 771 0 l 128 0 m 685 1053 l 511 817 l 374 817 l 200 1053 l 328 1053 l 486 835 l 399 835 l 557 1053 l 685 1053 z "},"î":{"ha":833,"x_min":128,"x_max":771,"o":"m 376 0 l 376 586 l 128 586 l 128 710 l 538 710 l 538 0 l 376 0 m 128 0 l 128 121 l 771 121 l 771 0 l 128 0 m 204 817 l 378 1053 l 515 1053 l 689 817 l 561 817 l 396 1035 l 497 1035 l 332 817 l 204 817 z "},"ȉ":{"ha":833,"x_min":121,"x_max":771,"o":"m 376 0 l 376 586 l 128 586 l 128 710 l 538 710 l 538 0 l 376 0 m 128 0 l 128 121 l 771 121 l 771 0 l 128 0 m 521 824 l 358 1021 l 360 1025 l 503 1025 l 633 824 l 521 824 m 285 824 l 121 1021 l 124 1025 l 267 1025 l 396 824 l 285 824 z "},"ï":{"ha":833,"x_min":128,"x_max":771,"o":"m 376 0 l 376 586 l 128 586 l 128 710 l 538 710 l 538 0 l 376 0 m 128 0 l 128 121 l 771 121 l 771 0 l 128 0 m 217 847 l 217 990 l 361 990 l 361 847 l 217 847 m 531 847 l 531 990 l 674 990 l 674 847 l 531 847 z "},"ị":{"ha":833,"x_min":128,"x_max":771,"o":"m 376 0 l 376 586 l 128 586 l 128 710 l 538 710 l 538 0 l 376 0 m 128 0 l 128 121 l 771 121 l 771 0 l 128 0 m 374 854 l 374 997 l 518 997 l 518 854 l 374 854 m 364 -256 l 364 -110 l 544 -110 l 544 -256 l 364 -256 z "},"ì":{"ha":833,"x_min":128,"x_max":771,"o":"m 376 0 l 376 586 l 128 586 l 128 710 l 538 710 l 538 0 l 376 0 m 128 0 l 128 121 l 771 121 l 771 0 l 128 0 m 411 817 l 267 1050 l 268 1054 l 411 1054 l 521 817 l 411 817 z "},"ỉ":{"ha":833,"x_min":128,"x_max":771,"o":"m 376 0 l 376 586 l 128 586 l 128 710 l 538 710 l 538 0 l 376 0 m 128 0 l 128 121 l 771 121 l 771 0 l 128 0 m 407 779 l 407 861 q 474 885 450 865 q 497 936 497 904 q 478 981 497 967 q 426 996 458 996 q 384 992 407 996 q 335 979 361 988 l 335 1081 q 386 1092 361 1089 q 433 1096 411 1096 q 551 1058 504 1096 q 597 951 597 1021 q 570 865 597 903 q 499 805 543 828 q 407 779 456 782 z "},"ȋ":{"ha":833,"x_min":128,"x_max":771,"o":"m 376 0 l 376 586 l 128 586 l 128 710 l 538 710 l 538 0 l 376 0 m 128 0 l 128 121 l 771 121 l 771 0 l 128 0 m 189 818 q 260 973 189 917 q 450 1029 331 1029 q 639 973 569 1029 q 708 818 708 917 l 610 818 q 566 903 610 871 q 449 935 522 935 q 332 903 376 935 q 288 818 288 871 l 189 818 z "},"ĳ":{"ha":833,"x_min":93,"x_max":728,"o":"m 113 0 l 113 710 l 274 710 l 274 0 l 113 0 m 93 840 l 93 1000 l 292 1000 l 292 840 l 93 840 m 478 -258 q 382 -247 429 -258 q 303 -218 335 -236 l 303 -108 q 364 -131 328 -121 q 435 -142 400 -142 q 492 -134 465 -142 q 535 -100 518 -126 q 551 -21 551 -74 l 551 593 l 413 593 l 413 710 l 713 710 l 713 -22 q 648 -200 713 -142 q 478 -258 583 -258 m 528 840 l 528 1000 l 728 1000 l 728 840 l 528 840 z "},"ī":{"ha":833,"x_min":128,"x_max":771,"o":"m 376 0 l 376 586 l 128 586 l 128 710 l 538 710 l 538 0 l 376 0 m 128 0 l 128 121 l 771 121 l 771 0 l 128 0 m 226 860 l 226 951 l 669 951 l 669 860 l 226 860 z "},"į":{"ha":833,"x_min":128,"x_max":771,"o":"m 376 0 l 376 586 l 128 586 l 128 710 l 538 710 l 538 0 l 376 0 m 128 0 l 128 121 l 771 121 l 771 0 l 128 0 m 374 854 l 374 997 l 518 997 l 518 854 l 374 854 m 485 -200 q 416 -190 446 -200 q 369 -158 386 -179 q 353 -103 353 -136 q 372 -41 353 -68 q 413 0 390 -14 l 531 0 q 485 -37 504 -15 q 465 -83 465 -60 q 483 -121 465 -108 q 526 -133 500 -133 q 574 -127 551 -133 q 619 -114 597 -121 l 638 -165 q 560 -191 601 -182 q 485 -200 519 -200 z "},"ɨ":{"ha":833,"x_min":128,"x_max":771,"o":"m 213 449 l 692 449 l 692 326 l 213 326 l 213 449 m 376 0 l 376 586 l 128 586 l 128 710 l 538 710 l 538 0 l 376 0 m 128 0 l 128 121 l 771 121 l 771 0 l 128 0 m 374 854 l 374 997 l 518 997 l 518 854 l 374 854 z "},"ĩ":{"ha":833,"x_min":128,"x_max":771,"o":"m 376 0 l 376 586 l 128 586 l 128 710 l 538 710 l 538 0 l 376 0 m 128 0 l 128 121 l 771 121 l 771 0 l 128 0 m 185 833 q 203 923 186 879 q 254 994 221 967 q 339 1022 288 1022 q 428 1003 392 1022 q 492 965 464 985 q 551 946 521 946 q 603 966 585 946 q 628 1024 621 986 l 706 1024 q 688 935 704 979 q 638 863 671 892 q 553 835 604 835 q 463 854 500 835 q 396 893 425 874 q 335 913 367 913 q 289 893 306 913 q 264 833 272 874 l 185 833 z "},"j":{"ha":833,"x_min":128,"x_max":538,"o":"m 303 -258 q 206 -247 253 -258 q 128 -218 160 -236 l 128 -108 q 188 -131 151 -121 q 260 -142 224 -142 q 317 -134 290 -142 q 360 -100 343 -126 q 376 -21 376 -74 l 376 586 l 128 586 l 128 710 l 538 710 l 538 -22 q 473 -200 538 -142 q 303 -258 408 -258 m 379 854 l 379 997 l 524 997 l 524 854 l 379 854 z "},"ȷ":{"ha":833,"x_min":128,"x_max":538,"o":"m 303 -258 q 206 -247 253 -258 q 128 -218 160 -236 l 128 -108 q 188 -131 151 -121 q 260 -142 224 -142 q 317 -134 290 -142 q 360 -100 343 -126 q 376 -21 376 -74 l 376 586 l 128 586 l 128 710 l 538 710 l 538 -22 q 473 -200 538 -142 q 303 -258 408 -258 z "},"ĵ":{"ha":833,"x_min":128,"x_max":694,"o":"m 303 -258 q 206 -247 253 -258 q 128 -218 160 -236 l 128 -108 q 188 -131 151 -121 q 260 -142 224 -142 q 317 -134 290 -142 q 360 -100 343 -126 q 376 -21 376 -74 l 376 586 l 128 586 l 128 710 l 538 710 l 538 -22 q 473 -200 538 -142 q 303 -258 408 -258 m 210 817 l 383 1053 l 521 1053 l 694 817 l 567 817 l 401 1035 l 503 1035 l 338 817 l 210 817 z "},"k":{"ha":833,"x_min":103,"x_max":771,"o":"m 103 0 l 103 1000 l 264 1000 l 264 342 l 568 710 l 757 710 l 481 381 l 771 0 l 576 0 l 367 268 l 264 168 l 264 0 l 103 0 z "},"ķ":{"ha":833,"x_min":103,"x_max":771,"o":"m 103 0 l 103 1000 l 264 1000 l 264 342 l 568 710 l 757 710 l 481 381 l 771 0 l 576 0 l 367 268 l 264 168 l 264 0 l 103 0 m 318 -468 l 318 -451 q 372 -365 354 -411 q 390 -274 390 -319 l 324 -274 l 324 -97 l 475 -97 l 475 -249 q 456 -367 475 -308 q 397 -468 436 -425 l 318 -468 z "},"ĸ":{"ha":833,"x_min":103,"x_max":771,"o":"m 103 0 l 103 710 l 264 710 l 264 342 l 568 710 l 757 710 l 481 381 l 771 0 l 576 0 l 367 268 l 264 168 l 264 0 l 103 0 z "},"l":{"ha":833,"x_min":99,"x_max":742,"o":"m 349 0 l 349 878 l 99 878 l 99 1001 l 508 1001 l 508 0 l 349 0 m 99 0 l 99 121 l 742 121 l 742 0 l 99 0 z "},"ĺ":{"ha":833,"x_min":99,"x_max":742,"o":"m 349 0 l 349 878 l 99 878 l 99 1001 l 508 1001 l 508 0 l 349 0 m 99 0 l 99 121 l 742 121 l 742 0 l 99 0 m 353 1049 l 490 1236 l 643 1236 l 643 1232 l 481 1049 l 353 1049 z "},"ľ":{"ha":833,"x_min":99,"x_max":746,"o":"m 349 0 l 349 878 l 99 878 l 99 1001 l 508 1001 l 508 0 l 349 0 m 99 0 l 99 121 l 742 121 l 742 0 l 99 0 m 586 603 l 586 621 q 640 704 622 661 q 660 793 658 747 l 590 793 l 590 967 l 746 967 l 746 819 q 724 703 746 758 q 667 603 703 647 l 586 603 z "},"ļ":{"ha":833,"x_min":99,"x_max":742,"o":"m 349 0 l 349 878 l 99 878 l 99 1001 l 508 1001 l 508 0 l 349 0 m 99 0 l 99 121 l 742 121 l 742 0 l 99 0 m 333 -468 l 333 -451 q 388 -365 369 -411 q 406 -274 406 -319 l 339 -274 l 339 -97 l 490 -97 l 490 -249 q 471 -367 490 -308 q 413 -468 451 -425 l 333 -468 z "},"ŀ":{"ha":833,"x_min":99,"x_max":936,"o":"m 349 0 l 349 878 l 99 878 l 99 1001 l 508 1001 l 508 0 l 349 0 m 99 0 l 99 121 l 742 121 l 742 0 l 99 0 m 742 428 l 742 614 l 936 614 l 936 428 l 742 428 z "},"ǉ":{"ha":833,"x_min":113,"x_max":728,"o":"m 478 -258 q 382 -247 429 -258 q 303 -218 335 -236 l 303 -108 q 364 -131 328 -121 q 435 -142 400 -142 q 492 -134 465 -142 q 535 -100 518 -126 q 551 -21 551 -74 l 551 593 l 413 593 l 413 710 l 713 710 l 713 -22 q 648 -200 713 -142 q 478 -258 583 -258 m 113 0 l 113 1000 l 274 1000 l 274 0 l 113 0 m 528 840 l 528 1000 l 728 1000 l 728 840 l 528 840 z "},"ł":{"ha":833,"x_min":99,"x_max":742,"o":"m 349 0 l 349 878 l 99 878 l 99 1001 l 508 1001 l 508 0 l 349 0 m 99 0 l 99 121 l 742 121 l 742 0 l 99 0 m 149 333 l 149 432 l 699 707 l 699 607 l 149 333 z "},"m":{"ha":833,"x_min":68,"x_max":767,"o":"m 68 0 l 68 710 l 160 710 l 175 632 q 235 700 197 676 q 318 724 274 724 q 403 699 367 724 q 457 628 439 674 q 520 699 483 675 q 610 724 557 724 q 727 674 688 724 q 767 538 767 625 l 767 0 l 632 0 l 632 507 q 563 599 632 599 q 507 573 529 599 q 485 507 485 547 l 485 0 l 351 0 l 351 507 q 279 599 351 599 q 224 573 246 599 q 203 507 203 547 l 203 0 l 68 0 z "},"n":{"ha":833,"x_min":113,"x_max":728,"o":"m 113 0 l 113 710 l 243 710 l 258 614 q 347 697 290 671 q 475 724 404 724 q 659 659 590 724 q 728 471 728 594 l 728 0 l 565 0 l 565 429 q 528 560 565 518 q 425 601 492 601 q 345 578 379 601 q 292 515 311 556 q 274 422 274 475 l 274 0 l 113 0 z "},"ń":{"ha":833,"x_min":113,"x_max":728,"o":"m 113 0 l 113 710 l 243 710 l 258 614 q 347 697 290 671 q 475 724 404 724 q 659 659 590 724 q 728 471 728 594 l 728 0 l 565 0 l 565 429 q 528 560 565 518 q 425 601 492 601 q 345 578 379 601 q 292 515 311 556 q 274 422 274 475 l 274 0 l 113 0 m 340 817 l 450 1054 l 593 1054 l 594 1050 l 450 817 l 340 817 z "},"ŉ":{"ha":833,"x_min":21,"x_max":728,"o":"m 21 753 l 21 769 q 71 847 53 807 q 89 929 89 886 l 26 929 l 26 1090 l 169 1090 l 169 954 q 150 845 169 897 q 96 753 131 793 l 21 753 m 113 0 l 113 710 l 243 710 l 258 614 q 347 697 290 671 q 475 724 404 724 q 659 659 590 724 q 728 471 728 594 l 728 0 l 565 0 l 565 429 q 528 560 565 518 q 425 601 492 601 q 345 578 379 601 q 292 515 311 556 q 274 422 274 475 l 274 0 l 113 0 z "},"ň":{"ha":833,"x_min":113,"x_max":728,"o":"m 113 0 l 113 710 l 243 710 l 258 614 q 347 697 290 671 q 475 724 404 724 q 659 659 590 724 q 728 471 728 594 l 728 0 l 565 0 l 565 429 q 528 560 565 518 q 425 601 492 601 q 345 578 379 601 q 292 515 311 556 q 274 422 274 475 l 274 0 l 113 0 m 661 1053 l 488 817 l 350 817 l 176 1053 l 304 1053 l 463 835 l 375 835 l 533 1053 l 661 1053 z "},"ņ":{"ha":833,"x_min":113,"x_max":728,"o":"m 113 0 l 113 710 l 243 710 l 258 614 q 347 697 290 671 q 475 724 404 724 q 659 659 590 724 q 728 471 728 594 l 728 0 l 565 0 l 565 429 q 528 560 565 518 q 425 601 492 601 q 345 578 379 601 q 292 515 311 556 q 274 422 274 475 l 274 0 l 113 0 m 340 -468 l 340 -451 q 394 -365 376 -411 q 413 -274 413 -319 l 346 -274 l 346 -97 l 497 -97 l 497 -249 q 478 -367 497 -308 q 419 -468 458 -425 l 340 -468 z "},"ɲ":{"ha":833,"x_min":-53,"x_max":728,"o":"m 79 -258 q 33 -255 58 -258 q -15 -246 8 -251 q -53 -232 -37 -240 l -53 -128 q -13 -143 -37 -137 q 33 -149 11 -149 q 88 -133 63 -149 q 113 -57 113 -117 l 113 710 l 243 710 l 258 614 q 347 697 290 671 q 475 724 404 724 q 659 659 590 724 q 728 471 728 594 l 728 0 l 565 0 l 565 429 q 528 560 565 518 q 425 601 492 601 q 345 578 379 601 q 292 515 311 556 q 274 422 274 475 l 274 -74 q 219 -213 274 -168 q 79 -258 164 -258 z "},"ǌ":{"ha":833,"x_min":68,"x_max":781,"o":"m 68 0 l 68 710 l 160 710 l 175 632 q 235 700 197 676 q 318 724 274 724 q 440 672 396 724 q 485 525 485 619 l 485 0 l 351 0 l 351 507 q 279 599 351 599 q 224 573 246 599 q 203 507 203 547 l 203 0 l 68 0 m 551 -258 q 460 -247 504 -258 q 383 -218 415 -236 l 383 -114 q 444 -137 408 -126 q 515 -149 481 -149 q 572 -141 546 -149 q 615 -108 599 -133 q 632 -33 632 -83 l 632 710 l 767 710 l 767 -35 q 708 -203 767 -149 q 551 -258 649 -258 m 596 840 l 596 1000 l 781 1000 l 781 840 l 596 840 z "},"ñ":{"ha":833,"x_min":113,"x_max":728,"o":"m 113 0 l 113 710 l 243 710 l 258 614 q 347 697 290 671 q 475 724 404 724 q 659 659 590 724 q 728 471 728 594 l 728 0 l 565 0 l 565 429 q 528 560 565 518 q 425 601 492 601 q 345 578 379 601 q 292 515 311 556 q 274 422 274 475 l 274 0 l 113 0 m 161 833 q 180 923 163 879 q 231 994 197 967 q 315 1022 264 1022 q 404 1003 368 1022 q 469 965 440 985 q 528 946 497 946 q 579 966 561 946 q 604 1024 597 986 l 682 1024 q 664 935 681 979 q 614 863 647 892 q 529 835 581 835 q 439 854 476 835 q 372 893 401 874 q 311 913 343 913 q 265 893 282 913 q 240 833 249 874 l 161 833 z "},"ŋ":{"ha":833,"x_min":113,"x_max":728,"o":"m 532 -258 q 486 -255 511 -258 q 438 -246 461 -251 q 400 -232 415 -240 l 400 -128 q 440 -143 415 -137 q 486 -149 464 -149 q 540 -133 515 -149 q 565 -57 565 -117 l 565 429 q 528 560 565 518 q 425 601 492 601 q 345 578 379 601 q 292 515 311 556 q 274 422 274 475 l 274 0 l 113 0 l 113 710 l 243 710 l 258 614 q 347 697 290 671 q 475 724 404 724 q 659 659 590 724 q 728 471 728 594 l 728 -74 q 672 -213 728 -168 q 532 -258 617 -258 z "},"o":{"ha":833,"x_min":79,"x_max":754,"o":"m 417 -14 q 235 32 311 -14 q 119 159 160 78 q 79 343 79 240 l 79 367 q 119 553 79 472 q 235 678 160 633 q 415 724 311 724 q 598 678 522 724 q 714 551 674 632 q 754 367 754 471 l 754 343 q 714 157 754 238 q 598 31 674 76 q 417 -14 522 -14 m 417 96 q 538 150 490 96 q 585 299 585 204 l 585 411 q 538 560 585 506 q 417 614 490 614 q 297 560 344 614 q 249 411 249 506 l 249 299 q 297 150 249 204 q 417 96 344 96 z "},"ó":{"ha":833,"x_min":79,"x_max":754,"o":"m 417 -14 q 235 32 311 -14 q 119 159 160 78 q 79 343 79 240 l 79 367 q 119 553 79 472 q 235 678 160 633 q 415 724 311 724 q 598 678 522 724 q 714 551 674 632 q 754 367 754 471 l 754 343 q 714 157 754 238 q 598 31 674 76 q 417 -14 522 -14 m 417 96 q 538 150 490 96 q 585 299 585 204 l 585 411 q 538 560 585 506 q 417 614 490 614 q 297 560 344 614 q 249 411 249 506 l 249 299 q 297 150 249 204 q 417 96 344 96 m 333 817 l 443 1054 l 586 1054 l 588 1050 l 443 817 l 333 817 z "},"ŏ":{"ha":833,"x_min":79,"x_max":754,"o":"m 417 -14 q 235 32 311 -14 q 119 159 160 78 q 79 343 79 240 l 79 367 q 119 553 79 472 q 235 678 160 633 q 415 724 311 724 q 598 678 522 724 q 714 551 674 632 q 754 367 754 471 l 754 343 q 714 157 754 238 q 598 31 674 76 q 417 -14 522 -14 m 417 96 q 538 150 490 96 q 585 299 585 204 l 585 411 q 538 560 585 506 q 417 614 490 614 q 297 560 344 614 q 249 411 249 506 l 249 299 q 297 150 249 204 q 417 96 344 96 m 406 817 q 280 844 331 817 q 203 917 229 871 q 174 1019 178 963 l 276 1019 q 321 933 288 960 q 410 907 354 907 q 504 933 471 907 q 551 1019 538 960 l 653 1019 q 619 917 650 963 q 535 844 589 871 q 406 817 482 817 z "},"ǒ":{"ha":833,"x_min":79,"x_max":754,"o":"m 417 -14 q 235 32 311 -14 q 119 159 160 78 q 79 343 79 240 l 79 367 q 119 553 79 472 q 235 678 160 633 q 415 724 311 724 q 598 678 522 724 q 714 551 674 632 q 754 367 754 471 l 754 343 q 714 157 754 238 q 598 31 674 76 q 417 -14 522 -14 m 417 96 q 538 150 490 96 q 585 299 585 204 l 585 411 q 538 560 585 506 q 417 614 490 614 q 297 560 344 614 q 249 411 249 506 l 249 299 q 297 150 249 204 q 417 96 344 96 m 654 1053 l 481 817 l 343 817 l 169 1053 l 297 1053 l 456 835 l 368 835 l 526 1053 l 654 1053 z "},"ô":{"ha":833,"x_min":79,"x_max":754,"o":"m 417 -14 q 235 32 311 -14 q 119 159 160 78 q 79 343 79 240 l 79 367 q 119 553 79 472 q 235 678 160 633 q 415 724 311 724 q 598 678 522 724 q 714 551 674 632 q 754 367 754 471 l 754 343 q 714 157 754 238 q 598 31 674 76 q 417 -14 522 -14 m 417 96 q 538 150 490 96 q 585 299 585 204 l 585 411 q 538 560 585 506 q 417 614 490 614 q 297 560 344 614 q 249 411 249 506 l 249 299 q 297 150 249 204 q 417 96 344 96 m 174 817 l 347 1053 l 485 1053 l 658 817 l 531 817 l 365 1035 l 467 1035 l 301 817 l 174 817 z "},"ố":{"ha":833,"x_min":79,"x_max":754,"o":"m 417 -14 q 235 32 311 -14 q 119 159 160 78 q 79 343 79 240 l 79 367 q 119 553 79 472 q 235 678 160 633 q 415 724 311 724 q 598 678 522 724 q 714 551 674 632 q 754 367 754 471 l 754 343 q 714 157 754 238 q 598 31 674 76 q 417 -14 522 -14 m 417 96 q 538 150 490 96 q 585 299 585 204 l 585 411 q 538 560 585 506 q 417 614 490 614 q 297 560 344 614 q 249 411 249 506 l 249 299 q 297 150 249 204 q 417 96 344 96 m 165 824 l 354 1025 l 478 1025 l 668 824 l 540 824 l 415 932 l 290 824 l 165 824 m 363 1081 l 492 1282 l 636 1282 l 638 1278 l 474 1081 l 363 1081 z "},"ộ":{"ha":833,"x_min":79,"x_max":754,"o":"m 417 -14 q 235 32 311 -14 q 119 159 160 78 q 79 343 79 240 l 79 367 q 119 553 79 472 q 235 678 160 633 q 415 724 311 724 q 598 678 522 724 q 714 551 674 632 q 754 367 754 471 l 754 343 q 714 157 754 238 q 598 31 674 76 q 417 -14 522 -14 m 417 96 q 538 150 490 96 q 585 299 585 204 l 585 411 q 538 560 585 506 q 417 614 490 614 q 297 560 344 614 q 249 411 249 506 l 249 299 q 297 150 249 204 q 417 96 344 96 m 329 -256 l 329 -110 l 510 -110 l 510 -256 l 329 -256 m 174 817 l 347 1053 l 485 1053 l 658 817 l 531 817 l 365 1035 l 467 1035 l 301 817 l 174 817 z "},"ồ":{"ha":833,"x_min":79,"x_max":754,"o":"m 417 -14 q 235 32 311 -14 q 119 159 160 78 q 79 343 79 240 l 79 367 q 119 553 79 472 q 235 678 160 633 q 415 724 311 724 q 598 678 522 724 q 714 551 674 632 q 754 367 754 471 l 754 343 q 714 157 754 238 q 598 31 674 76 q 417 -14 522 -14 m 417 96 q 538 150 490 96 q 585 299 585 204 l 585 411 q 538 560 585 506 q 417 614 490 614 q 297 560 344 614 q 249 411 249 506 l 249 299 q 297 150 249 204 q 417 96 344 96 m 165 824 l 356 1025 l 479 1025 l 668 824 l 543 824 l 418 932 l 293 824 l 165 824 m 360 1081 l 196 1278 l 197 1282 l 342 1282 l 471 1081 l 360 1081 z "},"ổ":{"ha":833,"x_min":79,"x_max":754,"o":"m 417 -14 q 235 32 311 -14 q 119 159 160 78 q 79 343 79 240 l 79 367 q 119 553 79 472 q 235 678 160 633 q 415 724 311 724 q 598 678 522 724 q 714 551 674 632 q 754 367 754 471 l 754 343 q 714 157 754 238 q 598 31 674 76 q 417 -14 522 -14 m 417 96 q 538 150 490 96 q 585 299 585 204 l 585 411 q 538 560 585 506 q 417 614 490 614 q 297 560 344 614 q 249 411 249 506 l 249 299 q 297 150 249 204 q 417 96 344 96 m 167 825 l 356 1026 l 479 1026 l 669 825 l 542 825 l 417 933 l 292 825 l 167 825 m 393 1082 l 393 1150 q 449 1171 429 1154 q 469 1214 469 1188 q 453 1251 469 1239 q 408 1264 436 1264 q 374 1260 393 1264 q 333 1250 354 1257 l 333 1335 q 375 1344 354 1342 q 415 1346 396 1346 q 513 1315 474 1346 q 551 1226 551 1285 q 528 1154 551 1186 q 469 1103 506 1122 q 393 1082 433 1085 z "},"ỗ":{"ha":833,"x_min":79,"x_max":754,"o":"m 417 -14 q 235 32 311 -14 q 119 159 160 78 q 79 343 79 240 l 79 367 q 119 553 79 472 q 235 678 160 633 q 415 724 311 724 q 598 678 522 724 q 714 551 674 632 q 754 367 754 471 l 754 343 q 714 157 754 238 q 598 31 674 76 q 417 -14 522 -14 m 417 96 q 538 150 490 96 q 585 299 585 204 l 585 411 q 538 560 585 506 q 417 614 490 614 q 297 560 344 614 q 249 411 249 506 l 249 299 q 297 150 249 204 q 417 96 344 96 m 165 824 l 354 1025 l 478 1025 l 668 824 l 540 824 l 415 932 l 290 824 l 165 824 m 156 1076 q 174 1153 156 1115 q 228 1215 192 1190 q 317 1239 264 1239 q 393 1227 361 1239 q 455 1203 425 1215 q 522 1190 485 1190 q 572 1203 553 1190 q 597 1239 590 1215 l 675 1239 q 657 1164 675 1201 q 603 1101 639 1126 q 514 1076 568 1076 q 440 1088 471 1076 q 380 1113 410 1100 q 308 1126 350 1125 q 260 1113 278 1126 q 235 1076 242 1100 l 156 1076 z "},"ȍ":{"ha":833,"x_min":79,"x_max":754,"o":"m 417 -14 q 235 32 311 -14 q 119 159 160 78 q 79 343 79 240 l 79 367 q 119 553 79 472 q 235 678 160 633 q 415 724 311 724 q 598 678 522 724 q 714 551 674 632 q 754 367 754 471 l 754 343 q 714 157 754 238 q 598 31 674 76 q 417 -14 522 -14 m 417 96 q 538 150 490 96 q 585 299 585 204 l 585 411 q 538 560 585 506 q 417 614 490 614 q 297 560 344 614 q 249 411 249 506 l 249 299 q 297 150 249 204 q 417 96 344 96 m 490 824 l 328 1021 l 329 1025 l 472 1025 l 603 824 l 490 824 m 254 824 l 90 1021 l 93 1025 l 236 1025 l 365 824 l 254 824 z "},"ö":{"ha":833,"x_min":79,"x_max":754,"o":"m 417 -14 q 235 32 311 -14 q 119 159 160 78 q 79 343 79 240 l 79 367 q 119 553 79 472 q 235 678 160 633 q 415 724 311 724 q 598 678 522 724 q 714 551 674 632 q 754 367 754 471 l 754 343 q 714 157 754 238 q 598 31 674 76 q 417 -14 522 -14 m 417 96 q 538 150 490 96 q 585 299 585 204 l 585 411 q 538 560 585 506 q 417 614 490 614 q 297 560 344 614 q 249 411 249 506 l 249 299 q 297 150 249 204 q 417 96 344 96 m 186 847 l 186 990 l 331 990 l 331 847 l 186 847 m 500 847 l 500 990 l 643 990 l 643 847 l 500 847 z "},"ȫ":{"ha":833,"x_min":79,"x_max":754,"o":"m 417 -14 q 235 32 311 -14 q 119 159 160 78 q 79 343 79 240 l 79 367 q 119 553 79 472 q 235 678 160 633 q 415 724 311 724 q 598 678 522 724 q 714 551 674 632 q 754 367 754 471 l 754 343 q 714 157 754 238 q 598 31 674 76 q 417 -14 522 -14 m 417 96 q 538 150 490 96 q 585 299 585 204 l 585 411 q 538 560 585 506 q 417 614 490 614 q 297 560 344 614 q 249 411 249 506 l 249 299 q 297 150 249 204 q 417 96 344 96 m 189 1069 l 189 1168 l 647 1168 l 647 1069 l 189 1069 m 647 844 l 469 844 l 469 1004 l 647 1004 l 647 844 m 367 844 l 189 844 l 189 1004 l 367 1004 l 367 844 z "},"ȱ":{"ha":833,"x_min":79,"x_max":754,"o":"m 417 -14 q 235 32 311 -14 q 119 159 160 78 q 79 343 79 240 l 79 367 q 119 553 79 472 q 235 678 160 633 q 415 724 311 724 q 598 678 522 724 q 714 551 674 632 q 754 367 754 471 l 754 343 q 714 157 754 238 q 598 31 674 76 q 417 -14 522 -14 m 417 96 q 538 150 490 96 q 585 299 585 204 l 585 411 q 538 560 585 506 q 417 614 490 614 q 297 560 344 614 q 249 411 249 506 l 249 299 q 297 150 249 204 q 417 96 344 96 m 204 1056 l 204 1154 l 631 1154 l 631 1056 l 204 1056 m 326 853 l 326 999 l 507 999 l 507 853 l 326 853 z "},"ọ":{"ha":833,"x_min":79,"x_max":754,"o":"m 417 -14 q 235 32 311 -14 q 119 159 160 78 q 79 343 79 240 l 79 367 q 119 553 79 472 q 235 678 160 633 q 415 724 311 724 q 598 678 522 724 q 714 551 674 632 q 754 367 754 471 l 754 343 q 714 157 754 238 q 598 31 674 76 q 417 -14 522 -14 m 417 96 q 538 150 490 96 q 585 299 585 204 l 585 411 q 538 560 585 506 q 417 614 490 614 q 297 560 344 614 q 249 411 249 506 l 249 299 q 297 150 249 204 q 417 96 344 96 m 329 -256 l 329 -110 l 510 -110 l 510 -256 l 329 -256 z "},"ò":{"ha":833,"x_min":79,"x_max":754,"o":"m 417 -14 q 235 32 311 -14 q 119 159 160 78 q 79 343 79 240 l 79 367 q 119 553 79 472 q 235 678 160 633 q 415 724 311 724 q 598 678 522 724 q 714 551 674 632 q 754 367 754 471 l 754 343 q 714 157 754 238 q 598 31 674 76 q 417 -14 522 -14 m 417 96 q 538 150 490 96 q 585 299 585 204 l 585 411 q 538 560 585 506 q 417 614 490 614 q 297 560 344 614 q 249 411 249 506 l 249 299 q 297 150 249 204 q 417 96 344 96 m 381 817 l 236 1050 l 238 1054 l 381 1054 l 490 817 l 381 817 z "},"ỏ":{"ha":833,"x_min":79,"x_max":754,"o":"m 417 -14 q 235 32 311 -14 q 119 159 160 78 q 79 343 79 240 l 79 367 q 119 553 79 472 q 235 678 160 633 q 415 724 311 724 q 598 678 522 724 q 714 551 674 632 q 754 367 754 471 l 754 343 q 714 157 754 238 q 598 31 674 76 q 417 -14 522 -14 m 417 96 q 538 150 490 96 q 585 299 585 204 l 585 411 q 538 560 585 506 q 417 614 490 614 q 297 560 344 614 q 249 411 249 506 l 249 299 q 297 150 249 204 q 417 96 344 96 m 376 779 l 376 861 q 443 885 419 865 q 467 936 467 904 q 447 981 467 967 q 396 996 428 996 q 353 992 376 996 q 304 979 331 988 l 304 1081 q 356 1092 331 1089 q 403 1096 381 1096 q 520 1058 474 1096 q 567 951 567 1021 q 540 865 567 903 q 469 805 513 828 q 376 779 425 782 z "},"ơ":{"ha":833,"x_min":79,"x_max":861,"o":"m 417 -14 q 235 32 311 -14 q 119 159 160 78 q 79 343 79 240 l 79 367 q 119 553 79 472 q 235 678 160 633 q 415 724 311 724 q 598 678 522 724 q 714 551 674 632 q 754 367 754 471 l 754 343 q 714 157 754 238 q 598 31 674 76 q 417 -14 522 -14 m 417 96 q 538 150 490 96 q 585 299 585 204 l 585 411 q 538 560 585 506 q 417 614 490 614 q 297 560 344 614 q 249 411 249 506 l 249 299 q 297 150 249 204 q 417 96 344 96 m 592 568 l 592 658 q 688 720 660 669 q 717 860 717 771 l 861 860 q 828 722 861 785 q 736 618 796 658 q 592 568 676 578 z "},"ớ":{"ha":833,"x_min":79,"x_max":861,"o":"m 417 -14 q 235 32 311 -14 q 119 159 160 78 q 79 343 79 240 l 79 367 q 119 553 79 472 q 235 678 160 633 q 415 724 311 724 q 598 678 522 724 q 714 551 674 632 q 754 367 754 471 l 754 343 q 714 157 754 238 q 598 31 674 76 q 417 -14 522 -14 m 417 96 q 538 150 490 96 q 585 299 585 204 l 585 411 q 538 560 585 506 q 417 614 490 614 q 297 560 344 614 q 249 411 249 506 l 249 299 q 297 150 249 204 q 417 96 344 96 m 592 568 l 592 658 q 688 720 660 669 q 717 860 717 771 l 861 860 q 828 722 861 785 q 736 618 796 658 q 592 568 676 578 m 333 817 l 443 1054 l 586 1054 l 588 1050 l 443 817 l 333 817 z "},"ợ":{"ha":833,"x_min":79,"x_max":861,"o":"m 417 -14 q 235 32 311 -14 q 119 159 160 78 q 79 343 79 240 l 79 367 q 119 553 79 472 q 235 678 160 633 q 415 724 311 724 q 598 678 522 724 q 714 551 674 632 q 754 367 754 471 l 754 343 q 714 157 754 238 q 598 31 674 76 q 417 -14 522 -14 m 417 96 q 538 150 490 96 q 585 299 585 204 l 585 411 q 538 560 585 506 q 417 614 490 614 q 297 560 344 614 q 249 411 249 506 l 249 299 q 297 150 249 204 q 417 96 344 96 m 592 568 l 592 658 q 688 720 660 669 q 717 860 717 771 l 861 860 q 828 722 861 785 q 736 618 796 658 q 592 568 676 578 m 329 -256 l 329 -110 l 510 -110 l 510 -256 l 329 -256 z "},"ờ":{"ha":833,"x_min":79,"x_max":861,"o":"m 417 -14 q 235 32 311 -14 q 119 159 160 78 q 79 343 79 240 l 79 367 q 119 553 79 472 q 235 678 160 633 q 415 724 311 724 q 598 678 522 724 q 714 551 674 632 q 754 367 754 471 l 754 343 q 714 157 754 238 q 598 31 674 76 q 417 -14 522 -14 m 417 96 q 538 150 490 96 q 585 299 585 204 l 585 411 q 538 560 585 506 q 417 614 490 614 q 297 560 344 614 q 249 411 249 506 l 249 299 q 297 150 249 204 q 417 96 344 96 m 592 568 l 592 658 q 688 720 660 669 q 717 860 717 771 l 861 860 q 828 722 861 785 q 736 618 796 658 q 592 568 676 578 m 381 817 l 236 1050 l 238 1054 l 381 1054 l 490 817 l 381 817 z "},"ở":{"ha":833,"x_min":79,"x_max":861,"o":"m 417 -14 q 235 32 311 -14 q 119 159 160 78 q 79 343 79 240 l 79 367 q 119 553 79 472 q 235 678 160 633 q 415 724 311 724 q 598 678 522 724 q 714 551 674 632 q 754 367 754 471 l 754 343 q 714 157 754 238 q 598 31 674 76 q 417 -14 522 -14 m 417 96 q 538 150 490 96 q 585 299 585 204 l 585 411 q 538 560 585 506 q 417 614 490 614 q 297 560 344 614 q 249 411 249 506 l 249 299 q 297 150 249 204 q 417 96 344 96 m 592 568 l 592 658 q 688 720 660 669 q 717 860 717 771 l 861 860 q 828 722 861 785 q 736 618 796 658 q 592 568 676 578 m 376 779 l 376 861 q 443 885 419 865 q 467 936 467 904 q 447 981 467 967 q 396 996 428 996 q 353 992 376 996 q 304 979 331 988 l 304 1081 q 356 1092 331 1089 q 403 1096 381 1096 q 520 1058 474 1096 q 567 951 567 1021 q 540 865 567 903 q 469 805 513 828 q 376 779 425 782 z "},"ỡ":{"ha":833,"x_min":79,"x_max":861,"o":"m 417 -14 q 235 32 311 -14 q 119 159 160 78 q 79 343 79 240 l 79 367 q 119 553 79 472 q 235 678 160 633 q 415 724 311 724 q 598 678 522 724 q 714 551 674 632 q 754 367 754 471 l 754 343 q 714 157 754 238 q 598 31 674 76 q 417 -14 522 -14 m 417 96 q 538 150 490 96 q 585 299 585 204 l 585 411 q 538 560 585 506 q 417 614 490 614 q 297 560 344 614 q 249 411 249 506 l 249 299 q 297 150 249 204 q 417 96 344 96 m 592 568 l 592 658 q 688 720 660 669 q 717 860 717 771 l 861 860 q 828 722 861 785 q 736 618 796 658 q 592 568 676 578 m 181 833 q 197 923 182 879 q 243 994 213 967 q 319 1022 274 1022 q 399 1003 367 1022 q 458 965 432 985 q 511 946 483 946 q 556 966 540 946 q 579 1024 572 986 l 649 1024 q 633 935 649 979 q 588 863 618 892 q 511 835 558 835 q 431 854 464 835 q 370 893 397 874 q 315 913 343 913 q 274 893 289 913 q 251 833 260 874 l 181 833 z "},"ő":{"ha":833,"x_min":79,"x_max":754,"o":"m 417 -14 q 235 32 311 -14 q 119 159 160 78 q 79 343 79 240 l 79 367 q 119 553 79 472 q 235 678 160 633 q 415 724 311 724 q 598 678 522 724 q 714 551 674 632 q 754 367 754 471 l 754 343 q 714 157 754 238 q 598 31 674 76 q 417 -14 522 -14 m 417 96 q 538 150 490 96 q 585 299 585 204 l 585 411 q 538 560 585 506 q 417 614 490 614 q 297 560 344 614 q 249 411 249 506 l 249 299 q 297 150 249 204 q 417 96 344 96 m 461 824 l 578 1025 l 740 1025 l 742 1021 l 572 824 l 461 824 m 225 824 l 340 1025 l 503 1025 l 506 1021 l 336 824 l 225 824 z "},"ȏ":{"ha":833,"x_min":79,"x_max":754,"o":"m 417 -14 q 235 32 311 -14 q 119 159 160 78 q 79 343 79 240 l 79 367 q 119 553 79 472 q 235 678 160 633 q 415 724 311 724 q 598 678 522 724 q 714 551 674 632 q 754 367 754 471 l 754 343 q 714 157 754 238 q 598 31 674 76 q 417 -14 522 -14 m 417 96 q 538 150 490 96 q 585 299 585 204 l 585 411 q 538 560 585 506 q 417 614 490 614 q 297 560 344 614 q 249 411 249 506 l 249 299 q 297 150 249 204 q 417 96 344 96 m 158 818 q 229 973 158 917 q 419 1029 300 1029 q 608 973 539 1029 q 678 818 678 917 l 579 818 q 535 903 579 871 q 418 935 492 935 q 301 903 346 935 q 257 818 257 871 l 158 818 z "},"ō":{"ha":833,"x_min":79,"x_max":754,"o":"m 417 -14 q 235 32 311 -14 q 119 159 160 78 q 79 343 79 240 l 79 367 q 119 553 79 472 q 235 678 160 633 q 415 724 311 724 q 598 678 522 724 q 714 551 674 632 q 754 367 754 471 l 754 343 q 714 157 754 238 q 598 31 674 76 q 417 -14 522 -14 m 417 96 q 538 150 490 96 q 585 299 585 204 l 585 411 q 538 560 585 506 q 417 614 490 614 q 297 560 344 614 q 249 411 249 506 l 249 299 q 297 150 249 204 q 417 96 344 96 m 196 860 l 196 951 l 639 951 l 639 860 l 196 860 z "},"ǫ":{"ha":833,"x_min":79,"x_max":754,"o":"m 417 -14 q 235 32 311 -14 q 119 159 160 78 q 79 343 79 240 l 79 367 q 119 553 79 472 q 235 678 160 633 q 415 724 311 724 q 598 678 522 724 q 714 551 674 632 q 754 367 754 471 l 754 343 q 714 157 754 238 q 598 31 674 76 q 417 -14 522 -14 m 417 96 q 538 150 490 96 q 585 299 585 204 l 585 411 q 538 560 585 506 q 417 614 490 614 q 297 560 344 614 q 249 411 249 506 l 249 299 q 297 150 249 204 q 417 96 344 96 m 469 -200 q 401 -190 431 -200 q 354 -158 371 -179 q 338 -103 338 -136 q 356 -41 338 -68 q 397 0 375 -14 l 515 0 q 469 -37 489 -15 q 450 -83 450 -60 q 467 -121 450 -108 q 511 -133 485 -133 q 559 -127 536 -133 q 604 -114 582 -121 l 622 -165 q 545 -191 586 -182 q 469 -200 504 -200 z "},"ø":{"ha":833,"x_min":79,"x_max":754,"o":"m 417 -14 q 235 32 311 -14 q 119 159 160 78 q 79 343 79 240 l 79 367 q 119 553 79 472 q 235 678 160 633 q 415 724 311 724 q 598 678 522 724 q 714 551 674 632 q 754 367 754 471 l 754 343 q 714 157 754 238 q 598 31 674 76 q 417 -14 522 -14 m 417 96 q 538 150 490 96 q 585 299 585 204 l 585 411 q 538 560 585 506 q 417 614 490 614 q 297 560 344 614 q 249 411 249 506 l 249 299 q 297 150 249 204 q 417 96 344 96 m 100 -78 l 643 789 l 735 789 l 190 -78 l 100 -78 z "},"ǿ":{"ha":833,"x_min":79,"x_max":754,"o":"m 417 -14 q 235 32 311 -14 q 119 159 160 78 q 79 343 79 240 l 79 367 q 119 553 79 472 q 235 678 160 633 q 415 724 311 724 q 598 678 522 724 q 714 551 674 632 q 754 367 754 471 l 754 343 q 714 157 754 238 q 598 31 674 76 q 417 -14 522 -14 m 417 96 q 538 150 490 96 q 585 299 585 204 l 585 411 q 538 560 585 506 q 417 614 490 614 q 297 560 344 614 q 249 411 249 506 l 249 299 q 297 150 249 204 q 417 96 344 96 m 100 -78 l 643 789 l 735 789 l 190 -78 l 100 -78 m 333 817 l 443 1054 l 586 1054 l 588 1050 l 443 817 l 333 817 z "},"õ":{"ha":833,"x_min":79,"x_max":754,"o":"m 417 -14 q 235 32 311 -14 q 119 159 160 78 q 79 343 79 240 l 79 367 q 119 553 79 472 q 235 678 160 633 q 415 724 311 724 q 598 678 522 724 q 714 551 674 632 q 754 367 754 471 l 754 343 q 714 157 754 238 q 598 31 674 76 q 417 -14 522 -14 m 417 96 q 538 150 490 96 q 585 299 585 204 l 585 411 q 538 560 585 506 q 417 614 490 614 q 297 560 344 614 q 249 411 249 506 l 249 299 q 297 150 249 204 q 417 96 344 96 m 154 833 q 173 923 156 879 q 224 994 190 967 q 308 1022 257 1022 q 397 1003 361 1022 q 462 965 433 985 q 521 946 490 946 q 572 966 554 946 q 597 1024 590 986 l 675 1024 q 657 935 674 979 q 607 863 640 892 q 522 835 574 835 q 432 854 469 835 q 365 893 394 874 q 304 913 336 913 q 258 893 275 913 q 233 833 242 874 l 154 833 z "},"ȭ":{"ha":833,"x_min":79,"x_max":754,"o":"m 417 -14 q 235 32 311 -14 q 119 159 160 78 q 79 343 79 240 l 79 367 q 119 553 79 472 q 235 678 160 633 q 415 724 311 724 q 598 678 522 724 q 714 551 674 632 q 754 367 754 471 l 754 343 q 714 157 754 238 q 598 31 674 76 q 417 -14 522 -14 m 417 96 q 538 150 490 96 q 585 299 585 204 l 585 411 q 538 560 585 506 q 417 614 490 614 q 297 560 344 614 q 249 411 249 506 l 249 299 q 297 150 249 204 q 417 96 344 96 m 176 1083 l 176 1168 l 651 1168 l 651 1083 l 176 1083 m 140 849 q 156 918 140 883 q 206 976 172 953 q 290 1000 239 1000 q 385 988 343 1000 q 465 962 426 975 q 547 949 504 949 q 592 962 575 949 q 615 1000 608 975 l 693 1000 q 677 931 693 965 q 628 872 661 896 q 543 849 594 849 q 447 861 490 849 q 365 886 404 874 q 286 899 326 899 q 242 885 260 899 q 218 849 225 872 l 140 849 z "}}}
